<?xml version="1.0" encoding="utf-8"?>
<!-- Generator: Adobe Illustrator 23.0.2, SVG Export Plug-In . SVG Version: 6.00 Build 0)  -->
<svg version="1.1" id="Layer_1" xmlns="http://www.w3.org/2000/svg" xmlns:xlink="http://www.w3.org/1999/xlink" x="0px" y="0px"
	 viewBox="0 0 640 400" style="enable-background:new 0 0 640 400;" xml:space="preserve">
<style type="text/css">
	.st0{fill:none;stroke:#84D3AC;stroke-width:1.2077;stroke-miterlimit:10;}
	.st1{fill:none;stroke:#84D3AC;stroke-width:2;stroke-miterlimit:10;}
	.st2{fill:none;stroke:#84D3AC;stroke-miterlimit:10;}
	.st3{fill:none;stroke:#84D3AC;stroke-width:1.2149;stroke-miterlimit:10;}
	.st4{clip-path:url(#SVGID_2_);}
	.st5{fill:none;stroke:#84D3AC;stroke-width:6;stroke-linecap:round;stroke-linejoin:round;}
	.st6{fill:none;stroke:#84D3AC;stroke-width:6;stroke-linecap:round;stroke-linejoin:round;stroke-dasharray:0,9.9049;}
	.st7{fill:none;stroke:#84D3AC;stroke-width:1.4173;stroke-linecap:round;stroke-miterlimit:10;}
	.st8{fill:#84D3AC;}
</style>
<g>
	<g>
		<g>
			<ellipse class="st0" cx="463.5" cy="88.1" rx="46.8" ry="30.3"/>
			<ellipse class="st1" cx="463.5" cy="81.9" rx="51" ry="36.5"/>
			<g>
				<path class="st2" d="M463.7,64.7c-14.3,0-26.4,3.8-34.1,10.6l68.5,0.3C490.3,69,477.8,64.7,463.7,64.7z"/>
				<path class="st1" d="M509.1,86.8c-0.6-3.3-6-11.2-6-11.2l-5.1,0l-69,0.3l-4.7,0c-3,3.9-6.6,11.2-6.6,11.2l3.9,0l84.1-0.3
					L509.1,86.8z"/>
			</g>
			<polyline class="st1" points="412.5,81.9 412.5,346.8 514,346.8 514.6,84.5 			"/>
			<polyline class="st1" points="413.5,346.9 416.8,353.9 507.9,353.9 512.5,346.9 			"/>
			<line class="st2" x1="411.9" y1="246.5" x2="514" y2="246.5"/>
			<line class="st2" x1="411.9" y1="339.5" x2="514" y2="339.5"/>
			<path class="st3" d="M463.5,98.1c7.4,0,13.4-4,17.5-10.7l-35.3-0.2C449.7,93.8,456.2,98.1,463.5,98.1z"/>
		</g>
		<g>
			<defs>
				<rect id="SVGID_1_" x="412.5" y="246.9" width="101" height="93"/>
			</defs>
			<clipPath id="SVGID_2_">
				<use xlink:href="#SVGID_1_"  style="overflow:visible;"/>
			</clipPath>
			<g class="st4">
				<g>
					<g>
						<circle class="st2" cx="433.5" cy="252.1" r="1.2"/>
						<circle class="st2" cx="439.8" cy="252.1" r="1.2"/>
						<circle class="st2" cx="446.1" cy="252.1" r="1.2"/>
						<circle class="st2" cx="452.4" cy="252.1" r="1.2"/>
						<circle class="st2" cx="458.7" cy="252.1" r="1.2"/>
						<circle class="st2" cx="465" cy="252.1" r="1.2"/>
						<circle class="st2" cx="471.3" cy="252.1" r="1.2"/>
						<circle class="st2" cx="477.6" cy="252.1" r="1.2"/>
						<circle class="st2" cx="483.9" cy="252.1" r="1.2"/>
						<circle class="st2" cx="490.2" cy="252.1" r="1.2"/>
					</g>
					<g>
						<circle class="st2" cx="436.8" cy="256.2" r="1.2"/>
						<circle class="st2" cx="443.1" cy="256.2" r="1.2"/>
						<circle class="st2" cx="449.4" cy="256.2" r="1.2"/>
						<circle class="st2" cx="455.7" cy="256.2" r="1.2"/>
						<circle class="st2" cx="462" cy="256.2" r="1.2"/>
						<circle class="st2" cx="468.3" cy="256.2" r="1.2"/>
						<circle class="st2" cx="474.6" cy="256.2" r="1.2"/>
						<circle class="st2" cx="480.9" cy="256.2" r="1.2"/>
						<circle class="st2" cx="487.2" cy="256.2" r="1.2"/>
						<circle class="st2" cx="493.5" cy="256.2" r="1.2"/>
					</g>
					<g>
						<circle class="st2" cx="433.5" cy="260.3" r="1.2"/>
						<circle class="st2" cx="439.8" cy="260.3" r="1.2"/>
						<circle class="st2" cx="446.1" cy="260.3" r="1.2"/>
						<circle class="st2" cx="452.4" cy="260.3" r="1.2"/>
						<circle class="st2" cx="458.7" cy="260.3" r="1.2"/>
						<circle class="st2" cx="465" cy="260.3" r="1.2"/>
						<circle class="st2" cx="471.3" cy="260.3" r="1.2"/>
						<circle class="st2" cx="477.6" cy="260.3" r="1.2"/>
						<circle class="st2" cx="483.9" cy="260.3" r="1.2"/>
						<circle class="st2" cx="490.2" cy="260.3" r="1.2"/>
					</g>
					<g>
						<circle class="st2" cx="436.8" cy="264.5" r="1.2"/>
						<circle class="st2" cx="443.1" cy="264.5" r="1.2"/>
						<circle class="st2" cx="449.4" cy="264.5" r="1.2"/>
						<circle class="st2" cx="455.7" cy="264.5" r="1.2"/>
						<circle class="st2" cx="462" cy="264.5" r="1.2"/>
						<circle class="st2" cx="468.3" cy="264.5" r="1.2"/>
						<circle class="st2" cx="474.6" cy="264.5" r="1.2"/>
						<circle class="st2" cx="480.9" cy="264.5" r="1.2"/>
						<circle class="st2" cx="487.2" cy="264.5" r="1.2"/>
						<circle class="st2" cx="493.5" cy="264.5" r="1.2"/>
					</g>
					<g>
						<circle class="st2" cx="433.5" cy="268.6" r="1.2"/>
						<circle class="st2" cx="439.8" cy="268.6" r="1.2"/>
						<circle class="st2" cx="446.1" cy="268.6" r="1.2"/>
						<circle class="st2" cx="452.4" cy="268.6" r="1.2"/>
						<circle class="st2" cx="458.7" cy="268.6" r="1.2"/>
						<circle class="st2" cx="465" cy="268.6" r="1.2"/>
						<circle class="st2" cx="471.3" cy="268.6" r="1.2"/>
						<circle class="st2" cx="477.6" cy="268.6" r="1.2"/>
						<circle class="st2" cx="483.9" cy="268.6" r="1.2"/>
						<circle class="st2" cx="490.2" cy="268.6" r="1.2"/>
					</g>
					<g>
						<circle class="st2" cx="436.8" cy="272.7" r="1.2"/>
						<circle class="st2" cx="443.1" cy="272.7" r="1.2"/>
						<circle class="st2" cx="449.4" cy="272.7" r="1.2"/>
						<circle class="st2" cx="455.7" cy="272.7" r="1.2"/>
						<circle class="st2" cx="462" cy="272.7" r="1.2"/>
						<circle class="st2" cx="468.3" cy="272.7" r="1.2"/>
						<circle class="st2" cx="474.6" cy="272.7" r="1.2"/>
						<circle class="st2" cx="480.9" cy="272.7" r="1.2"/>
						<circle class="st2" cx="487.2" cy="272.7" r="1.2"/>
						<circle class="st2" cx="493.5" cy="272.7" r="1.2"/>
					</g>
					<g>
						<circle class="st2" cx="433.5" cy="276.8" r="1.2"/>
						<circle class="st2" cx="439.8" cy="276.8" r="1.2"/>
						<circle class="st2" cx="446.1" cy="276.8" r="1.2"/>
						<circle class="st2" cx="452.4" cy="276.8" r="1.2"/>
						<circle class="st2" cx="458.7" cy="276.8" r="1.2"/>
						<circle class="st2" cx="465" cy="276.8" r="1.2"/>
						<circle class="st2" cx="471.3" cy="276.8" r="1.2"/>
						<circle class="st2" cx="477.6" cy="276.8" r="1.2"/>
						<circle class="st2" cx="483.9" cy="276.8" r="1.2"/>
						<circle class="st2" cx="490.2" cy="276.8" r="1.2"/>
					</g>
					<g>
						<circle class="st2" cx="436.8" cy="280.9" r="1.2"/>
						<circle class="st2" cx="443.1" cy="280.9" r="1.2"/>
						<circle class="st2" cx="449.4" cy="280.9" r="1.2"/>
						<circle class="st2" cx="455.7" cy="280.9" r="1.2"/>
						<circle class="st2" cx="462" cy="280.9" r="1.2"/>
						<circle class="st2" cx="468.3" cy="280.9" r="1.2"/>
						<circle class="st2" cx="474.6" cy="280.9" r="1.2"/>
						<circle class="st2" cx="480.9" cy="280.9" r="1.2"/>
						<circle class="st2" cx="487.2" cy="280.9" r="1.2"/>
						<circle class="st2" cx="493.5" cy="280.9" r="1.2"/>
					</g>
					<g>
						<circle class="st2" cx="433.5" cy="285" r="1.2"/>
						<circle class="st2" cx="439.8" cy="285" r="1.2"/>
						<circle class="st2" cx="446.1" cy="285" r="1.2"/>
						<circle class="st2" cx="452.4" cy="285" r="1.2"/>
						<circle class="st2" cx="458.7" cy="285" r="1.2"/>
						<circle class="st2" cx="465" cy="285" r="1.2"/>
						<circle class="st2" cx="471.3" cy="285" r="1.2"/>
						<circle class="st2" cx="477.6" cy="285" r="1.2"/>
						<circle class="st2" cx="483.9" cy="285" r="1.2"/>
						<circle class="st2" cx="490.2" cy="285" r="1.2"/>
					</g>
					<g>
						<circle class="st2" cx="436.8" cy="289.1" r="1.2"/>
						<circle class="st2" cx="443.1" cy="289.1" r="1.2"/>
						<circle class="st2" cx="449.4" cy="289.1" r="1.2"/>
						<circle class="st2" cx="455.7" cy="289.1" r="1.2"/>
						<circle class="st2" cx="462" cy="289.1" r="1.2"/>
						<circle class="st2" cx="468.3" cy="289.1" r="1.2"/>
						<circle class="st2" cx="474.6" cy="289.1" r="1.2"/>
						<circle class="st2" cx="480.9" cy="289.1" r="1.2"/>
						<circle class="st2" cx="487.2" cy="289.1" r="1.2"/>
						<circle class="st2" cx="493.5" cy="289.1" r="1.2"/>
					</g>
					<g>
						<circle class="st2" cx="433.5" cy="293.2" r="1.2"/>
						<circle class="st2" cx="439.8" cy="293.2" r="1.2"/>
						<circle class="st2" cx="446.1" cy="293.2" r="1.2"/>
						<circle class="st2" cx="452.4" cy="293.2" r="1.2"/>
						<circle class="st2" cx="458.7" cy="293.2" r="1.2"/>
						<circle class="st2" cx="465" cy="293.2" r="1.2"/>
						<circle class="st2" cx="471.3" cy="293.2" r="1.2"/>
						<circle class="st2" cx="477.6" cy="293.2" r="1.2"/>
						<circle class="st2" cx="483.9" cy="293.2" r="1.2"/>
						<circle class="st2" cx="490.2" cy="293.2" r="1.2"/>
					</g>
					<g>
						<circle class="st2" cx="436.8" cy="297.3" r="1.2"/>
						<circle class="st2" cx="443.1" cy="297.3" r="1.2"/>
						<circle class="st2" cx="449.4" cy="297.3" r="1.2"/>
						<circle class="st2" cx="455.7" cy="297.3" r="1.2"/>
						<circle class="st2" cx="462" cy="297.3" r="1.2"/>
						<circle class="st2" cx="468.3" cy="297.3" r="1.2"/>
						<circle class="st2" cx="474.6" cy="297.3" r="1.2"/>
						<circle class="st2" cx="480.9" cy="297.3" r="1.2"/>
						<circle class="st2" cx="487.2" cy="297.3" r="1.2"/>
						<circle class="st2" cx="493.5" cy="297.3" r="1.2"/>
					</g>
					<g>
						<circle class="st2" cx="433.5" cy="301.4" r="1.2"/>
						<circle class="st2" cx="439.8" cy="301.4" r="1.2"/>
						<circle class="st2" cx="446.1" cy="301.4" r="1.2"/>
						<circle class="st2" cx="452.4" cy="301.4" r="1.2"/>
						<circle class="st2" cx="458.7" cy="301.4" r="1.2"/>
						<circle class="st2" cx="465" cy="301.4" r="1.2"/>
						<circle class="st2" cx="471.3" cy="301.4" r="1.2"/>
						<circle class="st2" cx="477.6" cy="301.4" r="1.2"/>
						<circle class="st2" cx="483.9" cy="301.4" r="1.2"/>
						<circle class="st2" cx="490.2" cy="301.4" r="1.2"/>
					</g>
					<g>
						<circle class="st2" cx="436.8" cy="305.6" r="1.2"/>
						<circle class="st2" cx="443.1" cy="305.6" r="1.2"/>
						<circle class="st2" cx="449.4" cy="305.6" r="1.2"/>
						<circle class="st2" cx="455.7" cy="305.6" r="1.2"/>
						<circle class="st2" cx="462" cy="305.6" r="1.2"/>
						<circle class="st2" cx="468.3" cy="305.6" r="1.2"/>
						<circle class="st2" cx="474.6" cy="305.6" r="1.2"/>
						<circle class="st2" cx="480.9" cy="305.6" r="1.2"/>
						<circle class="st2" cx="487.2" cy="305.6" r="1.2"/>
						<circle class="st2" cx="493.5" cy="305.6" r="1.2"/>
					</g>
					<g>
						<circle class="st2" cx="433.5" cy="309.7" r="1.2"/>
						<circle class="st2" cx="439.8" cy="309.7" r="1.2"/>
						<circle class="st2" cx="446.1" cy="309.7" r="1.2"/>
						<circle class="st2" cx="452.4" cy="309.7" r="1.2"/>
						<circle class="st2" cx="458.7" cy="309.7" r="1.2"/>
						<circle class="st2" cx="465" cy="309.7" r="1.2"/>
						<circle class="st2" cx="471.3" cy="309.7" r="1.2"/>
						<circle class="st2" cx="477.6" cy="309.7" r="1.2"/>
						<circle class="st2" cx="483.9" cy="309.7" r="1.2"/>
						<circle class="st2" cx="490.2" cy="309.7" r="1.2"/>
					</g>
				</g>
				<g>
					<g>
						<circle class="st2" cx="500.1" cy="252.1" r="1.2"/>
						<circle class="st2" cx="506.4" cy="252.1" r="1.2"/>
						<circle class="st2" cx="512.7" cy="252.1" r="1.2"/>
						<circle class="st2" cx="519" cy="252.1" r="1.2"/>
						<circle class="st2" cx="525.3" cy="252.1" r="1.2"/>
						<circle class="st2" cx="531.6" cy="252.1" r="1.2"/>
						<circle class="st2" cx="537.9" cy="252.1" r="1.2"/>
						<circle class="st2" cx="544.2" cy="252.1" r="1.2"/>
						<circle class="st2" cx="550.5" cy="252.1" r="1.2"/>
						<circle class="st2" cx="556.8" cy="252.1" r="1.2"/>
					</g>
					<g>
						<circle class="st2" cx="503.4" cy="256.2" r="1.2"/>
						<circle class="st2" cx="509.7" cy="256.2" r="1.2"/>
						<circle class="st2" cx="516" cy="256.2" r="1.2"/>
						<circle class="st2" cx="522.3" cy="256.2" r="1.2"/>
						<circle class="st2" cx="528.6" cy="256.2" r="1.2"/>
						<circle class="st2" cx="534.9" cy="256.2" r="1.2"/>
						<circle class="st2" cx="541.2" cy="256.2" r="1.2"/>
						<circle class="st2" cx="547.5" cy="256.2" r="1.2"/>
						<circle class="st2" cx="553.8" cy="256.2" r="1.2"/>
						<circle class="st2" cx="560.1" cy="256.2" r="1.2"/>
					</g>
					<g>
						<circle class="st2" cx="500.1" cy="260.3" r="1.2"/>
						<circle class="st2" cx="506.4" cy="260.3" r="1.2"/>
						<circle class="st2" cx="512.7" cy="260.3" r="1.2"/>
						<circle class="st2" cx="519" cy="260.3" r="1.2"/>
						<circle class="st2" cx="525.3" cy="260.3" r="1.2"/>
						<circle class="st2" cx="531.6" cy="260.3" r="1.2"/>
						<circle class="st2" cx="537.9" cy="260.3" r="1.2"/>
						<circle class="st2" cx="544.2" cy="260.3" r="1.2"/>
						<circle class="st2" cx="550.5" cy="260.3" r="1.2"/>
						<circle class="st2" cx="556.8" cy="260.3" r="1.2"/>
					</g>
					<g>
						<circle class="st2" cx="503.4" cy="264.5" r="1.2"/>
						<circle class="st2" cx="509.7" cy="264.5" r="1.2"/>
						<circle class="st2" cx="516" cy="264.5" r="1.2"/>
						<circle class="st2" cx="522.3" cy="264.5" r="1.2"/>
						<circle class="st2" cx="528.6" cy="264.5" r="1.2"/>
						<circle class="st2" cx="534.9" cy="264.5" r="1.2"/>
						<circle class="st2" cx="541.2" cy="264.5" r="1.2"/>
						<circle class="st2" cx="547.5" cy="264.5" r="1.2"/>
						<circle class="st2" cx="553.8" cy="264.5" r="1.2"/>
						<circle class="st2" cx="560.1" cy="264.5" r="1.2"/>
					</g>
					<g>
						<circle class="st2" cx="500.1" cy="268.6" r="1.2"/>
						<circle class="st2" cx="506.4" cy="268.6" r="1.2"/>
						<circle class="st2" cx="512.7" cy="268.6" r="1.2"/>
						<circle class="st2" cx="519" cy="268.6" r="1.2"/>
						<circle class="st2" cx="525.3" cy="268.6" r="1.2"/>
						<circle class="st2" cx="531.6" cy="268.6" r="1.2"/>
						<circle class="st2" cx="537.9" cy="268.6" r="1.2"/>
						<circle class="st2" cx="544.2" cy="268.6" r="1.2"/>
						<circle class="st2" cx="550.5" cy="268.6" r="1.2"/>
						<circle class="st2" cx="556.8" cy="268.6" r="1.2"/>
					</g>
					<g>
						<circle class="st2" cx="503.4" cy="272.7" r="1.2"/>
						<circle class="st2" cx="509.7" cy="272.7" r="1.2"/>
						<circle class="st2" cx="516" cy="272.7" r="1.2"/>
						<circle class="st2" cx="522.3" cy="272.7" r="1.2"/>
						<circle class="st2" cx="528.6" cy="272.7" r="1.2"/>
						<circle class="st2" cx="534.9" cy="272.7" r="1.2"/>
						<circle class="st2" cx="541.2" cy="272.7" r="1.2"/>
						<circle class="st2" cx="547.5" cy="272.7" r="1.2"/>
						<circle class="st2" cx="553.8" cy="272.7" r="1.2"/>
						<circle class="st2" cx="560.1" cy="272.7" r="1.2"/>
					</g>
					<g>
						<circle class="st2" cx="500.1" cy="276.8" r="1.2"/>
						<circle class="st2" cx="506.4" cy="276.8" r="1.2"/>
						<circle class="st2" cx="512.7" cy="276.8" r="1.2"/>
						<circle class="st2" cx="519" cy="276.8" r="1.2"/>
						<circle class="st2" cx="525.3" cy="276.8" r="1.2"/>
						<circle class="st2" cx="531.6" cy="276.8" r="1.2"/>
						<circle class="st2" cx="537.9" cy="276.8" r="1.2"/>
						<circle class="st2" cx="544.2" cy="276.8" r="1.2"/>
						<circle class="st2" cx="550.5" cy="276.8" r="1.2"/>
						<circle class="st2" cx="556.8" cy="276.8" r="1.2"/>
					</g>
					<g>
						<circle class="st2" cx="503.4" cy="280.9" r="1.2"/>
						<circle class="st2" cx="509.7" cy="280.9" r="1.2"/>
						<circle class="st2" cx="516" cy="280.9" r="1.2"/>
						<circle class="st2" cx="522.3" cy="280.9" r="1.2"/>
						<circle class="st2" cx="528.6" cy="280.9" r="1.2"/>
						<circle class="st2" cx="534.9" cy="280.9" r="1.2"/>
						<circle class="st2" cx="541.2" cy="280.9" r="1.2"/>
						<circle class="st2" cx="547.5" cy="280.9" r="1.2"/>
						<circle class="st2" cx="553.8" cy="280.9" r="1.2"/>
						<circle class="st2" cx="560.1" cy="280.9" r="1.2"/>
					</g>
					<g>
						<circle class="st2" cx="500.1" cy="285" r="1.2"/>
						<circle class="st2" cx="506.4" cy="285" r="1.2"/>
						<circle class="st2" cx="512.7" cy="285" r="1.2"/>
						<circle class="st2" cx="519" cy="285" r="1.2"/>
						<circle class="st2" cx="525.3" cy="285" r="1.2"/>
						<circle class="st2" cx="531.6" cy="285" r="1.2"/>
						<circle class="st2" cx="537.9" cy="285" r="1.2"/>
						<circle class="st2" cx="544.2" cy="285" r="1.2"/>
						<circle class="st2" cx="550.5" cy="285" r="1.2"/>
						<circle class="st2" cx="556.8" cy="285" r="1.2"/>
					</g>
					<g>
						<circle class="st2" cx="503.4" cy="289.1" r="1.2"/>
						<circle class="st2" cx="509.7" cy="289.1" r="1.2"/>
						<circle class="st2" cx="516" cy="289.1" r="1.2"/>
						<circle class="st2" cx="522.3" cy="289.1" r="1.2"/>
						<circle class="st2" cx="528.6" cy="289.1" r="1.2"/>
						<circle class="st2" cx="534.9" cy="289.1" r="1.2"/>
						<circle class="st2" cx="541.2" cy="289.1" r="1.2"/>
						<circle class="st2" cx="547.5" cy="289.1" r="1.2"/>
						<circle class="st2" cx="553.8" cy="289.1" r="1.2"/>
						<circle class="st2" cx="560.1" cy="289.1" r="1.2"/>
					</g>
					<g>
						<circle class="st2" cx="500.1" cy="293.2" r="1.2"/>
						<circle class="st2" cx="506.4" cy="293.2" r="1.2"/>
						<circle class="st2" cx="512.7" cy="293.2" r="1.2"/>
						<circle class="st2" cx="519" cy="293.2" r="1.2"/>
						<circle class="st2" cx="525.3" cy="293.2" r="1.2"/>
						<circle class="st2" cx="531.6" cy="293.2" r="1.2"/>
						<circle class="st2" cx="537.9" cy="293.2" r="1.2"/>
						<circle class="st2" cx="544.2" cy="293.2" r="1.2"/>
						<circle class="st2" cx="550.5" cy="293.2" r="1.2"/>
						<circle class="st2" cx="556.8" cy="293.2" r="1.2"/>
					</g>
					<g>
						<circle class="st2" cx="503.4" cy="297.3" r="1.2"/>
						<circle class="st2" cx="509.7" cy="297.3" r="1.2"/>
						<circle class="st2" cx="516" cy="297.3" r="1.2"/>
						<circle class="st2" cx="522.3" cy="297.3" r="1.2"/>
						<circle class="st2" cx="528.6" cy="297.3" r="1.2"/>
						<circle class="st2" cx="534.9" cy="297.3" r="1.2"/>
						<circle class="st2" cx="541.2" cy="297.3" r="1.2"/>
						<circle class="st2" cx="547.5" cy="297.3" r="1.2"/>
						<circle class="st2" cx="553.8" cy="297.3" r="1.2"/>
						<circle class="st2" cx="560.1" cy="297.3" r="1.2"/>
					</g>
					<g>
						<circle class="st2" cx="500.1" cy="301.4" r="1.2"/>
						<circle class="st2" cx="506.4" cy="301.4" r="1.2"/>
						<circle class="st2" cx="512.7" cy="301.4" r="1.2"/>
						<circle class="st2" cx="519" cy="301.4" r="1.2"/>
						<circle class="st2" cx="525.3" cy="301.4" r="1.2"/>
						<circle class="st2" cx="531.6" cy="301.4" r="1.2"/>
						<circle class="st2" cx="537.9" cy="301.4" r="1.2"/>
						<circle class="st2" cx="544.2" cy="301.4" r="1.2"/>
						<circle class="st2" cx="550.5" cy="301.4" r="1.2"/>
						<circle class="st2" cx="556.8" cy="301.4" r="1.2"/>
					</g>
					<g>
						<circle class="st2" cx="503.4" cy="305.6" r="1.2"/>
						<circle class="st2" cx="509.7" cy="305.6" r="1.2"/>
						<circle class="st2" cx="516" cy="305.6" r="1.2"/>
						<circle class="st2" cx="522.3" cy="305.6" r="1.2"/>
						<circle class="st2" cx="528.6" cy="305.6" r="1.2"/>
						<circle class="st2" cx="534.9" cy="305.6" r="1.2"/>
						<circle class="st2" cx="541.2" cy="305.6" r="1.2"/>
						<circle class="st2" cx="547.5" cy="305.6" r="1.2"/>
						<circle class="st2" cx="553.8" cy="305.6" r="1.2"/>
						<circle class="st2" cx="560.1" cy="305.6" r="1.2"/>
					</g>
					<g>
						<circle class="st2" cx="500.1" cy="309.7" r="1.2"/>
						<circle class="st2" cx="506.4" cy="309.7" r="1.2"/>
						<circle class="st2" cx="512.7" cy="309.7" r="1.2"/>
						<circle class="st2" cx="519" cy="309.7" r="1.2"/>
						<circle class="st2" cx="525.3" cy="309.7" r="1.2"/>
						<circle class="st2" cx="531.6" cy="309.7" r="1.2"/>
						<circle class="st2" cx="537.9" cy="309.7" r="1.2"/>
						<circle class="st2" cx="544.2" cy="309.7" r="1.2"/>
						<circle class="st2" cx="550.5" cy="309.7" r="1.2"/>
						<circle class="st2" cx="556.8" cy="309.7" r="1.2"/>
					</g>
				</g>
				<g>
					<g>
						<circle class="st2" cx="366.9" cy="252.1" r="1.2"/>
						<circle class="st2" cx="373.2" cy="252.1" r="1.2"/>
						<circle class="st2" cx="379.5" cy="252.1" r="1.2"/>
						<circle class="st2" cx="385.8" cy="252.1" r="1.2"/>
						<circle class="st2" cx="392.1" cy="252.1" r="1.2"/>
						<circle class="st2" cx="398.4" cy="252.1" r="1.2"/>
						<circle class="st2" cx="404.7" cy="252.1" r="1.2"/>
						<circle class="st2" cx="411" cy="252.1" r="1.2"/>
						<circle class="st2" cx="417.3" cy="252.1" r="1.2"/>
						<circle class="st2" cx="423.6" cy="252.1" r="1.2"/>
					</g>
					<g>
						<circle class="st2" cx="370.2" cy="256.2" r="1.2"/>
						<circle class="st2" cx="376.5" cy="256.2" r="1.2"/>
						<circle class="st2" cx="382.8" cy="256.2" r="1.2"/>
						<circle class="st2" cx="389.1" cy="256.2" r="1.2"/>
						<circle class="st2" cx="395.4" cy="256.2" r="1.2"/>
						<circle class="st2" cx="401.7" cy="256.2" r="1.2"/>
						<circle class="st2" cx="408" cy="256.2" r="1.2"/>
						<circle class="st2" cx="414.3" cy="256.2" r="1.2"/>
						<circle class="st2" cx="420.6" cy="256.2" r="1.2"/>
						<circle class="st2" cx="426.9" cy="256.2" r="1.2"/>
					</g>
					<g>
						<circle class="st2" cx="366.9" cy="260.3" r="1.2"/>
						<circle class="st2" cx="373.2" cy="260.3" r="1.2"/>
						<circle class="st2" cx="379.5" cy="260.3" r="1.2"/>
						<circle class="st2" cx="385.8" cy="260.3" r="1.2"/>
						<circle class="st2" cx="392.1" cy="260.3" r="1.2"/>
						<circle class="st2" cx="398.4" cy="260.3" r="1.2"/>
						<circle class="st2" cx="404.7" cy="260.3" r="1.2"/>
						<circle class="st2" cx="411" cy="260.3" r="1.2"/>
						<circle class="st2" cx="417.3" cy="260.3" r="1.2"/>
						<circle class="st2" cx="423.6" cy="260.3" r="1.2"/>
					</g>
					<g>
						<circle class="st2" cx="370.2" cy="264.5" r="1.2"/>
						<circle class="st2" cx="376.5" cy="264.5" r="1.2"/>
						<circle class="st2" cx="382.8" cy="264.5" r="1.2"/>
						<circle class="st2" cx="389.1" cy="264.5" r="1.2"/>
						<circle class="st2" cx="395.4" cy="264.5" r="1.2"/>
						<circle class="st2" cx="401.7" cy="264.5" r="1.2"/>
						<circle class="st2" cx="408" cy="264.5" r="1.2"/>
						<circle class="st2" cx="414.3" cy="264.5" r="1.2"/>
						<circle class="st2" cx="420.6" cy="264.5" r="1.2"/>
						<circle class="st2" cx="426.9" cy="264.5" r="1.2"/>
					</g>
					<g>
						<circle class="st2" cx="366.9" cy="268.6" r="1.2"/>
						<circle class="st2" cx="373.2" cy="268.6" r="1.2"/>
						<circle class="st2" cx="379.5" cy="268.6" r="1.2"/>
						<circle class="st2" cx="385.8" cy="268.6" r="1.2"/>
						<circle class="st2" cx="392.1" cy="268.6" r="1.2"/>
						<circle class="st2" cx="398.4" cy="268.6" r="1.2"/>
						<circle class="st2" cx="404.7" cy="268.6" r="1.2"/>
						<circle class="st2" cx="411" cy="268.6" r="1.2"/>
						<circle class="st2" cx="417.3" cy="268.6" r="1.2"/>
						<circle class="st2" cx="423.6" cy="268.6" r="1.2"/>
					</g>
					<g>
						<circle class="st2" cx="370.2" cy="272.7" r="1.2"/>
						<circle class="st2" cx="376.5" cy="272.7" r="1.2"/>
						<circle class="st2" cx="382.8" cy="272.7" r="1.2"/>
						<circle class="st2" cx="389.1" cy="272.7" r="1.2"/>
						<circle class="st2" cx="395.4" cy="272.7" r="1.2"/>
						<circle class="st2" cx="401.7" cy="272.7" r="1.2"/>
						<circle class="st2" cx="408" cy="272.7" r="1.2"/>
						<circle class="st2" cx="414.3" cy="272.7" r="1.2"/>
						<circle class="st2" cx="420.6" cy="272.7" r="1.2"/>
						<circle class="st2" cx="426.9" cy="272.7" r="1.2"/>
					</g>
					<g>
						<circle class="st2" cx="366.9" cy="276.8" r="1.2"/>
						<circle class="st2" cx="373.2" cy="276.8" r="1.2"/>
						<circle class="st2" cx="379.5" cy="276.8" r="1.2"/>
						<circle class="st2" cx="385.8" cy="276.8" r="1.2"/>
						<circle class="st2" cx="392.1" cy="276.8" r="1.2"/>
						<circle class="st2" cx="398.4" cy="276.8" r="1.2"/>
						<circle class="st2" cx="404.7" cy="276.8" r="1.2"/>
						<circle class="st2" cx="411" cy="276.8" r="1.2"/>
						<circle class="st2" cx="417.3" cy="276.8" r="1.2"/>
						<circle class="st2" cx="423.6" cy="276.8" r="1.2"/>
					</g>
					<g>
						<circle class="st2" cx="370.2" cy="280.9" r="1.2"/>
						<circle class="st2" cx="376.5" cy="280.9" r="1.2"/>
						<circle class="st2" cx="382.8" cy="280.9" r="1.2"/>
						<circle class="st2" cx="389.1" cy="280.9" r="1.2"/>
						<circle class="st2" cx="395.4" cy="280.9" r="1.2"/>
						<circle class="st2" cx="401.7" cy="280.9" r="1.2"/>
						<circle class="st2" cx="408" cy="280.9" r="1.2"/>
						<circle class="st2" cx="414.3" cy="280.9" r="1.2"/>
						<circle class="st2" cx="420.6" cy="280.9" r="1.2"/>
						<circle class="st2" cx="426.9" cy="280.9" r="1.2"/>
					</g>
					<g>
						<circle class="st2" cx="366.9" cy="285" r="1.2"/>
						<circle class="st2" cx="373.2" cy="285" r="1.2"/>
						<circle class="st2" cx="379.5" cy="285" r="1.2"/>
						<circle class="st2" cx="385.8" cy="285" r="1.2"/>
						<circle class="st2" cx="392.1" cy="285" r="1.2"/>
						<circle class="st2" cx="398.4" cy="285" r="1.2"/>
						<circle class="st2" cx="404.7" cy="285" r="1.2"/>
						<circle class="st2" cx="411" cy="285" r="1.2"/>
						<circle class="st2" cx="417.3" cy="285" r="1.2"/>
						<circle class="st2" cx="423.6" cy="285" r="1.2"/>
					</g>
					<g>
						<circle class="st2" cx="370.2" cy="289.1" r="1.2"/>
						<circle class="st2" cx="376.5" cy="289.1" r="1.2"/>
						<circle class="st2" cx="382.8" cy="289.1" r="1.2"/>
						<circle class="st2" cx="389.1" cy="289.1" r="1.2"/>
						<circle class="st2" cx="395.4" cy="289.1" r="1.2"/>
						<circle class="st2" cx="401.7" cy="289.1" r="1.2"/>
						<circle class="st2" cx="408" cy="289.1" r="1.2"/>
						<circle class="st2" cx="414.3" cy="289.1" r="1.2"/>
						<circle class="st2" cx="420.6" cy="289.1" r="1.2"/>
						<circle class="st2" cx="426.9" cy="289.1" r="1.2"/>
					</g>
					<g>
						<circle class="st2" cx="366.9" cy="293.2" r="1.2"/>
						<circle class="st2" cx="373.2" cy="293.2" r="1.2"/>
						<circle class="st2" cx="379.5" cy="293.2" r="1.2"/>
						<circle class="st2" cx="385.8" cy="293.2" r="1.2"/>
						<circle class="st2" cx="392.1" cy="293.2" r="1.2"/>
						<circle class="st2" cx="398.4" cy="293.2" r="1.2"/>
						<circle class="st2" cx="404.7" cy="293.2" r="1.2"/>
						<circle class="st2" cx="411" cy="293.2" r="1.2"/>
						<circle class="st2" cx="417.3" cy="293.2" r="1.2"/>
						<circle class="st2" cx="423.6" cy="293.2" r="1.2"/>
					</g>
					<g>
						<circle class="st2" cx="370.2" cy="297.3" r="1.2"/>
						<circle class="st2" cx="376.5" cy="297.3" r="1.2"/>
						<circle class="st2" cx="382.8" cy="297.3" r="1.2"/>
						<circle class="st2" cx="389.1" cy="297.3" r="1.2"/>
						<circle class="st2" cx="395.4" cy="297.3" r="1.2"/>
						<circle class="st2" cx="401.7" cy="297.3" r="1.2"/>
						<circle class="st2" cx="408" cy="297.3" r="1.2"/>
						<circle class="st2" cx="414.3" cy="297.3" r="1.2"/>
						<circle class="st2" cx="420.6" cy="297.3" r="1.2"/>
						<circle class="st2" cx="426.9" cy="297.3" r="1.2"/>
					</g>
					<g>
						<circle class="st2" cx="366.9" cy="301.4" r="1.2"/>
						<circle class="st2" cx="373.2" cy="301.4" r="1.2"/>
						<circle class="st2" cx="379.5" cy="301.4" r="1.2"/>
						<circle class="st2" cx="385.8" cy="301.4" r="1.2"/>
						<circle class="st2" cx="392.1" cy="301.4" r="1.2"/>
						<circle class="st2" cx="398.4" cy="301.4" r="1.2"/>
						<circle class="st2" cx="404.7" cy="301.4" r="1.2"/>
						<circle class="st2" cx="411" cy="301.4" r="1.2"/>
						<circle class="st2" cx="417.3" cy="301.4" r="1.2"/>
						<circle class="st2" cx="423.6" cy="301.4" r="1.2"/>
					</g>
					<g>
						<circle class="st2" cx="370.2" cy="305.6" r="1.2"/>
						<circle class="st2" cx="376.5" cy="305.6" r="1.2"/>
						<circle class="st2" cx="382.8" cy="305.6" r="1.2"/>
						<circle class="st2" cx="389.1" cy="305.6" r="1.2"/>
						<circle class="st2" cx="395.4" cy="305.6" r="1.2"/>
						<circle class="st2" cx="401.7" cy="305.6" r="1.2"/>
						<circle class="st2" cx="408" cy="305.6" r="1.2"/>
						<circle class="st2" cx="414.3" cy="305.6" r="1.2"/>
						<circle class="st2" cx="420.6" cy="305.6" r="1.2"/>
						<circle class="st2" cx="426.9" cy="305.6" r="1.2"/>
					</g>
					<g>
						<circle class="st2" cx="366.9" cy="309.7" r="1.2"/>
						<circle class="st2" cx="373.2" cy="309.7" r="1.2"/>
						<circle class="st2" cx="379.5" cy="309.7" r="1.2"/>
						<circle class="st2" cx="385.8" cy="309.7" r="1.2"/>
						<circle class="st2" cx="392.1" cy="309.7" r="1.2"/>
						<circle class="st2" cx="398.4" cy="309.7" r="1.2"/>
						<circle class="st2" cx="404.7" cy="309.7" r="1.2"/>
						<circle class="st2" cx="411" cy="309.7" r="1.2"/>
						<circle class="st2" cx="417.3" cy="309.7" r="1.2"/>
						<circle class="st2" cx="423.6" cy="309.7" r="1.2"/>
					</g>
				</g>
				<g>
					<g>
						<circle class="st2" cx="436.8" cy="313.2" r="1.2"/>
						<circle class="st2" cx="443.1" cy="313.2" r="1.2"/>
						<circle class="st2" cx="449.4" cy="313.2" r="1.2"/>
						<circle class="st2" cx="455.7" cy="313.2" r="1.2"/>
						<circle class="st2" cx="462" cy="313.2" r="1.2"/>
						<circle class="st2" cx="468.3" cy="313.2" r="1.2"/>
						<circle class="st2" cx="474.6" cy="313.2" r="1.2"/>
						<circle class="st2" cx="480.9" cy="313.2" r="1.2"/>
						<circle class="st2" cx="487.2" cy="313.2" r="1.2"/>
						<circle class="st2" cx="493.5" cy="313.2" r="1.2"/>
					</g>
					<g>
						<circle class="st2" cx="433.5" cy="317.3" r="1.2"/>
						<circle class="st2" cx="439.8" cy="317.3" r="1.2"/>
						<circle class="st2" cx="446.1" cy="317.3" r="1.2"/>
						<circle class="st2" cx="452.4" cy="317.3" r="1.2"/>
						<circle class="st2" cx="458.7" cy="317.3" r="1.2"/>
						<circle class="st2" cx="465" cy="317.3" r="1.2"/>
						<circle class="st2" cx="471.3" cy="317.3" r="1.2"/>
						<circle class="st2" cx="477.6" cy="317.3" r="1.2"/>
						<circle class="st2" cx="483.9" cy="317.3" r="1.2"/>
						<circle class="st2" cx="490.2" cy="317.3" r="1.2"/>
					</g>
					<g>
						<circle class="st2" cx="436.8" cy="321.5" r="1.2"/>
						<circle class="st2" cx="443.1" cy="321.5" r="1.2"/>
						<circle class="st2" cx="449.4" cy="321.5" r="1.2"/>
						<circle class="st2" cx="455.7" cy="321.5" r="1.2"/>
						<circle class="st2" cx="462" cy="321.5" r="1.2"/>
						<circle class="st2" cx="468.3" cy="321.5" r="1.2"/>
						<circle class="st2" cx="474.6" cy="321.5" r="1.2"/>
						<circle class="st2" cx="480.9" cy="321.5" r="1.2"/>
						<circle class="st2" cx="487.2" cy="321.5" r="1.2"/>
						<circle class="st2" cx="493.5" cy="321.5" r="1.2"/>
					</g>
					<g>
						<circle class="st2" cx="433.5" cy="325.6" r="1.2"/>
						<circle class="st2" cx="439.8" cy="325.6" r="1.2"/>
						<circle class="st2" cx="446.1" cy="325.6" r="1.2"/>
						<circle class="st2" cx="452.4" cy="325.6" r="1.2"/>
						<circle class="st2" cx="458.7" cy="325.6" r="1.2"/>
						<circle class="st2" cx="465" cy="325.6" r="1.2"/>
						<circle class="st2" cx="471.3" cy="325.6" r="1.2"/>
						<circle class="st2" cx="477.6" cy="325.6" r="1.2"/>
						<circle class="st2" cx="483.9" cy="325.6" r="1.2"/>
						<circle class="st2" cx="490.2" cy="325.6" r="1.2"/>
					</g>
					<g>
						<circle class="st2" cx="436.8" cy="329.7" r="1.2"/>
						<circle class="st2" cx="443.1" cy="329.7" r="1.2"/>
						<circle class="st2" cx="449.4" cy="329.7" r="1.2"/>
						<circle class="st2" cx="455.7" cy="329.7" r="1.2"/>
						<circle class="st2" cx="462" cy="329.7" r="1.2"/>
						<circle class="st2" cx="468.3" cy="329.7" r="1.2"/>
						<circle class="st2" cx="474.6" cy="329.7" r="1.2"/>
						<circle class="st2" cx="480.9" cy="329.7" r="1.2"/>
						<circle class="st2" cx="487.2" cy="329.7" r="1.2"/>
						<circle class="st2" cx="493.5" cy="329.7" r="1.2"/>
					</g>
					<g>
						<circle class="st2" cx="433.5" cy="333.8" r="1.2"/>
						<circle class="st2" cx="439.8" cy="333.8" r="1.2"/>
						<circle class="st2" cx="446.1" cy="333.8" r="1.2"/>
						<circle class="st2" cx="452.4" cy="333.8" r="1.2"/>
						<circle class="st2" cx="458.7" cy="333.8" r="1.2"/>
						<circle class="st2" cx="465" cy="333.8" r="1.2"/>
						<circle class="st2" cx="471.3" cy="333.8" r="1.2"/>
						<circle class="st2" cx="477.6" cy="333.8" r="1.2"/>
						<circle class="st2" cx="483.9" cy="333.8" r="1.2"/>
						<circle class="st2" cx="490.2" cy="333.8" r="1.2"/>
					</g>
				</g>
				<g>
					<g>
						<circle class="st2" cx="503.4" cy="313.2" r="1.2"/>
						<circle class="st2" cx="509.7" cy="313.2" r="1.2"/>
						<circle class="st2" cx="516" cy="313.2" r="1.2"/>
						<circle class="st2" cx="522.3" cy="313.2" r="1.2"/>
						<circle class="st2" cx="528.6" cy="313.2" r="1.2"/>
						<circle class="st2" cx="534.9" cy="313.2" r="1.2"/>
						<circle class="st2" cx="541.2" cy="313.2" r="1.2"/>
						<circle class="st2" cx="547.5" cy="313.2" r="1.2"/>
						<circle class="st2" cx="553.8" cy="313.2" r="1.2"/>
						<circle class="st2" cx="560.1" cy="313.2" r="1.2"/>
					</g>
					<g>
						<circle class="st2" cx="500.1" cy="317.3" r="1.2"/>
						<circle class="st2" cx="506.4" cy="317.3" r="1.2"/>
						<circle class="st2" cx="512.7" cy="317.3" r="1.2"/>
						<circle class="st2" cx="519" cy="317.3" r="1.2"/>
						<circle class="st2" cx="525.3" cy="317.3" r="1.2"/>
						<circle class="st2" cx="531.6" cy="317.3" r="1.2"/>
						<circle class="st2" cx="537.9" cy="317.3" r="1.2"/>
						<circle class="st2" cx="544.2" cy="317.3" r="1.2"/>
						<circle class="st2" cx="550.5" cy="317.3" r="1.2"/>
						<circle class="st2" cx="556.8" cy="317.3" r="1.2"/>
					</g>
					<g>
						<circle class="st2" cx="503.4" cy="321.5" r="1.2"/>
						<circle class="st2" cx="509.7" cy="321.5" r="1.2"/>
						<circle class="st2" cx="516" cy="321.5" r="1.2"/>
						<circle class="st2" cx="522.3" cy="321.5" r="1.2"/>
						<circle class="st2" cx="528.6" cy="321.5" r="1.2"/>
						<circle class="st2" cx="534.9" cy="321.5" r="1.2"/>
						<circle class="st2" cx="541.2" cy="321.5" r="1.2"/>
						<circle class="st2" cx="547.5" cy="321.5" r="1.2"/>
						<circle class="st2" cx="553.8" cy="321.5" r="1.2"/>
						<circle class="st2" cx="560.1" cy="321.5" r="1.2"/>
					</g>
					<g>
						<circle class="st2" cx="500.1" cy="325.6" r="1.2"/>
						<circle class="st2" cx="506.4" cy="325.6" r="1.2"/>
						<circle class="st2" cx="512.7" cy="325.6" r="1.2"/>
						<circle class="st2" cx="519" cy="325.6" r="1.2"/>
						<circle class="st2" cx="525.3" cy="325.6" r="1.2"/>
						<circle class="st2" cx="531.6" cy="325.6" r="1.2"/>
						<circle class="st2" cx="537.9" cy="325.6" r="1.2"/>
						<circle class="st2" cx="544.2" cy="325.6" r="1.2"/>
						<circle class="st2" cx="550.5" cy="325.6" r="1.2"/>
						<circle class="st2" cx="556.8" cy="325.6" r="1.2"/>
					</g>
					<g>
						<circle class="st2" cx="503.4" cy="329.7" r="1.2"/>
						<circle class="st2" cx="509.7" cy="329.7" r="1.2"/>
						<circle class="st2" cx="516" cy="329.7" r="1.2"/>
						<circle class="st2" cx="522.3" cy="329.7" r="1.2"/>
						<circle class="st2" cx="528.6" cy="329.7" r="1.2"/>
						<circle class="st2" cx="534.9" cy="329.7" r="1.2"/>
						<circle class="st2" cx="541.2" cy="329.7" r="1.2"/>
						<circle class="st2" cx="547.5" cy="329.7" r="1.2"/>
						<circle class="st2" cx="553.8" cy="329.7" r="1.2"/>
						<circle class="st2" cx="560.1" cy="329.7" r="1.2"/>
					</g>
					<g>
						<circle class="st2" cx="500.1" cy="333.8" r="1.2"/>
						<circle class="st2" cx="506.4" cy="333.8" r="1.2"/>
						<circle class="st2" cx="512.7" cy="333.8" r="1.2"/>
						<circle class="st2" cx="519" cy="333.8" r="1.2"/>
						<circle class="st2" cx="525.3" cy="333.8" r="1.2"/>
						<circle class="st2" cx="531.6" cy="333.8" r="1.2"/>
						<circle class="st2" cx="537.9" cy="333.8" r="1.2"/>
						<circle class="st2" cx="544.2" cy="333.8" r="1.2"/>
						<circle class="st2" cx="550.5" cy="333.8" r="1.2"/>
						<circle class="st2" cx="556.8" cy="333.8" r="1.2"/>
					</g>
				</g>
				<g>
					<g>
						<circle class="st2" cx="370.2" cy="313.2" r="1.2"/>
						<circle class="st2" cx="376.5" cy="313.2" r="1.2"/>
						<circle class="st2" cx="382.8" cy="313.2" r="1.2"/>
						<circle class="st2" cx="389.1" cy="313.2" r="1.2"/>
						<circle class="st2" cx="395.4" cy="313.2" r="1.2"/>
						<circle class="st2" cx="401.7" cy="313.2" r="1.2"/>
						<circle class="st2" cx="408" cy="313.2" r="1.2"/>
						<circle class="st2" cx="414.3" cy="313.2" r="1.2"/>
						<circle class="st2" cx="420.6" cy="313.2" r="1.2"/>
						<circle class="st2" cx="426.9" cy="313.2" r="1.2"/>
					</g>
					<g>
						<circle class="st2" cx="366.9" cy="317.3" r="1.2"/>
						<circle class="st2" cx="373.2" cy="317.3" r="1.2"/>
						<circle class="st2" cx="379.5" cy="317.3" r="1.2"/>
						<circle class="st2" cx="385.8" cy="317.3" r="1.2"/>
						<circle class="st2" cx="392.1" cy="317.3" r="1.2"/>
						<circle class="st2" cx="398.4" cy="317.3" r="1.2"/>
						<circle class="st2" cx="404.7" cy="317.3" r="1.2"/>
						<circle class="st2" cx="411" cy="317.3" r="1.2"/>
						<circle class="st2" cx="417.3" cy="317.3" r="1.2"/>
						<circle class="st2" cx="423.6" cy="317.3" r="1.2"/>
					</g>
					<g>
						<circle class="st2" cx="370.2" cy="321.5" r="1.2"/>
						<circle class="st2" cx="376.5" cy="321.5" r="1.2"/>
						<circle class="st2" cx="382.8" cy="321.5" r="1.2"/>
						<circle class="st2" cx="389.1" cy="321.5" r="1.2"/>
						<circle class="st2" cx="395.4" cy="321.5" r="1.2"/>
						<circle class="st2" cx="401.7" cy="321.5" r="1.2"/>
						<circle class="st2" cx="408" cy="321.5" r="1.2"/>
						<circle class="st2" cx="414.3" cy="321.5" r="1.2"/>
						<circle class="st2" cx="420.6" cy="321.5" r="1.2"/>
						<circle class="st2" cx="426.9" cy="321.5" r="1.2"/>
					</g>
					<g>
						<circle class="st2" cx="366.9" cy="325.6" r="1.2"/>
						<circle class="st2" cx="373.2" cy="325.6" r="1.2"/>
						<circle class="st2" cx="379.5" cy="325.6" r="1.2"/>
						<circle class="st2" cx="385.8" cy="325.6" r="1.2"/>
						<circle class="st2" cx="392.1" cy="325.6" r="1.2"/>
						<circle class="st2" cx="398.4" cy="325.6" r="1.2"/>
						<circle class="st2" cx="404.7" cy="325.6" r="1.2"/>
						<circle class="st2" cx="411" cy="325.6" r="1.2"/>
						<circle class="st2" cx="417.3" cy="325.6" r="1.2"/>
						<circle class="st2" cx="423.6" cy="325.6" r="1.2"/>
					</g>
					<g>
						<circle class="st2" cx="370.2" cy="329.7" r="1.2"/>
						<circle class="st2" cx="376.5" cy="329.7" r="1.2"/>
						<circle class="st2" cx="382.8" cy="329.7" r="1.2"/>
						<circle class="st2" cx="389.1" cy="329.7" r="1.2"/>
						<circle class="st2" cx="395.4" cy="329.7" r="1.2"/>
						<circle class="st2" cx="401.7" cy="329.7" r="1.2"/>
						<circle class="st2" cx="408" cy="329.7" r="1.2"/>
						<circle class="st2" cx="414.3" cy="329.7" r="1.2"/>
						<circle class="st2" cx="420.6" cy="329.7" r="1.2"/>
						<circle class="st2" cx="426.9" cy="329.7" r="1.2"/>
					</g>
					<g>
						<circle class="st2" cx="366.9" cy="333.8" r="1.2"/>
						<circle class="st2" cx="373.2" cy="333.8" r="1.2"/>
						<circle class="st2" cx="379.5" cy="333.8" r="1.2"/>
						<circle class="st2" cx="385.8" cy="333.8" r="1.2"/>
						<circle class="st2" cx="392.1" cy="333.8" r="1.2"/>
						<circle class="st2" cx="398.4" cy="333.8" r="1.2"/>
						<circle class="st2" cx="404.7" cy="333.8" r="1.2"/>
						<circle class="st2" cx="411" cy="333.8" r="1.2"/>
						<circle class="st2" cx="417.3" cy="333.8" r="1.2"/>
						<circle class="st2" cx="423.6" cy="333.8" r="1.2"/>
					</g>
				</g>
			</g>
		</g>
	</g>
	<g>
		<g>
			<line class="st5" x1="182.5" y1="223.9" x2="182.5" y2="223.9"/>
			<line class="st6" x1="192.4" y1="223.9" x2="385.5" y2="224.9"/>
			<line class="st5" x1="390.5" y1="224.9" x2="390.5" y2="224.9"/>
		</g>
	</g>
	<line class="st7" x1="47.5" y1="354.9" x2="592.5" y2="354.9"/>
	<g>
		<path class="st8" d="M197.8,194l0.5,0.5l-9.9,9.5l-0.5-0.5c-28.8-27.9-75.8-27.9-104.7,0l-9.8-9.5
			C107.8,160.8,163.6,160.9,197.8,194z"/>
		<path class="st8" d="M183.5,208.8l-10.1,9.7c-20.6-19.9-54-19.9-74.6,0l-10.1-9.7C114.9,183.6,157.4,183.6,183.5,208.8z"/>
		<path class="st8" d="M167.2,224l0.3,0.3l-10.4,10.1l-0.3-0.3c-11.6-11.2-30.4-11.2-41.9,0L104.4,224
			C121.7,207.2,149.9,207.2,167.2,224z"/>
		<path class="st8" d="M151.1,239.6l0.3,0.3l-15.3,14.8l-15.5-15C129.1,231.5,142.7,231.5,151.1,239.6z"/>
	</g>
</g>
</svg>
