<?xml version="1.0" encoding="utf-8"?>
<!-- Generator: Adobe Illustrator 23.0.2, SVG Export Plug-In . SVG Version: 6.00 Build 0)  -->
<svg version="1.1" id="Layer_1" xmlns="http://www.w3.org/2000/svg" xmlns:xlink="http://www.w3.org/1999/xlink" x="0px" y="0px"
	 viewBox="0 0 640 400" style="enable-background:new 0 0 640 400;" xml:space="preserve">
<style type="text/css">
	.st0{fill:none;stroke:#A7A7A7;stroke-width:1.4173;stroke-linecap:round;stroke-miterlimit:10;}
	.st1{fill:#A7A7A7;}
	.st2{fill:none;stroke:#A7A7A7;stroke-width:6;stroke-linecap:round;stroke-linejoin:round;}
	.st3{fill:none;stroke:#A7A7A7;stroke-width:6;stroke-linecap:round;stroke-linejoin:round;stroke-dasharray:0,9.9049;}
	.st4{fill:none;stroke:#A7A7A7;stroke-width:1.2077;stroke-miterlimit:10;}
	.st5{fill:none;stroke:#A7A7A7;stroke-width:2;stroke-miterlimit:10;}
	.st6{fill:none;stroke:#A7A7A7;stroke-width:0.9058;stroke-miterlimit:10;}
	.st7{fill:none;stroke:#A7A7A7;stroke-width:2.0328;stroke-miterlimit:10;}
	.st8{fill:none;stroke:#A7A7A7;stroke-width:1.2149;stroke-miterlimit:10;}
	.st9{clip-path:url(#SVGID_2_);}
	.st10{fill:none;stroke:#A7A7A7;stroke-miterlimit:10;}
</style>
<g>
	<line class="st0" x1="47.5" y1="354.2" x2="592.5" y2="354.2"/>
	<g>
		<g>
			<g>
				<g>
					<g>
						<path class="st1" d="M130.7,272.8H124v-37.9l-28.1,17.5l-3.6-5.7L124,227v-59l36.7,44.2l-29.9,18.6V272.8z M130.7,186.6v36.2
							l19.8-12.3L130.7,186.6z"/>
					</g>
				</g>
				<g>
					<g>
						<path class="st1" d="M123.7,286.1v-58L92,207.9l3.6-5.7l28,17.9l0.5-35.7l6.3,0.7v39.3l30,19.2L123.7,286.1z M130.4,232.4V268
							l19.8-22.9L130.4,232.4z"/>
					</g>
				</g>
			</g>
		</g>
	</g>
	<g>
		<g>
			<line class="st2" x1="180.5" y1="224.2" x2="180.5" y2="224.2"/>
			<line class="st3" x1="190.4" y1="224.3" x2="383.5" y2="225.2"/>
			<line class="st2" x1="388.5" y1="225.2" x2="388.5" y2="225.2"/>
		</g>
	</g>
	<g>
		<ellipse class="st4" cx="461.5" cy="88.5" rx="46.8" ry="30.3"/>
		<ellipse class="st5" cx="461.5" cy="82.3" rx="51" ry="36.5"/>
		<g>
			<path class="st6" d="M461.7,65.1c-14.3,0-26.4,3.8-34.1,10.6L496,76C488.3,69.4,475.8,65.1,461.7,65.1z"/>
			<path class="st7" d="M507.1,87.1c-0.6-3.3-6-11.2-6-11.2l-5.1,0l-69,0.3l-4.7,0c-3,3.9-6.6,11.2-6.6,11.2l3.9,0l84.1-0.3
				L507.1,87.1z"/>
		</g>
		<polyline class="st5" points="410.5,82.3 410.5,347.1 512,347.1 512.6,84.9 		"/>
		<polyline class="st5" points="411.5,347.2 414.8,354.2 505.9,354.2 510.5,347.2 		"/>
		<line class="st8" x1="409.9" y1="246.9" x2="512" y2="246.9"/>
		<line class="st8" x1="409.9" y1="339.9" x2="512" y2="339.9"/>
		<path class="st8" d="M461.5,98.5c7.4,0,13.4-4,17.5-10.7l-35.3-0.2C447.7,94.2,454.2,98.5,461.5,98.5z"/>
	</g>
	<g>
		<defs>
			<rect id="SVGID_1_" x="410.5" y="247.2" width="101" height="93"/>
		</defs>
		<clipPath id="SVGID_2_">
			<use xlink:href="#SVGID_1_"  style="overflow:visible;"/>
		</clipPath>
		<g class="st9">
			<g>
				<g>
					<circle class="st10" cx="431.5" cy="252.5" r="1.2"/>
					<circle class="st10" cx="437.8" cy="252.5" r="1.2"/>
					<circle class="st10" cx="444.1" cy="252.5" r="1.2"/>
					<circle class="st10" cx="450.4" cy="252.5" r="1.2"/>
					<circle class="st10" cx="456.7" cy="252.5" r="1.2"/>
					<circle class="st10" cx="463" cy="252.5" r="1.2"/>
					<circle class="st10" cx="469.3" cy="252.5" r="1.2"/>
					<circle class="st10" cx="475.6" cy="252.5" r="1.2"/>
					<circle class="st10" cx="481.9" cy="252.5" r="1.2"/>
					<circle class="st10" cx="488.2" cy="252.5" r="1.2"/>
				</g>
				<g>
					<circle class="st10" cx="434.8" cy="256.6" r="1.2"/>
					<circle class="st10" cx="441.1" cy="256.6" r="1.2"/>
					<circle class="st10" cx="447.4" cy="256.6" r="1.2"/>
					<circle class="st10" cx="453.7" cy="256.6" r="1.2"/>
					<circle class="st10" cx="460" cy="256.6" r="1.2"/>
					<circle class="st10" cx="466.3" cy="256.6" r="1.2"/>
					<circle class="st10" cx="472.6" cy="256.6" r="1.2"/>
					<circle class="st10" cx="478.9" cy="256.6" r="1.2"/>
					<circle class="st10" cx="485.2" cy="256.6" r="1.2"/>
					<circle class="st10" cx="491.5" cy="256.6" r="1.2"/>
				</g>
				<g>
					<circle class="st10" cx="431.5" cy="260.7" r="1.2"/>
					<circle class="st10" cx="437.8" cy="260.7" r="1.2"/>
					<circle class="st10" cx="444.1" cy="260.7" r="1.2"/>
					<circle class="st10" cx="450.4" cy="260.7" r="1.2"/>
					<circle class="st10" cx="456.7" cy="260.7" r="1.2"/>
					<circle class="st10" cx="463" cy="260.7" r="1.2"/>
					<circle class="st10" cx="469.3" cy="260.7" r="1.2"/>
					<circle class="st10" cx="475.6" cy="260.7" r="1.2"/>
					<circle class="st10" cx="481.9" cy="260.7" r="1.2"/>
					<circle class="st10" cx="488.2" cy="260.7" r="1.2"/>
				</g>
				<g>
					<circle class="st10" cx="434.8" cy="264.8" r="1.2"/>
					<circle class="st10" cx="441.1" cy="264.8" r="1.2"/>
					<circle class="st10" cx="447.4" cy="264.8" r="1.2"/>
					<circle class="st10" cx="453.7" cy="264.8" r="1.2"/>
					<circle class="st10" cx="460" cy="264.8" r="1.2"/>
					<circle class="st10" cx="466.3" cy="264.8" r="1.2"/>
					<circle class="st10" cx="472.6" cy="264.8" r="1.2"/>
					<circle class="st10" cx="478.9" cy="264.8" r="1.2"/>
					<circle class="st10" cx="485.2" cy="264.8" r="1.2"/>
					<circle class="st10" cx="491.5" cy="264.8" r="1.2"/>
				</g>
				<g>
					<circle class="st10" cx="431.5" cy="268.9" r="1.2"/>
					<circle class="st10" cx="437.8" cy="268.9" r="1.2"/>
					<circle class="st10" cx="444.1" cy="268.9" r="1.2"/>
					<circle class="st10" cx="450.4" cy="268.9" r="1.2"/>
					<circle class="st10" cx="456.7" cy="268.9" r="1.2"/>
					<circle class="st10" cx="463" cy="268.9" r="1.2"/>
					<circle class="st10" cx="469.3" cy="268.9" r="1.2"/>
					<circle class="st10" cx="475.6" cy="268.9" r="1.2"/>
					<circle class="st10" cx="481.9" cy="268.9" r="1.2"/>
					<circle class="st10" cx="488.2" cy="268.9" r="1.2"/>
				</g>
				<g>
					<circle class="st10" cx="434.8" cy="273" r="1.2"/>
					<circle class="st10" cx="441.1" cy="273" r="1.2"/>
					<circle class="st10" cx="447.4" cy="273" r="1.2"/>
					<circle class="st10" cx="453.7" cy="273" r="1.2"/>
					<circle class="st10" cx="460" cy="273" r="1.2"/>
					<circle class="st10" cx="466.3" cy="273" r="1.2"/>
					<circle class="st10" cx="472.6" cy="273" r="1.2"/>
					<circle class="st10" cx="478.9" cy="273" r="1.2"/>
					<circle class="st10" cx="485.2" cy="273" r="1.2"/>
					<circle class="st10" cx="491.5" cy="273" r="1.2"/>
				</g>
				<g>
					<circle class="st10" cx="431.5" cy="277.1" r="1.2"/>
					<circle class="st10" cx="437.8" cy="277.1" r="1.2"/>
					<circle class="st10" cx="444.1" cy="277.1" r="1.2"/>
					<circle class="st10" cx="450.4" cy="277.1" r="1.2"/>
					<circle class="st10" cx="456.7" cy="277.1" r="1.2"/>
					<circle class="st10" cx="463" cy="277.1" r="1.2"/>
					<circle class="st10" cx="469.3" cy="277.1" r="1.2"/>
					<circle class="st10" cx="475.6" cy="277.1" r="1.2"/>
					<circle class="st10" cx="481.9" cy="277.1" r="1.2"/>
					<circle class="st10" cx="488.2" cy="277.1" r="1.2"/>
				</g>
				<g>
					<circle class="st10" cx="434.8" cy="281.2" r="1.2"/>
					<circle class="st10" cx="441.1" cy="281.2" r="1.2"/>
					<circle class="st10" cx="447.4" cy="281.2" r="1.2"/>
					<circle class="st10" cx="453.7" cy="281.2" r="1.2"/>
					<circle class="st10" cx="460" cy="281.2" r="1.2"/>
					<circle class="st10" cx="466.3" cy="281.2" r="1.2"/>
					<circle class="st10" cx="472.6" cy="281.2" r="1.2"/>
					<circle class="st10" cx="478.9" cy="281.2" r="1.2"/>
					<circle class="st10" cx="485.2" cy="281.2" r="1.2"/>
					<circle class="st10" cx="491.5" cy="281.2" r="1.2"/>
				</g>
				<g>
					<circle class="st10" cx="431.5" cy="285.4" r="1.2"/>
					<circle class="st10" cx="437.8" cy="285.4" r="1.2"/>
					<circle class="st10" cx="444.1" cy="285.4" r="1.2"/>
					<circle class="st10" cx="450.4" cy="285.4" r="1.2"/>
					<circle class="st10" cx="456.7" cy="285.4" r="1.2"/>
					<circle class="st10" cx="463" cy="285.4" r="1.2"/>
					<circle class="st10" cx="469.3" cy="285.4" r="1.2"/>
					<circle class="st10" cx="475.6" cy="285.4" r="1.2"/>
					<circle class="st10" cx="481.9" cy="285.4" r="1.2"/>
					<circle class="st10" cx="488.2" cy="285.4" r="1.2"/>
				</g>
				<g>
					<circle class="st10" cx="434.8" cy="289.5" r="1.2"/>
					<circle class="st10" cx="441.1" cy="289.5" r="1.2"/>
					<circle class="st10" cx="447.4" cy="289.5" r="1.2"/>
					<circle class="st10" cx="453.7" cy="289.5" r="1.2"/>
					<circle class="st10" cx="460" cy="289.5" r="1.2"/>
					<circle class="st10" cx="466.3" cy="289.5" r="1.2"/>
					<circle class="st10" cx="472.6" cy="289.5" r="1.2"/>
					<circle class="st10" cx="478.9" cy="289.5" r="1.2"/>
					<circle class="st10" cx="485.2" cy="289.5" r="1.2"/>
					<circle class="st10" cx="491.5" cy="289.5" r="1.2"/>
				</g>
				<g>
					<circle class="st10" cx="431.5" cy="293.6" r="1.2"/>
					<circle class="st10" cx="437.8" cy="293.6" r="1.2"/>
					<circle class="st10" cx="444.1" cy="293.6" r="1.2"/>
					<circle class="st10" cx="450.4" cy="293.6" r="1.2"/>
					<circle class="st10" cx="456.7" cy="293.6" r="1.2"/>
					<circle class="st10" cx="463" cy="293.6" r="1.2"/>
					<circle class="st10" cx="469.3" cy="293.6" r="1.2"/>
					<circle class="st10" cx="475.6" cy="293.6" r="1.2"/>
					<circle class="st10" cx="481.9" cy="293.6" r="1.2"/>
					<circle class="st10" cx="488.2" cy="293.6" r="1.2"/>
				</g>
				<g>
					<circle class="st10" cx="434.8" cy="297.7" r="1.2"/>
					<circle class="st10" cx="441.1" cy="297.7" r="1.2"/>
					<circle class="st10" cx="447.4" cy="297.7" r="1.2"/>
					<circle class="st10" cx="453.7" cy="297.7" r="1.2"/>
					<circle class="st10" cx="460" cy="297.7" r="1.2"/>
					<circle class="st10" cx="466.3" cy="297.7" r="1.2"/>
					<circle class="st10" cx="472.6" cy="297.7" r="1.2"/>
					<circle class="st10" cx="478.9" cy="297.7" r="1.2"/>
					<circle class="st10" cx="485.2" cy="297.7" r="1.2"/>
					<circle class="st10" cx="491.5" cy="297.7" r="1.2"/>
				</g>
				<g>
					<circle class="st10" cx="431.5" cy="301.8" r="1.2"/>
					<circle class="st10" cx="437.8" cy="301.8" r="1.2"/>
					<circle class="st10" cx="444.1" cy="301.8" r="1.2"/>
					<circle class="st10" cx="450.4" cy="301.8" r="1.2"/>
					<circle class="st10" cx="456.7" cy="301.8" r="1.2"/>
					<circle class="st10" cx="463" cy="301.8" r="1.2"/>
					<circle class="st10" cx="469.3" cy="301.8" r="1.2"/>
					<circle class="st10" cx="475.6" cy="301.8" r="1.2"/>
					<circle class="st10" cx="481.9" cy="301.8" r="1.2"/>
					<circle class="st10" cx="488.2" cy="301.8" r="1.2"/>
				</g>
				<g>
					<circle class="st10" cx="434.8" cy="305.9" r="1.2"/>
					<circle class="st10" cx="441.1" cy="305.9" r="1.2"/>
					<circle class="st10" cx="447.4" cy="305.9" r="1.2"/>
					<circle class="st10" cx="453.7" cy="305.9" r="1.2"/>
					<circle class="st10" cx="460" cy="305.9" r="1.2"/>
					<circle class="st10" cx="466.3" cy="305.9" r="1.2"/>
					<circle class="st10" cx="472.6" cy="305.9" r="1.2"/>
					<circle class="st10" cx="478.9" cy="305.9" r="1.2"/>
					<circle class="st10" cx="485.2" cy="305.9" r="1.2"/>
					<circle class="st10" cx="491.5" cy="305.9" r="1.2"/>
				</g>
				<g>
					<circle class="st10" cx="431.5" cy="310" r="1.2"/>
					<circle class="st10" cx="437.8" cy="310" r="1.2"/>
					<circle class="st10" cx="444.1" cy="310" r="1.2"/>
					<circle class="st10" cx="450.4" cy="310" r="1.2"/>
					<circle class="st10" cx="456.7" cy="310" r="1.2"/>
					<circle class="st10" cx="463" cy="310" r="1.2"/>
					<circle class="st10" cx="469.3" cy="310" r="1.2"/>
					<circle class="st10" cx="475.6" cy="310" r="1.2"/>
					<circle class="st10" cx="481.9" cy="310" r="1.2"/>
					<circle class="st10" cx="488.2" cy="310" r="1.2"/>
				</g>
			</g>
			<g>
				<g>
					<circle class="st10" cx="498.1" cy="252.5" r="1.2"/>
					<circle class="st10" cx="504.4" cy="252.5" r="1.2"/>
					<circle class="st10" cx="510.7" cy="252.5" r="1.2"/>
					<circle class="st10" cx="517" cy="252.5" r="1.2"/>
					<circle class="st10" cx="523.3" cy="252.5" r="1.2"/>
					<circle class="st10" cx="529.6" cy="252.5" r="1.2"/>
					<circle class="st10" cx="535.9" cy="252.5" r="1.2"/>
					<circle class="st10" cx="542.2" cy="252.5" r="1.2"/>
					<circle class="st10" cx="548.5" cy="252.5" r="1.2"/>
					<circle class="st10" cx="554.8" cy="252.5" r="1.2"/>
				</g>
				<g>
					<circle class="st10" cx="501.4" cy="256.6" r="1.2"/>
					<circle class="st10" cx="507.7" cy="256.6" r="1.2"/>
					<circle class="st10" cx="514" cy="256.6" r="1.2"/>
					<circle class="st10" cx="520.3" cy="256.6" r="1.2"/>
					<circle class="st10" cx="526.6" cy="256.6" r="1.2"/>
					<circle class="st10" cx="532.9" cy="256.6" r="1.2"/>
					<circle class="st10" cx="539.2" cy="256.6" r="1.2"/>
					<circle class="st10" cx="545.5" cy="256.6" r="1.2"/>
					<circle class="st10" cx="551.8" cy="256.6" r="1.2"/>
					<circle class="st10" cx="558.1" cy="256.6" r="1.2"/>
				</g>
				<g>
					<circle class="st10" cx="498.1" cy="260.7" r="1.2"/>
					<circle class="st10" cx="504.4" cy="260.7" r="1.2"/>
					<circle class="st10" cx="510.7" cy="260.7" r="1.2"/>
					<circle class="st10" cx="517" cy="260.7" r="1.2"/>
					<circle class="st10" cx="523.3" cy="260.7" r="1.2"/>
					<circle class="st10" cx="529.6" cy="260.7" r="1.2"/>
					<circle class="st10" cx="535.9" cy="260.7" r="1.2"/>
					<circle class="st10" cx="542.2" cy="260.7" r="1.2"/>
					<circle class="st10" cx="548.5" cy="260.7" r="1.2"/>
					<circle class="st10" cx="554.8" cy="260.7" r="1.2"/>
				</g>
				<g>
					<circle class="st10" cx="501.4" cy="264.8" r="1.2"/>
					<circle class="st10" cx="507.7" cy="264.8" r="1.2"/>
					<circle class="st10" cx="514" cy="264.8" r="1.2"/>
					<circle class="st10" cx="520.3" cy="264.8" r="1.2"/>
					<circle class="st10" cx="526.6" cy="264.8" r="1.2"/>
					<circle class="st10" cx="532.9" cy="264.8" r="1.2"/>
					<circle class="st10" cx="539.2" cy="264.8" r="1.2"/>
					<circle class="st10" cx="545.5" cy="264.8" r="1.2"/>
					<circle class="st10" cx="551.8" cy="264.8" r="1.2"/>
					<circle class="st10" cx="558.1" cy="264.8" r="1.2"/>
				</g>
				<g>
					<circle class="st10" cx="498.1" cy="268.9" r="1.2"/>
					<circle class="st10" cx="504.4" cy="268.9" r="1.2"/>
					<circle class="st10" cx="510.7" cy="268.9" r="1.2"/>
					<circle class="st10" cx="517" cy="268.9" r="1.2"/>
					<circle class="st10" cx="523.3" cy="268.9" r="1.2"/>
					<circle class="st10" cx="529.6" cy="268.9" r="1.2"/>
					<circle class="st10" cx="535.9" cy="268.9" r="1.2"/>
					<circle class="st10" cx="542.2" cy="268.9" r="1.2"/>
					<circle class="st10" cx="548.5" cy="268.9" r="1.2"/>
					<circle class="st10" cx="554.8" cy="268.9" r="1.2"/>
				</g>
				<g>
					<circle class="st10" cx="501.4" cy="273" r="1.2"/>
					<circle class="st10" cx="507.7" cy="273" r="1.2"/>
					<circle class="st10" cx="514" cy="273" r="1.2"/>
					<circle class="st10" cx="520.3" cy="273" r="1.2"/>
					<circle class="st10" cx="526.6" cy="273" r="1.2"/>
					<circle class="st10" cx="532.9" cy="273" r="1.2"/>
					<circle class="st10" cx="539.2" cy="273" r="1.2"/>
					<circle class="st10" cx="545.5" cy="273" r="1.2"/>
					<circle class="st10" cx="551.8" cy="273" r="1.2"/>
					<circle class="st10" cx="558.1" cy="273" r="1.2"/>
				</g>
				<g>
					<circle class="st10" cx="498.1" cy="277.1" r="1.2"/>
					<circle class="st10" cx="504.4" cy="277.1" r="1.2"/>
					<circle class="st10" cx="510.7" cy="277.1" r="1.2"/>
					<circle class="st10" cx="517" cy="277.1" r="1.2"/>
					<circle class="st10" cx="523.3" cy="277.1" r="1.2"/>
					<circle class="st10" cx="529.6" cy="277.1" r="1.2"/>
					<circle class="st10" cx="535.9" cy="277.1" r="1.2"/>
					<circle class="st10" cx="542.2" cy="277.1" r="1.2"/>
					<circle class="st10" cx="548.5" cy="277.1" r="1.2"/>
					<circle class="st10" cx="554.8" cy="277.1" r="1.2"/>
				</g>
				<g>
					<circle class="st10" cx="501.4" cy="281.2" r="1.2"/>
					<circle class="st10" cx="507.7" cy="281.2" r="1.2"/>
					<circle class="st10" cx="514" cy="281.2" r="1.2"/>
					<circle class="st10" cx="520.3" cy="281.2" r="1.2"/>
					<circle class="st10" cx="526.6" cy="281.2" r="1.2"/>
					<circle class="st10" cx="532.9" cy="281.2" r="1.2"/>
					<circle class="st10" cx="539.2" cy="281.2" r="1.2"/>
					<circle class="st10" cx="545.5" cy="281.2" r="1.2"/>
					<circle class="st10" cx="551.8" cy="281.2" r="1.2"/>
					<circle class="st10" cx="558.1" cy="281.2" r="1.2"/>
				</g>
				<g>
					<circle class="st10" cx="498.1" cy="285.4" r="1.2"/>
					<circle class="st10" cx="504.4" cy="285.4" r="1.2"/>
					<circle class="st10" cx="510.7" cy="285.4" r="1.2"/>
					<circle class="st10" cx="517" cy="285.4" r="1.2"/>
					<circle class="st10" cx="523.3" cy="285.4" r="1.2"/>
					<circle class="st10" cx="529.6" cy="285.4" r="1.2"/>
					<circle class="st10" cx="535.9" cy="285.4" r="1.2"/>
					<circle class="st10" cx="542.2" cy="285.4" r="1.2"/>
					<circle class="st10" cx="548.5" cy="285.4" r="1.2"/>
					<circle class="st10" cx="554.8" cy="285.4" r="1.2"/>
				</g>
				<g>
					<circle class="st10" cx="501.4" cy="289.5" r="1.2"/>
					<circle class="st10" cx="507.7" cy="289.5" r="1.2"/>
					<circle class="st10" cx="514" cy="289.5" r="1.2"/>
					<circle class="st10" cx="520.3" cy="289.5" r="1.2"/>
					<circle class="st10" cx="526.6" cy="289.5" r="1.2"/>
					<circle class="st10" cx="532.9" cy="289.5" r="1.2"/>
					<circle class="st10" cx="539.2" cy="289.5" r="1.2"/>
					<circle class="st10" cx="545.5" cy="289.5" r="1.2"/>
					<circle class="st10" cx="551.8" cy="289.5" r="1.2"/>
					<circle class="st10" cx="558.1" cy="289.5" r="1.2"/>
				</g>
				<g>
					<circle class="st10" cx="498.1" cy="293.6" r="1.2"/>
					<circle class="st10" cx="504.4" cy="293.6" r="1.2"/>
					<circle class="st10" cx="510.7" cy="293.6" r="1.2"/>
					<circle class="st10" cx="517" cy="293.6" r="1.2"/>
					<circle class="st10" cx="523.3" cy="293.6" r="1.2"/>
					<circle class="st10" cx="529.6" cy="293.6" r="1.2"/>
					<circle class="st10" cx="535.9" cy="293.6" r="1.2"/>
					<circle class="st10" cx="542.2" cy="293.6" r="1.2"/>
					<circle class="st10" cx="548.5" cy="293.6" r="1.2"/>
					<circle class="st10" cx="554.8" cy="293.6" r="1.2"/>
				</g>
				<g>
					<circle class="st10" cx="501.4" cy="297.7" r="1.2"/>
					<circle class="st10" cx="507.7" cy="297.7" r="1.2"/>
					<circle class="st10" cx="514" cy="297.7" r="1.2"/>
					<circle class="st10" cx="520.3" cy="297.7" r="1.2"/>
					<circle class="st10" cx="526.6" cy="297.7" r="1.2"/>
					<circle class="st10" cx="532.9" cy="297.7" r="1.2"/>
					<circle class="st10" cx="539.2" cy="297.7" r="1.2"/>
					<circle class="st10" cx="545.5" cy="297.7" r="1.2"/>
					<circle class="st10" cx="551.8" cy="297.7" r="1.2"/>
					<circle class="st10" cx="558.1" cy="297.7" r="1.2"/>
				</g>
				<g>
					<circle class="st10" cx="498.1" cy="301.8" r="1.2"/>
					<circle class="st10" cx="504.4" cy="301.8" r="1.2"/>
					<circle class="st10" cx="510.7" cy="301.8" r="1.2"/>
					<circle class="st10" cx="517" cy="301.8" r="1.2"/>
					<circle class="st10" cx="523.3" cy="301.8" r="1.2"/>
					<circle class="st10" cx="529.6" cy="301.8" r="1.2"/>
					<circle class="st10" cx="535.9" cy="301.8" r="1.2"/>
					<circle class="st10" cx="542.2" cy="301.8" r="1.2"/>
					<circle class="st10" cx="548.5" cy="301.8" r="1.2"/>
					<circle class="st10" cx="554.8" cy="301.8" r="1.2"/>
				</g>
				<g>
					<circle class="st10" cx="501.4" cy="305.9" r="1.2"/>
					<circle class="st10" cx="507.7" cy="305.9" r="1.2"/>
					<circle class="st10" cx="514" cy="305.9" r="1.2"/>
					<circle class="st10" cx="520.3" cy="305.9" r="1.2"/>
					<circle class="st10" cx="526.6" cy="305.9" r="1.2"/>
					<circle class="st10" cx="532.9" cy="305.9" r="1.2"/>
					<circle class="st10" cx="539.2" cy="305.9" r="1.2"/>
					<circle class="st10" cx="545.5" cy="305.9" r="1.2"/>
					<circle class="st10" cx="551.8" cy="305.9" r="1.2"/>
					<circle class="st10" cx="558.1" cy="305.9" r="1.2"/>
				</g>
				<g>
					<circle class="st10" cx="498.1" cy="310" r="1.2"/>
					<circle class="st10" cx="504.4" cy="310" r="1.2"/>
					<circle class="st10" cx="510.7" cy="310" r="1.2"/>
					<circle class="st10" cx="517" cy="310" r="1.2"/>
					<circle class="st10" cx="523.3" cy="310" r="1.2"/>
					<circle class="st10" cx="529.6" cy="310" r="1.2"/>
					<circle class="st10" cx="535.9" cy="310" r="1.2"/>
					<circle class="st10" cx="542.2" cy="310" r="1.2"/>
					<circle class="st10" cx="548.5" cy="310" r="1.2"/>
					<circle class="st10" cx="554.8" cy="310" r="1.2"/>
				</g>
			</g>
			<g>
				<g>
					<circle class="st10" cx="364.9" cy="252.5" r="1.2"/>
					<circle class="st10" cx="371.2" cy="252.5" r="1.2"/>
					<circle class="st10" cx="377.5" cy="252.5" r="1.2"/>
					<circle class="st10" cx="383.8" cy="252.5" r="1.2"/>
					<circle class="st10" cx="390.1" cy="252.5" r="1.2"/>
					<circle class="st10" cx="396.4" cy="252.5" r="1.2"/>
					<circle class="st10" cx="402.7" cy="252.5" r="1.2"/>
					<circle class="st10" cx="409" cy="252.5" r="1.2"/>
					<circle class="st10" cx="415.3" cy="252.5" r="1.2"/>
					<circle class="st10" cx="421.6" cy="252.5" r="1.2"/>
				</g>
				<g>
					<circle class="st10" cx="368.2" cy="256.6" r="1.2"/>
					<circle class="st10" cx="374.5" cy="256.6" r="1.2"/>
					<circle class="st10" cx="380.8" cy="256.6" r="1.2"/>
					<circle class="st10" cx="387.1" cy="256.6" r="1.2"/>
					<circle class="st10" cx="393.4" cy="256.6" r="1.2"/>
					<circle class="st10" cx="399.7" cy="256.6" r="1.2"/>
					<circle class="st10" cx="406" cy="256.6" r="1.2"/>
					<circle class="st10" cx="412.3" cy="256.6" r="1.2"/>
					<circle class="st10" cx="418.6" cy="256.6" r="1.2"/>
					<circle class="st10" cx="424.9" cy="256.6" r="1.2"/>
				</g>
				<g>
					<circle class="st10" cx="364.9" cy="260.7" r="1.2"/>
					<circle class="st10" cx="371.2" cy="260.7" r="1.2"/>
					<circle class="st10" cx="377.5" cy="260.7" r="1.2"/>
					<circle class="st10" cx="383.8" cy="260.7" r="1.2"/>
					<circle class="st10" cx="390.1" cy="260.7" r="1.2"/>
					<circle class="st10" cx="396.4" cy="260.7" r="1.2"/>
					<circle class="st10" cx="402.7" cy="260.7" r="1.2"/>
					<circle class="st10" cx="409" cy="260.7" r="1.2"/>
					<circle class="st10" cx="415.3" cy="260.7" r="1.2"/>
					<circle class="st10" cx="421.6" cy="260.7" r="1.2"/>
				</g>
				<g>
					<circle class="st10" cx="368.2" cy="264.8" r="1.2"/>
					<circle class="st10" cx="374.5" cy="264.8" r="1.2"/>
					<circle class="st10" cx="380.8" cy="264.8" r="1.2"/>
					<circle class="st10" cx="387.1" cy="264.8" r="1.2"/>
					<circle class="st10" cx="393.4" cy="264.8" r="1.2"/>
					<circle class="st10" cx="399.7" cy="264.8" r="1.2"/>
					<circle class="st10" cx="406" cy="264.8" r="1.2"/>
					<circle class="st10" cx="412.3" cy="264.8" r="1.2"/>
					<circle class="st10" cx="418.6" cy="264.8" r="1.2"/>
					<circle class="st10" cx="424.9" cy="264.8" r="1.2"/>
				</g>
				<g>
					<circle class="st10" cx="364.9" cy="268.9" r="1.2"/>
					<circle class="st10" cx="371.2" cy="268.9" r="1.2"/>
					<circle class="st10" cx="377.5" cy="268.9" r="1.2"/>
					<circle class="st10" cx="383.8" cy="268.9" r="1.2"/>
					<circle class="st10" cx="390.1" cy="268.9" r="1.2"/>
					<circle class="st10" cx="396.4" cy="268.9" r="1.2"/>
					<circle class="st10" cx="402.7" cy="268.9" r="1.2"/>
					<circle class="st10" cx="409" cy="268.9" r="1.2"/>
					<circle class="st10" cx="415.3" cy="268.9" r="1.2"/>
					<circle class="st10" cx="421.6" cy="268.9" r="1.2"/>
				</g>
				<g>
					<circle class="st10" cx="368.2" cy="273" r="1.2"/>
					<circle class="st10" cx="374.5" cy="273" r="1.2"/>
					<circle class="st10" cx="380.8" cy="273" r="1.2"/>
					<circle class="st10" cx="387.1" cy="273" r="1.2"/>
					<circle class="st10" cx="393.4" cy="273" r="1.2"/>
					<circle class="st10" cx="399.7" cy="273" r="1.2"/>
					<circle class="st10" cx="406" cy="273" r="1.2"/>
					<circle class="st10" cx="412.3" cy="273" r="1.2"/>
					<circle class="st10" cx="418.6" cy="273" r="1.2"/>
					<circle class="st10" cx="424.9" cy="273" r="1.2"/>
				</g>
				<g>
					<circle class="st10" cx="364.9" cy="277.1" r="1.2"/>
					<circle class="st10" cx="371.2" cy="277.1" r="1.2"/>
					<circle class="st10" cx="377.5" cy="277.1" r="1.2"/>
					<circle class="st10" cx="383.8" cy="277.1" r="1.2"/>
					<circle class="st10" cx="390.1" cy="277.1" r="1.2"/>
					<circle class="st10" cx="396.4" cy="277.1" r="1.2"/>
					<circle class="st10" cx="402.7" cy="277.1" r="1.2"/>
					<circle class="st10" cx="409" cy="277.1" r="1.2"/>
					<circle class="st10" cx="415.3" cy="277.1" r="1.2"/>
					<circle class="st10" cx="421.6" cy="277.1" r="1.2"/>
				</g>
				<g>
					<circle class="st10" cx="368.2" cy="281.2" r="1.2"/>
					<circle class="st10" cx="374.5" cy="281.2" r="1.2"/>
					<circle class="st10" cx="380.8" cy="281.2" r="1.2"/>
					<circle class="st10" cx="387.1" cy="281.2" r="1.2"/>
					<circle class="st10" cx="393.4" cy="281.2" r="1.2"/>
					<circle class="st10" cx="399.7" cy="281.2" r="1.2"/>
					<circle class="st10" cx="406" cy="281.2" r="1.2"/>
					<circle class="st10" cx="412.3" cy="281.2" r="1.2"/>
					<circle class="st10" cx="418.6" cy="281.2" r="1.2"/>
					<circle class="st10" cx="424.9" cy="281.2" r="1.2"/>
				</g>
				<g>
					<circle class="st10" cx="364.9" cy="285.4" r="1.2"/>
					<circle class="st10" cx="371.2" cy="285.4" r="1.2"/>
					<circle class="st10" cx="377.5" cy="285.4" r="1.2"/>
					<circle class="st10" cx="383.8" cy="285.4" r="1.2"/>
					<circle class="st10" cx="390.1" cy="285.4" r="1.2"/>
					<circle class="st10" cx="396.4" cy="285.4" r="1.2"/>
					<circle class="st10" cx="402.7" cy="285.4" r="1.2"/>
					<circle class="st10" cx="409" cy="285.4" r="1.2"/>
					<circle class="st10" cx="415.3" cy="285.4" r="1.2"/>
					<circle class="st10" cx="421.6" cy="285.4" r="1.2"/>
				</g>
				<g>
					<circle class="st10" cx="368.2" cy="289.5" r="1.2"/>
					<circle class="st10" cx="374.5" cy="289.5" r="1.2"/>
					<circle class="st10" cx="380.8" cy="289.5" r="1.2"/>
					<circle class="st10" cx="387.1" cy="289.5" r="1.2"/>
					<circle class="st10" cx="393.4" cy="289.5" r="1.2"/>
					<circle class="st10" cx="399.7" cy="289.5" r="1.2"/>
					<circle class="st10" cx="406" cy="289.5" r="1.2"/>
					<circle class="st10" cx="412.3" cy="289.5" r="1.2"/>
					<circle class="st10" cx="418.6" cy="289.5" r="1.2"/>
					<circle class="st10" cx="424.9" cy="289.5" r="1.2"/>
				</g>
				<g>
					<circle class="st10" cx="364.9" cy="293.6" r="1.2"/>
					<circle class="st10" cx="371.2" cy="293.6" r="1.2"/>
					<circle class="st10" cx="377.5" cy="293.6" r="1.2"/>
					<circle class="st10" cx="383.8" cy="293.6" r="1.2"/>
					<circle class="st10" cx="390.1" cy="293.6" r="1.2"/>
					<circle class="st10" cx="396.4" cy="293.6" r="1.2"/>
					<circle class="st10" cx="402.7" cy="293.6" r="1.2"/>
					<circle class="st10" cx="409" cy="293.6" r="1.2"/>
					<circle class="st10" cx="415.3" cy="293.6" r="1.2"/>
					<circle class="st10" cx="421.6" cy="293.6" r="1.2"/>
				</g>
				<g>
					<circle class="st10" cx="368.2" cy="297.7" r="1.2"/>
					<circle class="st10" cx="374.5" cy="297.7" r="1.2"/>
					<circle class="st10" cx="380.8" cy="297.7" r="1.2"/>
					<circle class="st10" cx="387.1" cy="297.7" r="1.2"/>
					<circle class="st10" cx="393.4" cy="297.7" r="1.2"/>
					<circle class="st10" cx="399.7" cy="297.7" r="1.2"/>
					<circle class="st10" cx="406" cy="297.7" r="1.2"/>
					<circle class="st10" cx="412.3" cy="297.7" r="1.2"/>
					<circle class="st10" cx="418.6" cy="297.7" r="1.2"/>
					<circle class="st10" cx="424.9" cy="297.7" r="1.2"/>
				</g>
				<g>
					<circle class="st10" cx="364.9" cy="301.8" r="1.2"/>
					<circle class="st10" cx="371.2" cy="301.8" r="1.2"/>
					<circle class="st10" cx="377.5" cy="301.8" r="1.2"/>
					<circle class="st10" cx="383.8" cy="301.8" r="1.2"/>
					<circle class="st10" cx="390.1" cy="301.8" r="1.2"/>
					<circle class="st10" cx="396.4" cy="301.8" r="1.2"/>
					<circle class="st10" cx="402.7" cy="301.8" r="1.2"/>
					<circle class="st10" cx="409" cy="301.8" r="1.2"/>
					<circle class="st10" cx="415.3" cy="301.8" r="1.2"/>
					<circle class="st10" cx="421.6" cy="301.8" r="1.2"/>
				</g>
				<g>
					<circle class="st10" cx="368.2" cy="305.9" r="1.2"/>
					<circle class="st10" cx="374.5" cy="305.9" r="1.2"/>
					<circle class="st10" cx="380.8" cy="305.9" r="1.2"/>
					<circle class="st10" cx="387.1" cy="305.9" r="1.2"/>
					<circle class="st10" cx="393.4" cy="305.9" r="1.2"/>
					<circle class="st10" cx="399.7" cy="305.9" r="1.2"/>
					<circle class="st10" cx="406" cy="305.9" r="1.2"/>
					<circle class="st10" cx="412.3" cy="305.9" r="1.2"/>
					<circle class="st10" cx="418.6" cy="305.9" r="1.2"/>
					<circle class="st10" cx="424.9" cy="305.9" r="1.2"/>
				</g>
				<g>
					<circle class="st10" cx="364.9" cy="310" r="1.2"/>
					<circle class="st10" cx="371.2" cy="310" r="1.2"/>
					<circle class="st10" cx="377.5" cy="310" r="1.2"/>
					<circle class="st10" cx="383.8" cy="310" r="1.2"/>
					<circle class="st10" cx="390.1" cy="310" r="1.2"/>
					<circle class="st10" cx="396.4" cy="310" r="1.2"/>
					<circle class="st10" cx="402.7" cy="310" r="1.2"/>
					<circle class="st10" cx="409" cy="310" r="1.2"/>
					<circle class="st10" cx="415.3" cy="310" r="1.2"/>
					<circle class="st10" cx="421.6" cy="310" r="1.2"/>
				</g>
			</g>
			<g>
				<g>
					<circle class="st10" cx="434.8" cy="313.6" r="1.2"/>
					<circle class="st10" cx="441.1" cy="313.6" r="1.2"/>
					<circle class="st10" cx="447.4" cy="313.6" r="1.2"/>
					<circle class="st10" cx="453.7" cy="313.6" r="1.2"/>
					<circle class="st10" cx="460" cy="313.6" r="1.2"/>
					<circle class="st10" cx="466.3" cy="313.6" r="1.2"/>
					<circle class="st10" cx="472.6" cy="313.6" r="1.2"/>
					<circle class="st10" cx="478.9" cy="313.6" r="1.2"/>
					<circle class="st10" cx="485.2" cy="313.6" r="1.2"/>
					<circle class="st10" cx="491.5" cy="313.6" r="1.2"/>
				</g>
				<g>
					<circle class="st10" cx="431.5" cy="317.7" r="1.2"/>
					<circle class="st10" cx="437.8" cy="317.7" r="1.2"/>
					<circle class="st10" cx="444.1" cy="317.7" r="1.2"/>
					<circle class="st10" cx="450.4" cy="317.7" r="1.2"/>
					<circle class="st10" cx="456.7" cy="317.7" r="1.2"/>
					<circle class="st10" cx="463" cy="317.7" r="1.2"/>
					<circle class="st10" cx="469.3" cy="317.7" r="1.2"/>
					<circle class="st10" cx="475.6" cy="317.7" r="1.2"/>
					<circle class="st10" cx="481.9" cy="317.7" r="1.2"/>
					<circle class="st10" cx="488.2" cy="317.7" r="1.2"/>
				</g>
				<g>
					<circle class="st10" cx="434.8" cy="321.8" r="1.2"/>
					<circle class="st10" cx="441.1" cy="321.8" r="1.2"/>
					<circle class="st10" cx="447.4" cy="321.8" r="1.2"/>
					<circle class="st10" cx="453.7" cy="321.8" r="1.2"/>
					<circle class="st10" cx="460" cy="321.8" r="1.2"/>
					<circle class="st10" cx="466.3" cy="321.8" r="1.2"/>
					<circle class="st10" cx="472.6" cy="321.8" r="1.2"/>
					<circle class="st10" cx="478.9" cy="321.8" r="1.2"/>
					<circle class="st10" cx="485.2" cy="321.8" r="1.2"/>
					<circle class="st10" cx="491.5" cy="321.8" r="1.2"/>
				</g>
				<g>
					<circle class="st10" cx="431.5" cy="325.9" r="1.2"/>
					<circle class="st10" cx="437.8" cy="325.9" r="1.2"/>
					<circle class="st10" cx="444.1" cy="325.9" r="1.2"/>
					<circle class="st10" cx="450.4" cy="325.9" r="1.2"/>
					<circle class="st10" cx="456.7" cy="325.9" r="1.2"/>
					<circle class="st10" cx="463" cy="325.9" r="1.2"/>
					<circle class="st10" cx="469.3" cy="325.9" r="1.2"/>
					<circle class="st10" cx="475.6" cy="325.9" r="1.2"/>
					<circle class="st10" cx="481.9" cy="325.9" r="1.2"/>
					<circle class="st10" cx="488.2" cy="325.9" r="1.2"/>
				</g>
				<g>
					<circle class="st10" cx="434.8" cy="330" r="1.2"/>
					<circle class="st10" cx="441.1" cy="330" r="1.2"/>
					<circle class="st10" cx="447.4" cy="330" r="1.2"/>
					<circle class="st10" cx="453.7" cy="330" r="1.2"/>
					<circle class="st10" cx="460" cy="330" r="1.2"/>
					<circle class="st10" cx="466.3" cy="330" r="1.2"/>
					<circle class="st10" cx="472.6" cy="330" r="1.2"/>
					<circle class="st10" cx="478.9" cy="330" r="1.2"/>
					<circle class="st10" cx="485.2" cy="330" r="1.2"/>
					<circle class="st10" cx="491.5" cy="330" r="1.2"/>
				</g>
				<g>
					<circle class="st10" cx="431.5" cy="334.1" r="1.2"/>
					<circle class="st10" cx="437.8" cy="334.1" r="1.2"/>
					<circle class="st10" cx="444.1" cy="334.1" r="1.2"/>
					<circle class="st10" cx="450.4" cy="334.1" r="1.2"/>
					<circle class="st10" cx="456.7" cy="334.1" r="1.2"/>
					<circle class="st10" cx="463" cy="334.1" r="1.2"/>
					<circle class="st10" cx="469.3" cy="334.1" r="1.2"/>
					<circle class="st10" cx="475.6" cy="334.1" r="1.2"/>
					<circle class="st10" cx="481.9" cy="334.1" r="1.2"/>
					<circle class="st10" cx="488.2" cy="334.1" r="1.2"/>
				</g>
			</g>
			<g>
				<g>
					<circle class="st10" cx="501.4" cy="313.6" r="1.2"/>
					<circle class="st10" cx="507.7" cy="313.6" r="1.2"/>
					<circle class="st10" cx="514" cy="313.6" r="1.2"/>
					<circle class="st10" cx="520.3" cy="313.6" r="1.2"/>
					<circle class="st10" cx="526.6" cy="313.6" r="1.2"/>
					<circle class="st10" cx="532.9" cy="313.6" r="1.2"/>
					<circle class="st10" cx="539.2" cy="313.6" r="1.2"/>
					<circle class="st10" cx="545.5" cy="313.6" r="1.2"/>
					<circle class="st10" cx="551.8" cy="313.6" r="1.2"/>
					<circle class="st10" cx="558.1" cy="313.6" r="1.2"/>
				</g>
				<g>
					<circle class="st10" cx="498.1" cy="317.7" r="1.2"/>
					<circle class="st10" cx="504.4" cy="317.7" r="1.2"/>
					<circle class="st10" cx="510.7" cy="317.7" r="1.2"/>
					<circle class="st10" cx="517" cy="317.7" r="1.2"/>
					<circle class="st10" cx="523.3" cy="317.7" r="1.2"/>
					<circle class="st10" cx="529.6" cy="317.7" r="1.2"/>
					<circle class="st10" cx="535.9" cy="317.7" r="1.2"/>
					<circle class="st10" cx="542.2" cy="317.7" r="1.2"/>
					<circle class="st10" cx="548.5" cy="317.7" r="1.2"/>
					<circle class="st10" cx="554.8" cy="317.7" r="1.2"/>
				</g>
				<g>
					<circle class="st10" cx="501.4" cy="321.8" r="1.2"/>
					<circle class="st10" cx="507.7" cy="321.8" r="1.2"/>
					<circle class="st10" cx="514" cy="321.8" r="1.2"/>
					<circle class="st10" cx="520.3" cy="321.8" r="1.2"/>
					<circle class="st10" cx="526.6" cy="321.8" r="1.2"/>
					<circle class="st10" cx="532.9" cy="321.8" r="1.2"/>
					<circle class="st10" cx="539.2" cy="321.8" r="1.2"/>
					<circle class="st10" cx="545.5" cy="321.8" r="1.2"/>
					<circle class="st10" cx="551.8" cy="321.8" r="1.2"/>
					<circle class="st10" cx="558.1" cy="321.8" r="1.2"/>
				</g>
				<g>
					<circle class="st10" cx="498.1" cy="325.9" r="1.2"/>
					<circle class="st10" cx="504.4" cy="325.9" r="1.2"/>
					<circle class="st10" cx="510.7" cy="325.9" r="1.2"/>
					<circle class="st10" cx="517" cy="325.9" r="1.2"/>
					<circle class="st10" cx="523.3" cy="325.9" r="1.2"/>
					<circle class="st10" cx="529.6" cy="325.9" r="1.2"/>
					<circle class="st10" cx="535.9" cy="325.9" r="1.2"/>
					<circle class="st10" cx="542.2" cy="325.9" r="1.2"/>
					<circle class="st10" cx="548.5" cy="325.9" r="1.2"/>
					<circle class="st10" cx="554.8" cy="325.9" r="1.2"/>
				</g>
				<g>
					<circle class="st10" cx="501.4" cy="330" r="1.2"/>
					<circle class="st10" cx="507.7" cy="330" r="1.2"/>
					<circle class="st10" cx="514" cy="330" r="1.2"/>
					<circle class="st10" cx="520.3" cy="330" r="1.2"/>
					<circle class="st10" cx="526.6" cy="330" r="1.2"/>
					<circle class="st10" cx="532.9" cy="330" r="1.2"/>
					<circle class="st10" cx="539.2" cy="330" r="1.2"/>
					<circle class="st10" cx="545.5" cy="330" r="1.2"/>
					<circle class="st10" cx="551.8" cy="330" r="1.2"/>
					<circle class="st10" cx="558.1" cy="330" r="1.2"/>
				</g>
				<g>
					<circle class="st10" cx="498.1" cy="334.1" r="1.2"/>
					<circle class="st10" cx="504.4" cy="334.1" r="1.2"/>
					<circle class="st10" cx="510.7" cy="334.1" r="1.2"/>
					<circle class="st10" cx="517" cy="334.1" r="1.2"/>
					<circle class="st10" cx="523.3" cy="334.1" r="1.2"/>
					<circle class="st10" cx="529.6" cy="334.1" r="1.2"/>
					<circle class="st10" cx="535.9" cy="334.1" r="1.2"/>
					<circle class="st10" cx="542.2" cy="334.1" r="1.2"/>
					<circle class="st10" cx="548.5" cy="334.1" r="1.2"/>
					<circle class="st10" cx="554.8" cy="334.1" r="1.2"/>
				</g>
			</g>
			<g>
				<g>
					<circle class="st10" cx="368.2" cy="313.6" r="1.2"/>
					<circle class="st10" cx="374.5" cy="313.6" r="1.2"/>
					<circle class="st10" cx="380.8" cy="313.6" r="1.2"/>
					<circle class="st10" cx="387.1" cy="313.6" r="1.2"/>
					<circle class="st10" cx="393.4" cy="313.6" r="1.2"/>
					<circle class="st10" cx="399.7" cy="313.6" r="1.2"/>
					<circle class="st10" cx="406" cy="313.6" r="1.2"/>
					<circle class="st10" cx="412.3" cy="313.6" r="1.2"/>
					<circle class="st10" cx="418.6" cy="313.6" r="1.2"/>
					<circle class="st10" cx="424.9" cy="313.6" r="1.2"/>
				</g>
				<g>
					<circle class="st10" cx="364.9" cy="317.7" r="1.2"/>
					<circle class="st10" cx="371.2" cy="317.7" r="1.2"/>
					<circle class="st10" cx="377.5" cy="317.7" r="1.2"/>
					<circle class="st10" cx="383.8" cy="317.7" r="1.2"/>
					<circle class="st10" cx="390.1" cy="317.7" r="1.2"/>
					<circle class="st10" cx="396.4" cy="317.7" r="1.2"/>
					<circle class="st10" cx="402.7" cy="317.7" r="1.2"/>
					<circle class="st10" cx="409" cy="317.7" r="1.2"/>
					<circle class="st10" cx="415.3" cy="317.7" r="1.2"/>
					<circle class="st10" cx="421.6" cy="317.7" r="1.2"/>
				</g>
				<g>
					<circle class="st10" cx="368.2" cy="321.8" r="1.2"/>
					<circle class="st10" cx="374.5" cy="321.8" r="1.2"/>
					<circle class="st10" cx="380.8" cy="321.8" r="1.2"/>
					<circle class="st10" cx="387.1" cy="321.8" r="1.2"/>
					<circle class="st10" cx="393.4" cy="321.8" r="1.2"/>
					<circle class="st10" cx="399.7" cy="321.8" r="1.2"/>
					<circle class="st10" cx="406" cy="321.8" r="1.2"/>
					<circle class="st10" cx="412.3" cy="321.8" r="1.2"/>
					<circle class="st10" cx="418.6" cy="321.8" r="1.2"/>
					<circle class="st10" cx="424.9" cy="321.8" r="1.2"/>
				</g>
				<g>
					<circle class="st10" cx="364.9" cy="325.9" r="1.2"/>
					<circle class="st10" cx="371.2" cy="325.9" r="1.2"/>
					<circle class="st10" cx="377.5" cy="325.9" r="1.2"/>
					<circle class="st10" cx="383.8" cy="325.9" r="1.2"/>
					<circle class="st10" cx="390.1" cy="325.9" r="1.2"/>
					<circle class="st10" cx="396.4" cy="325.9" r="1.2"/>
					<circle class="st10" cx="402.7" cy="325.9" r="1.2"/>
					<circle class="st10" cx="409" cy="325.9" r="1.2"/>
					<circle class="st10" cx="415.3" cy="325.9" r="1.2"/>
					<circle class="st10" cx="421.6" cy="325.9" r="1.2"/>
				</g>
				<g>
					<circle class="st10" cx="368.2" cy="330" r="1.2"/>
					<circle class="st10" cx="374.5" cy="330" r="1.2"/>
					<circle class="st10" cx="380.8" cy="330" r="1.2"/>
					<circle class="st10" cx="387.1" cy="330" r="1.2"/>
					<circle class="st10" cx="393.4" cy="330" r="1.2"/>
					<circle class="st10" cx="399.7" cy="330" r="1.2"/>
					<circle class="st10" cx="406" cy="330" r="1.2"/>
					<circle class="st10" cx="412.3" cy="330" r="1.2"/>
					<circle class="st10" cx="418.6" cy="330" r="1.2"/>
					<circle class="st10" cx="424.9" cy="330" r="1.2"/>
				</g>
				<g>
					<circle class="st10" cx="364.9" cy="334.1" r="1.2"/>
					<circle class="st10" cx="371.2" cy="334.1" r="1.2"/>
					<circle class="st10" cx="377.5" cy="334.1" r="1.2"/>
					<circle class="st10" cx="383.8" cy="334.1" r="1.2"/>
					<circle class="st10" cx="390.1" cy="334.1" r="1.2"/>
					<circle class="st10" cx="396.4" cy="334.1" r="1.2"/>
					<circle class="st10" cx="402.7" cy="334.1" r="1.2"/>
					<circle class="st10" cx="409" cy="334.1" r="1.2"/>
					<circle class="st10" cx="415.3" cy="334.1" r="1.2"/>
					<circle class="st10" cx="421.6" cy="334.1" r="1.2"/>
				</g>
			</g>
		</g>
	</g>
</g>
</svg>
