<?xml version="1.0" encoding="utf-8"?>
<!-- Generator: Adobe Illustrator 23.0.2, SVG Export Plug-In . SVG Version: 6.00 Build 0)  -->
<svg version="1.1" id="Layer_1" xmlns="http://www.w3.org/2000/svg" xmlns:xlink="http://www.w3.org/1999/xlink" x="0px" y="0px"
	 viewBox="0 0 640 400" style="enable-background:new 0 0 640 400;" xml:space="preserve">
<style type="text/css">
	.st0{fill:#84D3AC;}
	.st1{fill:none;stroke:#84D3AC;stroke-width:6;stroke-linecap:round;stroke-linejoin:round;}
	.st2{fill:none;stroke:#84D3AC;stroke-width:6;stroke-linecap:round;stroke-linejoin:round;stroke-dasharray:0,9.9049;}
	.st3{fill:none;stroke:#84D3AC;stroke-width:1.4173;stroke-linecap:round;stroke-miterlimit:10;}
	.st4{fill:none;stroke:#84D3AC;stroke-width:1.2077;stroke-miterlimit:10;}
	.st5{fill:none;stroke:#84D3AC;stroke-width:2;stroke-miterlimit:10;}
	.st6{fill:none;stroke:#84D3AC;stroke-miterlimit:10;}
	.st7{fill:none;stroke:#84D3AC;stroke-width:1.2149;stroke-miterlimit:10;}
	.st8{clip-path:url(#SVGID_2_);}
</style>
<g>
	<g>
		<g>
			<g>
				<g>
					<g>
						<path class="st0" d="M132.7,272.5H126v-37.9l-28.1,17.5l-3.6-5.7l31.7-19.7v-59l36.7,44.2l-29.9,18.6V272.5z M132.7,186.3
							v36.2l19.8-12.3L132.7,186.3z"/>
					</g>
				</g>
				<g>
					<g>
						<path class="st0" d="M125.7,285.8v-58L94,207.5l3.6-5.7l28,17.9l0.5-35.7l6.3,0.7v39.3l30,19.2L125.7,285.8z M132.4,232.1
							v35.6l19.8-22.9L132.4,232.1z"/>
					</g>
				</g>
			</g>
		</g>
	</g>
	<g>
		<g>
			<line class="st1" x1="182.5" y1="223.9" x2="182.5" y2="223.9"/>
			<line class="st2" x1="192.4" y1="223.9" x2="385.5" y2="224.9"/>
			<line class="st1" x1="390.5" y1="224.9" x2="390.5" y2="224.9"/>
		</g>
	</g>
	<line class="st3" x1="47.5" y1="354.9" x2="592.5" y2="354.9"/>
	<g>
		<g>
			<ellipse class="st4" cx="463.5" cy="88.1" rx="46.8" ry="30.3"/>
			<ellipse class="st5" cx="463.5" cy="81.9" rx="51" ry="36.5"/>
			<g>
				<path class="st6" d="M463.7,64.7c-14.3,0-26.4,3.8-34.1,10.6l68.5,0.3C490.3,69,477.8,64.7,463.7,64.7z"/>
				<path class="st5" d="M509.1,86.8c-0.6-3.3-6-11.2-6-11.2l-5.1,0l-69,0.3l-4.7,0c-3,3.9-6.6,11.2-6.6,11.2l3.9,0l84.1-0.3
					L509.1,86.8z"/>
			</g>
			<polyline class="st5" points="412.5,81.9 412.5,346.8 514,346.8 514.6,84.5 			"/>
			<polyline class="st5" points="413.5,346.9 416.8,353.9 507.9,353.9 512.5,346.9 			"/>
			<line class="st6" x1="411.9" y1="246.5" x2="514" y2="246.5"/>
			<line class="st6" x1="411.9" y1="339.5" x2="514" y2="339.5"/>
			<path class="st7" d="M463.5,98.1c7.4,0,13.4-4,17.5-10.7l-35.3-0.2C449.7,93.8,456.2,98.1,463.5,98.1z"/>
		</g>
		<g>
			<defs>
				<rect id="SVGID_1_" x="412.5" y="246.9" width="101" height="93"/>
			</defs>
			<clipPath id="SVGID_2_">
				<use xlink:href="#SVGID_1_"  style="overflow:visible;"/>
			</clipPath>
			<g class="st8">
				<g>
					<g>
						<circle class="st6" cx="433.5" cy="252.1" r="1.2"/>
						<circle class="st6" cx="439.8" cy="252.1" r="1.2"/>
						<circle class="st6" cx="446.1" cy="252.1" r="1.2"/>
						<circle class="st6" cx="452.4" cy="252.1" r="1.2"/>
						<circle class="st6" cx="458.7" cy="252.1" r="1.2"/>
						<circle class="st6" cx="465" cy="252.1" r="1.2"/>
						<circle class="st6" cx="471.3" cy="252.1" r="1.2"/>
						<circle class="st6" cx="477.6" cy="252.1" r="1.2"/>
						<circle class="st6" cx="483.9" cy="252.1" r="1.2"/>
						<circle class="st6" cx="490.2" cy="252.1" r="1.2"/>
					</g>
					<g>
						<circle class="st6" cx="436.8" cy="256.2" r="1.2"/>
						<circle class="st6" cx="443.1" cy="256.2" r="1.2"/>
						<circle class="st6" cx="449.4" cy="256.2" r="1.2"/>
						<circle class="st6" cx="455.7" cy="256.2" r="1.2"/>
						<circle class="st6" cx="462" cy="256.2" r="1.2"/>
						<circle class="st6" cx="468.3" cy="256.2" r="1.2"/>
						<circle class="st6" cx="474.6" cy="256.2" r="1.2"/>
						<circle class="st6" cx="480.9" cy="256.2" r="1.2"/>
						<circle class="st6" cx="487.2" cy="256.2" r="1.2"/>
						<circle class="st6" cx="493.5" cy="256.2" r="1.2"/>
					</g>
					<g>
						<circle class="st6" cx="433.5" cy="260.3" r="1.2"/>
						<circle class="st6" cx="439.8" cy="260.3" r="1.2"/>
						<circle class="st6" cx="446.1" cy="260.3" r="1.2"/>
						<circle class="st6" cx="452.4" cy="260.3" r="1.2"/>
						<circle class="st6" cx="458.7" cy="260.3" r="1.2"/>
						<circle class="st6" cx="465" cy="260.3" r="1.2"/>
						<circle class="st6" cx="471.3" cy="260.3" r="1.2"/>
						<circle class="st6" cx="477.6" cy="260.3" r="1.2"/>
						<circle class="st6" cx="483.9" cy="260.3" r="1.2"/>
						<circle class="st6" cx="490.2" cy="260.3" r="1.2"/>
					</g>
					<g>
						<circle class="st6" cx="436.8" cy="264.5" r="1.2"/>
						<circle class="st6" cx="443.1" cy="264.5" r="1.2"/>
						<circle class="st6" cx="449.4" cy="264.5" r="1.2"/>
						<circle class="st6" cx="455.7" cy="264.5" r="1.2"/>
						<circle class="st6" cx="462" cy="264.5" r="1.2"/>
						<circle class="st6" cx="468.3" cy="264.5" r="1.2"/>
						<circle class="st6" cx="474.6" cy="264.5" r="1.2"/>
						<circle class="st6" cx="480.9" cy="264.5" r="1.2"/>
						<circle class="st6" cx="487.2" cy="264.5" r="1.2"/>
						<circle class="st6" cx="493.5" cy="264.5" r="1.2"/>
					</g>
					<g>
						<circle class="st6" cx="433.5" cy="268.6" r="1.2"/>
						<circle class="st6" cx="439.8" cy="268.6" r="1.2"/>
						<circle class="st6" cx="446.1" cy="268.6" r="1.2"/>
						<circle class="st6" cx="452.4" cy="268.6" r="1.2"/>
						<circle class="st6" cx="458.7" cy="268.6" r="1.2"/>
						<circle class="st6" cx="465" cy="268.6" r="1.2"/>
						<circle class="st6" cx="471.3" cy="268.6" r="1.2"/>
						<circle class="st6" cx="477.6" cy="268.6" r="1.2"/>
						<circle class="st6" cx="483.9" cy="268.6" r="1.2"/>
						<circle class="st6" cx="490.2" cy="268.6" r="1.2"/>
					</g>
					<g>
						<circle class="st6" cx="436.8" cy="272.7" r="1.2"/>
						<circle class="st6" cx="443.1" cy="272.7" r="1.2"/>
						<circle class="st6" cx="449.4" cy="272.7" r="1.2"/>
						<circle class="st6" cx="455.7" cy="272.7" r="1.2"/>
						<circle class="st6" cx="462" cy="272.7" r="1.2"/>
						<circle class="st6" cx="468.3" cy="272.7" r="1.2"/>
						<circle class="st6" cx="474.6" cy="272.7" r="1.2"/>
						<circle class="st6" cx="480.9" cy="272.7" r="1.2"/>
						<circle class="st6" cx="487.2" cy="272.7" r="1.2"/>
						<circle class="st6" cx="493.5" cy="272.7" r="1.2"/>
					</g>
					<g>
						<circle class="st6" cx="433.5" cy="276.8" r="1.2"/>
						<circle class="st6" cx="439.8" cy="276.8" r="1.2"/>
						<circle class="st6" cx="446.1" cy="276.8" r="1.2"/>
						<circle class="st6" cx="452.4" cy="276.8" r="1.2"/>
						<circle class="st6" cx="458.7" cy="276.8" r="1.2"/>
						<circle class="st6" cx="465" cy="276.8" r="1.2"/>
						<circle class="st6" cx="471.3" cy="276.8" r="1.2"/>
						<circle class="st6" cx="477.6" cy="276.8" r="1.2"/>
						<circle class="st6" cx="483.9" cy="276.8" r="1.2"/>
						<circle class="st6" cx="490.2" cy="276.8" r="1.2"/>
					</g>
					<g>
						<circle class="st6" cx="436.8" cy="280.9" r="1.2"/>
						<circle class="st6" cx="443.1" cy="280.9" r="1.2"/>
						<circle class="st6" cx="449.4" cy="280.9" r="1.2"/>
						<circle class="st6" cx="455.7" cy="280.9" r="1.2"/>
						<circle class="st6" cx="462" cy="280.9" r="1.2"/>
						<circle class="st6" cx="468.3" cy="280.9" r="1.2"/>
						<circle class="st6" cx="474.6" cy="280.9" r="1.2"/>
						<circle class="st6" cx="480.9" cy="280.9" r="1.2"/>
						<circle class="st6" cx="487.2" cy="280.9" r="1.2"/>
						<circle class="st6" cx="493.5" cy="280.9" r="1.2"/>
					</g>
					<g>
						<circle class="st6" cx="433.5" cy="285" r="1.2"/>
						<circle class="st6" cx="439.8" cy="285" r="1.2"/>
						<circle class="st6" cx="446.1" cy="285" r="1.2"/>
						<circle class="st6" cx="452.4" cy="285" r="1.2"/>
						<circle class="st6" cx="458.7" cy="285" r="1.2"/>
						<circle class="st6" cx="465" cy="285" r="1.2"/>
						<circle class="st6" cx="471.3" cy="285" r="1.2"/>
						<circle class="st6" cx="477.6" cy="285" r="1.2"/>
						<circle class="st6" cx="483.9" cy="285" r="1.2"/>
						<circle class="st6" cx="490.2" cy="285" r="1.2"/>
					</g>
					<g>
						<circle class="st6" cx="436.8" cy="289.1" r="1.2"/>
						<circle class="st6" cx="443.1" cy="289.1" r="1.2"/>
						<circle class="st6" cx="449.4" cy="289.1" r="1.2"/>
						<circle class="st6" cx="455.7" cy="289.1" r="1.2"/>
						<circle class="st6" cx="462" cy="289.1" r="1.2"/>
						<circle class="st6" cx="468.3" cy="289.1" r="1.2"/>
						<circle class="st6" cx="474.6" cy="289.1" r="1.2"/>
						<circle class="st6" cx="480.9" cy="289.1" r="1.2"/>
						<circle class="st6" cx="487.2" cy="289.1" r="1.2"/>
						<circle class="st6" cx="493.5" cy="289.1" r="1.2"/>
					</g>
					<g>
						<circle class="st6" cx="433.5" cy="293.2" r="1.2"/>
						<circle class="st6" cx="439.8" cy="293.2" r="1.2"/>
						<circle class="st6" cx="446.1" cy="293.2" r="1.2"/>
						<circle class="st6" cx="452.4" cy="293.2" r="1.2"/>
						<circle class="st6" cx="458.7" cy="293.2" r="1.2"/>
						<circle class="st6" cx="465" cy="293.2" r="1.2"/>
						<circle class="st6" cx="471.3" cy="293.2" r="1.2"/>
						<circle class="st6" cx="477.6" cy="293.2" r="1.2"/>
						<circle class="st6" cx="483.9" cy="293.2" r="1.2"/>
						<circle class="st6" cx="490.2" cy="293.2" r="1.2"/>
					</g>
					<g>
						<circle class="st6" cx="436.8" cy="297.3" r="1.2"/>
						<circle class="st6" cx="443.1" cy="297.3" r="1.2"/>
						<circle class="st6" cx="449.4" cy="297.3" r="1.2"/>
						<circle class="st6" cx="455.7" cy="297.3" r="1.2"/>
						<circle class="st6" cx="462" cy="297.3" r="1.2"/>
						<circle class="st6" cx="468.3" cy="297.3" r="1.2"/>
						<circle class="st6" cx="474.6" cy="297.3" r="1.2"/>
						<circle class="st6" cx="480.9" cy="297.3" r="1.2"/>
						<circle class="st6" cx="487.2" cy="297.3" r="1.2"/>
						<circle class="st6" cx="493.5" cy="297.3" r="1.2"/>
					</g>
					<g>
						<circle class="st6" cx="433.5" cy="301.4" r="1.2"/>
						<circle class="st6" cx="439.8" cy="301.4" r="1.2"/>
						<circle class="st6" cx="446.1" cy="301.4" r="1.2"/>
						<circle class="st6" cx="452.4" cy="301.4" r="1.2"/>
						<circle class="st6" cx="458.7" cy="301.4" r="1.2"/>
						<circle class="st6" cx="465" cy="301.4" r="1.2"/>
						<circle class="st6" cx="471.3" cy="301.4" r="1.2"/>
						<circle class="st6" cx="477.6" cy="301.4" r="1.2"/>
						<circle class="st6" cx="483.9" cy="301.4" r="1.2"/>
						<circle class="st6" cx="490.2" cy="301.4" r="1.2"/>
					</g>
					<g>
						<circle class="st6" cx="436.8" cy="305.6" r="1.2"/>
						<circle class="st6" cx="443.1" cy="305.6" r="1.2"/>
						<circle class="st6" cx="449.4" cy="305.6" r="1.2"/>
						<circle class="st6" cx="455.7" cy="305.6" r="1.2"/>
						<circle class="st6" cx="462" cy="305.6" r="1.2"/>
						<circle class="st6" cx="468.3" cy="305.6" r="1.2"/>
						<circle class="st6" cx="474.6" cy="305.6" r="1.2"/>
						<circle class="st6" cx="480.9" cy="305.6" r="1.2"/>
						<circle class="st6" cx="487.2" cy="305.6" r="1.2"/>
						<circle class="st6" cx="493.5" cy="305.6" r="1.2"/>
					</g>
					<g>
						<circle class="st6" cx="433.5" cy="309.7" r="1.2"/>
						<circle class="st6" cx="439.8" cy="309.7" r="1.2"/>
						<circle class="st6" cx="446.1" cy="309.7" r="1.2"/>
						<circle class="st6" cx="452.4" cy="309.7" r="1.2"/>
						<circle class="st6" cx="458.7" cy="309.7" r="1.2"/>
						<circle class="st6" cx="465" cy="309.7" r="1.2"/>
						<circle class="st6" cx="471.3" cy="309.7" r="1.2"/>
						<circle class="st6" cx="477.6" cy="309.7" r="1.2"/>
						<circle class="st6" cx="483.9" cy="309.7" r="1.2"/>
						<circle class="st6" cx="490.2" cy="309.7" r="1.2"/>
					</g>
				</g>
				<g>
					<g>
						<circle class="st6" cx="500.1" cy="252.1" r="1.2"/>
						<circle class="st6" cx="506.4" cy="252.1" r="1.2"/>
						<circle class="st6" cx="512.7" cy="252.1" r="1.2"/>
						<circle class="st6" cx="519" cy="252.1" r="1.2"/>
						<circle class="st6" cx="525.3" cy="252.1" r="1.2"/>
						<circle class="st6" cx="531.6" cy="252.1" r="1.2"/>
						<circle class="st6" cx="537.9" cy="252.1" r="1.2"/>
						<circle class="st6" cx="544.2" cy="252.1" r="1.2"/>
						<circle class="st6" cx="550.5" cy="252.1" r="1.2"/>
						<circle class="st6" cx="556.8" cy="252.1" r="1.2"/>
					</g>
					<g>
						<circle class="st6" cx="503.4" cy="256.2" r="1.2"/>
						<circle class="st6" cx="509.7" cy="256.2" r="1.2"/>
						<circle class="st6" cx="516" cy="256.2" r="1.2"/>
						<circle class="st6" cx="522.3" cy="256.2" r="1.2"/>
						<circle class="st6" cx="528.6" cy="256.2" r="1.2"/>
						<circle class="st6" cx="534.9" cy="256.2" r="1.2"/>
						<circle class="st6" cx="541.2" cy="256.2" r="1.2"/>
						<circle class="st6" cx="547.5" cy="256.2" r="1.2"/>
						<circle class="st6" cx="553.8" cy="256.2" r="1.2"/>
						<circle class="st6" cx="560.1" cy="256.2" r="1.2"/>
					</g>
					<g>
						<circle class="st6" cx="500.1" cy="260.3" r="1.2"/>
						<circle class="st6" cx="506.4" cy="260.3" r="1.2"/>
						<circle class="st6" cx="512.7" cy="260.3" r="1.2"/>
						<circle class="st6" cx="519" cy="260.3" r="1.2"/>
						<circle class="st6" cx="525.3" cy="260.3" r="1.2"/>
						<circle class="st6" cx="531.6" cy="260.3" r="1.2"/>
						<circle class="st6" cx="537.9" cy="260.3" r="1.2"/>
						<circle class="st6" cx="544.2" cy="260.3" r="1.2"/>
						<circle class="st6" cx="550.5" cy="260.3" r="1.2"/>
						<circle class="st6" cx="556.8" cy="260.3" r="1.2"/>
					</g>
					<g>
						<circle class="st6" cx="503.4" cy="264.5" r="1.2"/>
						<circle class="st6" cx="509.7" cy="264.5" r="1.2"/>
						<circle class="st6" cx="516" cy="264.5" r="1.2"/>
						<circle class="st6" cx="522.3" cy="264.5" r="1.2"/>
						<circle class="st6" cx="528.6" cy="264.5" r="1.2"/>
						<circle class="st6" cx="534.9" cy="264.5" r="1.2"/>
						<circle class="st6" cx="541.2" cy="264.5" r="1.2"/>
						<circle class="st6" cx="547.5" cy="264.5" r="1.2"/>
						<circle class="st6" cx="553.8" cy="264.5" r="1.2"/>
						<circle class="st6" cx="560.1" cy="264.5" r="1.2"/>
					</g>
					<g>
						<circle class="st6" cx="500.1" cy="268.6" r="1.2"/>
						<circle class="st6" cx="506.4" cy="268.6" r="1.2"/>
						<circle class="st6" cx="512.7" cy="268.6" r="1.2"/>
						<circle class="st6" cx="519" cy="268.6" r="1.2"/>
						<circle class="st6" cx="525.3" cy="268.6" r="1.2"/>
						<circle class="st6" cx="531.6" cy="268.6" r="1.2"/>
						<circle class="st6" cx="537.9" cy="268.6" r="1.2"/>
						<circle class="st6" cx="544.2" cy="268.6" r="1.2"/>
						<circle class="st6" cx="550.5" cy="268.6" r="1.2"/>
						<circle class="st6" cx="556.8" cy="268.6" r="1.2"/>
					</g>
					<g>
						<circle class="st6" cx="503.4" cy="272.7" r="1.2"/>
						<circle class="st6" cx="509.7" cy="272.7" r="1.2"/>
						<circle class="st6" cx="516" cy="272.7" r="1.2"/>
						<circle class="st6" cx="522.3" cy="272.7" r="1.2"/>
						<circle class="st6" cx="528.6" cy="272.7" r="1.2"/>
						<circle class="st6" cx="534.9" cy="272.7" r="1.2"/>
						<circle class="st6" cx="541.2" cy="272.7" r="1.2"/>
						<circle class="st6" cx="547.5" cy="272.7" r="1.2"/>
						<circle class="st6" cx="553.8" cy="272.7" r="1.2"/>
						<circle class="st6" cx="560.1" cy="272.7" r="1.2"/>
					</g>
					<g>
						<circle class="st6" cx="500.1" cy="276.8" r="1.2"/>
						<circle class="st6" cx="506.4" cy="276.8" r="1.2"/>
						<circle class="st6" cx="512.7" cy="276.8" r="1.2"/>
						<circle class="st6" cx="519" cy="276.8" r="1.2"/>
						<circle class="st6" cx="525.3" cy="276.8" r="1.2"/>
						<circle class="st6" cx="531.6" cy="276.8" r="1.2"/>
						<circle class="st6" cx="537.9" cy="276.8" r="1.2"/>
						<circle class="st6" cx="544.2" cy="276.8" r="1.2"/>
						<circle class="st6" cx="550.5" cy="276.8" r="1.2"/>
						<circle class="st6" cx="556.8" cy="276.8" r="1.2"/>
					</g>
					<g>
						<circle class="st6" cx="503.4" cy="280.9" r="1.2"/>
						<circle class="st6" cx="509.7" cy="280.9" r="1.2"/>
						<circle class="st6" cx="516" cy="280.9" r="1.2"/>
						<circle class="st6" cx="522.3" cy="280.9" r="1.2"/>
						<circle class="st6" cx="528.6" cy="280.9" r="1.2"/>
						<circle class="st6" cx="534.9" cy="280.9" r="1.2"/>
						<circle class="st6" cx="541.2" cy="280.9" r="1.2"/>
						<circle class="st6" cx="547.5" cy="280.9" r="1.2"/>
						<circle class="st6" cx="553.8" cy="280.9" r="1.2"/>
						<circle class="st6" cx="560.1" cy="280.9" r="1.2"/>
					</g>
					<g>
						<circle class="st6" cx="500.1" cy="285" r="1.2"/>
						<circle class="st6" cx="506.4" cy="285" r="1.2"/>
						<circle class="st6" cx="512.7" cy="285" r="1.2"/>
						<circle class="st6" cx="519" cy="285" r="1.2"/>
						<circle class="st6" cx="525.3" cy="285" r="1.2"/>
						<circle class="st6" cx="531.6" cy="285" r="1.2"/>
						<circle class="st6" cx="537.9" cy="285" r="1.2"/>
						<circle class="st6" cx="544.2" cy="285" r="1.2"/>
						<circle class="st6" cx="550.5" cy="285" r="1.2"/>
						<circle class="st6" cx="556.8" cy="285" r="1.2"/>
					</g>
					<g>
						<circle class="st6" cx="503.4" cy="289.1" r="1.2"/>
						<circle class="st6" cx="509.7" cy="289.1" r="1.2"/>
						<circle class="st6" cx="516" cy="289.1" r="1.2"/>
						<circle class="st6" cx="522.3" cy="289.1" r="1.2"/>
						<circle class="st6" cx="528.6" cy="289.1" r="1.2"/>
						<circle class="st6" cx="534.9" cy="289.1" r="1.2"/>
						<circle class="st6" cx="541.2" cy="289.1" r="1.2"/>
						<circle class="st6" cx="547.5" cy="289.1" r="1.2"/>
						<circle class="st6" cx="553.8" cy="289.1" r="1.2"/>
						<circle class="st6" cx="560.1" cy="289.1" r="1.2"/>
					</g>
					<g>
						<circle class="st6" cx="500.1" cy="293.2" r="1.2"/>
						<circle class="st6" cx="506.4" cy="293.2" r="1.2"/>
						<circle class="st6" cx="512.7" cy="293.2" r="1.2"/>
						<circle class="st6" cx="519" cy="293.2" r="1.2"/>
						<circle class="st6" cx="525.3" cy="293.2" r="1.2"/>
						<circle class="st6" cx="531.6" cy="293.2" r="1.2"/>
						<circle class="st6" cx="537.9" cy="293.2" r="1.2"/>
						<circle class="st6" cx="544.2" cy="293.2" r="1.2"/>
						<circle class="st6" cx="550.5" cy="293.2" r="1.2"/>
						<circle class="st6" cx="556.8" cy="293.2" r="1.2"/>
					</g>
					<g>
						<circle class="st6" cx="503.4" cy="297.3" r="1.2"/>
						<circle class="st6" cx="509.7" cy="297.3" r="1.2"/>
						<circle class="st6" cx="516" cy="297.3" r="1.2"/>
						<circle class="st6" cx="522.3" cy="297.3" r="1.2"/>
						<circle class="st6" cx="528.6" cy="297.3" r="1.2"/>
						<circle class="st6" cx="534.9" cy="297.3" r="1.2"/>
						<circle class="st6" cx="541.2" cy="297.3" r="1.2"/>
						<circle class="st6" cx="547.5" cy="297.3" r="1.2"/>
						<circle class="st6" cx="553.8" cy="297.3" r="1.2"/>
						<circle class="st6" cx="560.1" cy="297.3" r="1.2"/>
					</g>
					<g>
						<circle class="st6" cx="500.1" cy="301.4" r="1.2"/>
						<circle class="st6" cx="506.4" cy="301.4" r="1.2"/>
						<circle class="st6" cx="512.7" cy="301.4" r="1.2"/>
						<circle class="st6" cx="519" cy="301.4" r="1.2"/>
						<circle class="st6" cx="525.3" cy="301.4" r="1.2"/>
						<circle class="st6" cx="531.6" cy="301.4" r="1.2"/>
						<circle class="st6" cx="537.9" cy="301.4" r="1.2"/>
						<circle class="st6" cx="544.2" cy="301.4" r="1.2"/>
						<circle class="st6" cx="550.5" cy="301.4" r="1.2"/>
						<circle class="st6" cx="556.8" cy="301.4" r="1.2"/>
					</g>
					<g>
						<circle class="st6" cx="503.4" cy="305.6" r="1.2"/>
						<circle class="st6" cx="509.7" cy="305.6" r="1.2"/>
						<circle class="st6" cx="516" cy="305.6" r="1.2"/>
						<circle class="st6" cx="522.3" cy="305.6" r="1.2"/>
						<circle class="st6" cx="528.6" cy="305.6" r="1.2"/>
						<circle class="st6" cx="534.9" cy="305.6" r="1.2"/>
						<circle class="st6" cx="541.2" cy="305.6" r="1.2"/>
						<circle class="st6" cx="547.5" cy="305.6" r="1.2"/>
						<circle class="st6" cx="553.8" cy="305.6" r="1.2"/>
						<circle class="st6" cx="560.1" cy="305.6" r="1.2"/>
					</g>
					<g>
						<circle class="st6" cx="500.1" cy="309.7" r="1.2"/>
						<circle class="st6" cx="506.4" cy="309.7" r="1.2"/>
						<circle class="st6" cx="512.7" cy="309.7" r="1.2"/>
						<circle class="st6" cx="519" cy="309.7" r="1.2"/>
						<circle class="st6" cx="525.3" cy="309.7" r="1.2"/>
						<circle class="st6" cx="531.6" cy="309.7" r="1.2"/>
						<circle class="st6" cx="537.9" cy="309.7" r="1.2"/>
						<circle class="st6" cx="544.2" cy="309.7" r="1.2"/>
						<circle class="st6" cx="550.5" cy="309.7" r="1.2"/>
						<circle class="st6" cx="556.8" cy="309.7" r="1.2"/>
					</g>
				</g>
				<g>
					<g>
						<circle class="st6" cx="366.9" cy="252.1" r="1.2"/>
						<circle class="st6" cx="373.2" cy="252.1" r="1.2"/>
						<circle class="st6" cx="379.5" cy="252.1" r="1.2"/>
						<circle class="st6" cx="385.8" cy="252.1" r="1.2"/>
						<circle class="st6" cx="392.1" cy="252.1" r="1.2"/>
						<circle class="st6" cx="398.4" cy="252.1" r="1.2"/>
						<circle class="st6" cx="404.7" cy="252.1" r="1.2"/>
						<circle class="st6" cx="411" cy="252.1" r="1.2"/>
						<circle class="st6" cx="417.3" cy="252.1" r="1.2"/>
						<circle class="st6" cx="423.6" cy="252.1" r="1.2"/>
					</g>
					<g>
						<circle class="st6" cx="370.2" cy="256.2" r="1.2"/>
						<circle class="st6" cx="376.5" cy="256.2" r="1.2"/>
						<circle class="st6" cx="382.8" cy="256.2" r="1.2"/>
						<circle class="st6" cx="389.1" cy="256.2" r="1.2"/>
						<circle class="st6" cx="395.4" cy="256.2" r="1.2"/>
						<circle class="st6" cx="401.7" cy="256.2" r="1.2"/>
						<circle class="st6" cx="408" cy="256.2" r="1.2"/>
						<circle class="st6" cx="414.3" cy="256.2" r="1.2"/>
						<circle class="st6" cx="420.6" cy="256.2" r="1.2"/>
						<circle class="st6" cx="426.9" cy="256.2" r="1.2"/>
					</g>
					<g>
						<circle class="st6" cx="366.9" cy="260.3" r="1.2"/>
						<circle class="st6" cx="373.2" cy="260.3" r="1.2"/>
						<circle class="st6" cx="379.5" cy="260.3" r="1.2"/>
						<circle class="st6" cx="385.8" cy="260.3" r="1.2"/>
						<circle class="st6" cx="392.1" cy="260.3" r="1.2"/>
						<circle class="st6" cx="398.4" cy="260.3" r="1.2"/>
						<circle class="st6" cx="404.7" cy="260.3" r="1.2"/>
						<circle class="st6" cx="411" cy="260.3" r="1.2"/>
						<circle class="st6" cx="417.3" cy="260.3" r="1.2"/>
						<circle class="st6" cx="423.6" cy="260.3" r="1.2"/>
					</g>
					<g>
						<circle class="st6" cx="370.2" cy="264.5" r="1.2"/>
						<circle class="st6" cx="376.5" cy="264.5" r="1.2"/>
						<circle class="st6" cx="382.8" cy="264.5" r="1.2"/>
						<circle class="st6" cx="389.1" cy="264.5" r="1.2"/>
						<circle class="st6" cx="395.4" cy="264.5" r="1.2"/>
						<circle class="st6" cx="401.7" cy="264.5" r="1.2"/>
						<circle class="st6" cx="408" cy="264.5" r="1.2"/>
						<circle class="st6" cx="414.3" cy="264.5" r="1.2"/>
						<circle class="st6" cx="420.6" cy="264.5" r="1.2"/>
						<circle class="st6" cx="426.9" cy="264.5" r="1.2"/>
					</g>
					<g>
						<circle class="st6" cx="366.9" cy="268.6" r="1.2"/>
						<circle class="st6" cx="373.2" cy="268.6" r="1.2"/>
						<circle class="st6" cx="379.5" cy="268.6" r="1.2"/>
						<circle class="st6" cx="385.8" cy="268.6" r="1.2"/>
						<circle class="st6" cx="392.1" cy="268.6" r="1.2"/>
						<circle class="st6" cx="398.4" cy="268.6" r="1.2"/>
						<circle class="st6" cx="404.7" cy="268.6" r="1.2"/>
						<circle class="st6" cx="411" cy="268.6" r="1.2"/>
						<circle class="st6" cx="417.3" cy="268.6" r="1.2"/>
						<circle class="st6" cx="423.6" cy="268.6" r="1.2"/>
					</g>
					<g>
						<circle class="st6" cx="370.2" cy="272.7" r="1.2"/>
						<circle class="st6" cx="376.5" cy="272.7" r="1.2"/>
						<circle class="st6" cx="382.8" cy="272.7" r="1.2"/>
						<circle class="st6" cx="389.1" cy="272.7" r="1.2"/>
						<circle class="st6" cx="395.4" cy="272.7" r="1.2"/>
						<circle class="st6" cx="401.7" cy="272.7" r="1.2"/>
						<circle class="st6" cx="408" cy="272.7" r="1.2"/>
						<circle class="st6" cx="414.3" cy="272.7" r="1.2"/>
						<circle class="st6" cx="420.6" cy="272.7" r="1.2"/>
						<circle class="st6" cx="426.9" cy="272.7" r="1.2"/>
					</g>
					<g>
						<circle class="st6" cx="366.9" cy="276.8" r="1.2"/>
						<circle class="st6" cx="373.2" cy="276.8" r="1.2"/>
						<circle class="st6" cx="379.5" cy="276.8" r="1.2"/>
						<circle class="st6" cx="385.8" cy="276.8" r="1.2"/>
						<circle class="st6" cx="392.1" cy="276.8" r="1.2"/>
						<circle class="st6" cx="398.4" cy="276.8" r="1.2"/>
						<circle class="st6" cx="404.7" cy="276.8" r="1.2"/>
						<circle class="st6" cx="411" cy="276.8" r="1.2"/>
						<circle class="st6" cx="417.3" cy="276.8" r="1.2"/>
						<circle class="st6" cx="423.6" cy="276.8" r="1.2"/>
					</g>
					<g>
						<circle class="st6" cx="370.2" cy="280.9" r="1.2"/>
						<circle class="st6" cx="376.5" cy="280.9" r="1.2"/>
						<circle class="st6" cx="382.8" cy="280.9" r="1.2"/>
						<circle class="st6" cx="389.1" cy="280.9" r="1.2"/>
						<circle class="st6" cx="395.4" cy="280.9" r="1.2"/>
						<circle class="st6" cx="401.7" cy="280.9" r="1.2"/>
						<circle class="st6" cx="408" cy="280.9" r="1.2"/>
						<circle class="st6" cx="414.3" cy="280.9" r="1.2"/>
						<circle class="st6" cx="420.6" cy="280.9" r="1.2"/>
						<circle class="st6" cx="426.9" cy="280.9" r="1.2"/>
					</g>
					<g>
						<circle class="st6" cx="366.9" cy="285" r="1.2"/>
						<circle class="st6" cx="373.2" cy="285" r="1.2"/>
						<circle class="st6" cx="379.5" cy="285" r="1.2"/>
						<circle class="st6" cx="385.8" cy="285" r="1.2"/>
						<circle class="st6" cx="392.1" cy="285" r="1.2"/>
						<circle class="st6" cx="398.4" cy="285" r="1.2"/>
						<circle class="st6" cx="404.7" cy="285" r="1.2"/>
						<circle class="st6" cx="411" cy="285" r="1.2"/>
						<circle class="st6" cx="417.3" cy="285" r="1.2"/>
						<circle class="st6" cx="423.6" cy="285" r="1.2"/>
					</g>
					<g>
						<circle class="st6" cx="370.2" cy="289.1" r="1.2"/>
						<circle class="st6" cx="376.5" cy="289.1" r="1.2"/>
						<circle class="st6" cx="382.8" cy="289.1" r="1.2"/>
						<circle class="st6" cx="389.1" cy="289.1" r="1.2"/>
						<circle class="st6" cx="395.4" cy="289.1" r="1.2"/>
						<circle class="st6" cx="401.7" cy="289.1" r="1.2"/>
						<circle class="st6" cx="408" cy="289.1" r="1.2"/>
						<circle class="st6" cx="414.3" cy="289.1" r="1.2"/>
						<circle class="st6" cx="420.6" cy="289.1" r="1.2"/>
						<circle class="st6" cx="426.9" cy="289.1" r="1.2"/>
					</g>
					<g>
						<circle class="st6" cx="366.9" cy="293.2" r="1.2"/>
						<circle class="st6" cx="373.2" cy="293.2" r="1.2"/>
						<circle class="st6" cx="379.5" cy="293.2" r="1.2"/>
						<circle class="st6" cx="385.8" cy="293.2" r="1.2"/>
						<circle class="st6" cx="392.1" cy="293.2" r="1.2"/>
						<circle class="st6" cx="398.4" cy="293.2" r="1.2"/>
						<circle class="st6" cx="404.7" cy="293.2" r="1.2"/>
						<circle class="st6" cx="411" cy="293.2" r="1.2"/>
						<circle class="st6" cx="417.3" cy="293.2" r="1.2"/>
						<circle class="st6" cx="423.6" cy="293.2" r="1.2"/>
					</g>
					<g>
						<circle class="st6" cx="370.2" cy="297.3" r="1.2"/>
						<circle class="st6" cx="376.5" cy="297.3" r="1.2"/>
						<circle class="st6" cx="382.8" cy="297.3" r="1.2"/>
						<circle class="st6" cx="389.1" cy="297.3" r="1.2"/>
						<circle class="st6" cx="395.4" cy="297.3" r="1.2"/>
						<circle class="st6" cx="401.7" cy="297.3" r="1.2"/>
						<circle class="st6" cx="408" cy="297.3" r="1.2"/>
						<circle class="st6" cx="414.3" cy="297.3" r="1.2"/>
						<circle class="st6" cx="420.6" cy="297.3" r="1.2"/>
						<circle class="st6" cx="426.9" cy="297.3" r="1.2"/>
					</g>
					<g>
						<circle class="st6" cx="366.9" cy="301.4" r="1.2"/>
						<circle class="st6" cx="373.2" cy="301.4" r="1.2"/>
						<circle class="st6" cx="379.5" cy="301.4" r="1.2"/>
						<circle class="st6" cx="385.8" cy="301.4" r="1.2"/>
						<circle class="st6" cx="392.1" cy="301.4" r="1.2"/>
						<circle class="st6" cx="398.4" cy="301.4" r="1.2"/>
						<circle class="st6" cx="404.7" cy="301.4" r="1.2"/>
						<circle class="st6" cx="411" cy="301.4" r="1.2"/>
						<circle class="st6" cx="417.3" cy="301.4" r="1.2"/>
						<circle class="st6" cx="423.6" cy="301.4" r="1.2"/>
					</g>
					<g>
						<circle class="st6" cx="370.2" cy="305.6" r="1.2"/>
						<circle class="st6" cx="376.5" cy="305.6" r="1.2"/>
						<circle class="st6" cx="382.8" cy="305.6" r="1.2"/>
						<circle class="st6" cx="389.1" cy="305.6" r="1.2"/>
						<circle class="st6" cx="395.4" cy="305.6" r="1.2"/>
						<circle class="st6" cx="401.7" cy="305.6" r="1.2"/>
						<circle class="st6" cx="408" cy="305.6" r="1.2"/>
						<circle class="st6" cx="414.3" cy="305.6" r="1.2"/>
						<circle class="st6" cx="420.6" cy="305.6" r="1.2"/>
						<circle class="st6" cx="426.9" cy="305.6" r="1.2"/>
					</g>
					<g>
						<circle class="st6" cx="366.9" cy="309.7" r="1.2"/>
						<circle class="st6" cx="373.2" cy="309.7" r="1.2"/>
						<circle class="st6" cx="379.5" cy="309.7" r="1.2"/>
						<circle class="st6" cx="385.8" cy="309.7" r="1.2"/>
						<circle class="st6" cx="392.1" cy="309.7" r="1.2"/>
						<circle class="st6" cx="398.4" cy="309.7" r="1.2"/>
						<circle class="st6" cx="404.7" cy="309.7" r="1.2"/>
						<circle class="st6" cx="411" cy="309.7" r="1.2"/>
						<circle class="st6" cx="417.3" cy="309.7" r="1.2"/>
						<circle class="st6" cx="423.6" cy="309.7" r="1.2"/>
					</g>
				</g>
				<g>
					<g>
						<circle class="st6" cx="436.8" cy="313.2" r="1.2"/>
						<circle class="st6" cx="443.1" cy="313.2" r="1.2"/>
						<circle class="st6" cx="449.4" cy="313.2" r="1.2"/>
						<circle class="st6" cx="455.7" cy="313.2" r="1.2"/>
						<circle class="st6" cx="462" cy="313.2" r="1.2"/>
						<circle class="st6" cx="468.3" cy="313.2" r="1.2"/>
						<circle class="st6" cx="474.6" cy="313.2" r="1.2"/>
						<circle class="st6" cx="480.9" cy="313.2" r="1.2"/>
						<circle class="st6" cx="487.2" cy="313.2" r="1.2"/>
						<circle class="st6" cx="493.5" cy="313.2" r="1.2"/>
					</g>
					<g>
						<circle class="st6" cx="433.5" cy="317.3" r="1.2"/>
						<circle class="st6" cx="439.8" cy="317.3" r="1.2"/>
						<circle class="st6" cx="446.1" cy="317.3" r="1.2"/>
						<circle class="st6" cx="452.4" cy="317.3" r="1.2"/>
						<circle class="st6" cx="458.7" cy="317.3" r="1.2"/>
						<circle class="st6" cx="465" cy="317.3" r="1.2"/>
						<circle class="st6" cx="471.3" cy="317.3" r="1.2"/>
						<circle class="st6" cx="477.6" cy="317.3" r="1.2"/>
						<circle class="st6" cx="483.9" cy="317.3" r="1.2"/>
						<circle class="st6" cx="490.2" cy="317.3" r="1.2"/>
					</g>
					<g>
						<circle class="st6" cx="436.8" cy="321.5" r="1.2"/>
						<circle class="st6" cx="443.1" cy="321.5" r="1.2"/>
						<circle class="st6" cx="449.4" cy="321.5" r="1.2"/>
						<circle class="st6" cx="455.7" cy="321.5" r="1.2"/>
						<circle class="st6" cx="462" cy="321.5" r="1.2"/>
						<circle class="st6" cx="468.3" cy="321.5" r="1.2"/>
						<circle class="st6" cx="474.6" cy="321.5" r="1.2"/>
						<circle class="st6" cx="480.9" cy="321.5" r="1.2"/>
						<circle class="st6" cx="487.2" cy="321.5" r="1.2"/>
						<circle class="st6" cx="493.5" cy="321.5" r="1.2"/>
					</g>
					<g>
						<circle class="st6" cx="433.5" cy="325.6" r="1.2"/>
						<circle class="st6" cx="439.8" cy="325.6" r="1.2"/>
						<circle class="st6" cx="446.1" cy="325.6" r="1.2"/>
						<circle class="st6" cx="452.4" cy="325.6" r="1.2"/>
						<circle class="st6" cx="458.7" cy="325.6" r="1.2"/>
						<circle class="st6" cx="465" cy="325.6" r="1.2"/>
						<circle class="st6" cx="471.3" cy="325.6" r="1.2"/>
						<circle class="st6" cx="477.6" cy="325.6" r="1.2"/>
						<circle class="st6" cx="483.9" cy="325.6" r="1.2"/>
						<circle class="st6" cx="490.2" cy="325.6" r="1.2"/>
					</g>
					<g>
						<circle class="st6" cx="436.8" cy="329.7" r="1.2"/>
						<circle class="st6" cx="443.1" cy="329.7" r="1.2"/>
						<circle class="st6" cx="449.4" cy="329.7" r="1.2"/>
						<circle class="st6" cx="455.7" cy="329.7" r="1.2"/>
						<circle class="st6" cx="462" cy="329.7" r="1.2"/>
						<circle class="st6" cx="468.3" cy="329.7" r="1.2"/>
						<circle class="st6" cx="474.6" cy="329.7" r="1.2"/>
						<circle class="st6" cx="480.9" cy="329.7" r="1.2"/>
						<circle class="st6" cx="487.2" cy="329.7" r="1.2"/>
						<circle class="st6" cx="493.5" cy="329.7" r="1.2"/>
					</g>
					<g>
						<circle class="st6" cx="433.5" cy="333.8" r="1.2"/>
						<circle class="st6" cx="439.8" cy="333.8" r="1.2"/>
						<circle class="st6" cx="446.1" cy="333.8" r="1.2"/>
						<circle class="st6" cx="452.4" cy="333.8" r="1.2"/>
						<circle class="st6" cx="458.7" cy="333.8" r="1.2"/>
						<circle class="st6" cx="465" cy="333.8" r="1.2"/>
						<circle class="st6" cx="471.3" cy="333.8" r="1.2"/>
						<circle class="st6" cx="477.6" cy="333.8" r="1.2"/>
						<circle class="st6" cx="483.9" cy="333.8" r="1.2"/>
						<circle class="st6" cx="490.2" cy="333.8" r="1.2"/>
					</g>
				</g>
				<g>
					<g>
						<circle class="st6" cx="503.4" cy="313.2" r="1.2"/>
						<circle class="st6" cx="509.7" cy="313.2" r="1.2"/>
						<circle class="st6" cx="516" cy="313.2" r="1.2"/>
						<circle class="st6" cx="522.3" cy="313.2" r="1.2"/>
						<circle class="st6" cx="528.6" cy="313.2" r="1.2"/>
						<circle class="st6" cx="534.9" cy="313.2" r="1.2"/>
						<circle class="st6" cx="541.2" cy="313.2" r="1.2"/>
						<circle class="st6" cx="547.5" cy="313.2" r="1.2"/>
						<circle class="st6" cx="553.8" cy="313.2" r="1.2"/>
						<circle class="st6" cx="560.1" cy="313.2" r="1.2"/>
					</g>
					<g>
						<circle class="st6" cx="500.1" cy="317.3" r="1.2"/>
						<circle class="st6" cx="506.4" cy="317.3" r="1.2"/>
						<circle class="st6" cx="512.7" cy="317.3" r="1.2"/>
						<circle class="st6" cx="519" cy="317.3" r="1.2"/>
						<circle class="st6" cx="525.3" cy="317.3" r="1.2"/>
						<circle class="st6" cx="531.6" cy="317.3" r="1.2"/>
						<circle class="st6" cx="537.9" cy="317.3" r="1.2"/>
						<circle class="st6" cx="544.2" cy="317.3" r="1.2"/>
						<circle class="st6" cx="550.5" cy="317.3" r="1.2"/>
						<circle class="st6" cx="556.8" cy="317.3" r="1.2"/>
					</g>
					<g>
						<circle class="st6" cx="503.4" cy="321.5" r="1.2"/>
						<circle class="st6" cx="509.7" cy="321.5" r="1.2"/>
						<circle class="st6" cx="516" cy="321.5" r="1.2"/>
						<circle class="st6" cx="522.3" cy="321.5" r="1.2"/>
						<circle class="st6" cx="528.6" cy="321.5" r="1.2"/>
						<circle class="st6" cx="534.9" cy="321.5" r="1.2"/>
						<circle class="st6" cx="541.2" cy="321.5" r="1.2"/>
						<circle class="st6" cx="547.5" cy="321.5" r="1.2"/>
						<circle class="st6" cx="553.8" cy="321.5" r="1.2"/>
						<circle class="st6" cx="560.1" cy="321.5" r="1.2"/>
					</g>
					<g>
						<circle class="st6" cx="500.1" cy="325.6" r="1.2"/>
						<circle class="st6" cx="506.4" cy="325.6" r="1.2"/>
						<circle class="st6" cx="512.7" cy="325.6" r="1.2"/>
						<circle class="st6" cx="519" cy="325.6" r="1.2"/>
						<circle class="st6" cx="525.3" cy="325.6" r="1.2"/>
						<circle class="st6" cx="531.6" cy="325.6" r="1.2"/>
						<circle class="st6" cx="537.9" cy="325.6" r="1.2"/>
						<circle class="st6" cx="544.2" cy="325.6" r="1.2"/>
						<circle class="st6" cx="550.5" cy="325.6" r="1.2"/>
						<circle class="st6" cx="556.8" cy="325.6" r="1.2"/>
					</g>
					<g>
						<circle class="st6" cx="503.4" cy="329.7" r="1.2"/>
						<circle class="st6" cx="509.7" cy="329.7" r="1.2"/>
						<circle class="st6" cx="516" cy="329.7" r="1.2"/>
						<circle class="st6" cx="522.3" cy="329.7" r="1.2"/>
						<circle class="st6" cx="528.6" cy="329.7" r="1.2"/>
						<circle class="st6" cx="534.9" cy="329.7" r="1.2"/>
						<circle class="st6" cx="541.2" cy="329.7" r="1.2"/>
						<circle class="st6" cx="547.5" cy="329.7" r="1.2"/>
						<circle class="st6" cx="553.8" cy="329.7" r="1.2"/>
						<circle class="st6" cx="560.1" cy="329.7" r="1.2"/>
					</g>
					<g>
						<circle class="st6" cx="500.1" cy="333.8" r="1.2"/>
						<circle class="st6" cx="506.4" cy="333.8" r="1.2"/>
						<circle class="st6" cx="512.7" cy="333.8" r="1.2"/>
						<circle class="st6" cx="519" cy="333.8" r="1.2"/>
						<circle class="st6" cx="525.3" cy="333.8" r="1.2"/>
						<circle class="st6" cx="531.6" cy="333.8" r="1.2"/>
						<circle class="st6" cx="537.9" cy="333.8" r="1.2"/>
						<circle class="st6" cx="544.2" cy="333.8" r="1.2"/>
						<circle class="st6" cx="550.5" cy="333.8" r="1.2"/>
						<circle class="st6" cx="556.8" cy="333.8" r="1.2"/>
					</g>
				</g>
				<g>
					<g>
						<circle class="st6" cx="370.2" cy="313.2" r="1.2"/>
						<circle class="st6" cx="376.5" cy="313.2" r="1.2"/>
						<circle class="st6" cx="382.8" cy="313.2" r="1.2"/>
						<circle class="st6" cx="389.1" cy="313.2" r="1.2"/>
						<circle class="st6" cx="395.4" cy="313.2" r="1.2"/>
						<circle class="st6" cx="401.7" cy="313.2" r="1.2"/>
						<circle class="st6" cx="408" cy="313.2" r="1.2"/>
						<circle class="st6" cx="414.3" cy="313.2" r="1.2"/>
						<circle class="st6" cx="420.6" cy="313.2" r="1.2"/>
						<circle class="st6" cx="426.9" cy="313.2" r="1.2"/>
					</g>
					<g>
						<circle class="st6" cx="366.9" cy="317.3" r="1.2"/>
						<circle class="st6" cx="373.2" cy="317.3" r="1.2"/>
						<circle class="st6" cx="379.5" cy="317.3" r="1.2"/>
						<circle class="st6" cx="385.8" cy="317.3" r="1.2"/>
						<circle class="st6" cx="392.1" cy="317.3" r="1.2"/>
						<circle class="st6" cx="398.4" cy="317.3" r="1.2"/>
						<circle class="st6" cx="404.7" cy="317.3" r="1.2"/>
						<circle class="st6" cx="411" cy="317.3" r="1.2"/>
						<circle class="st6" cx="417.3" cy="317.3" r="1.2"/>
						<circle class="st6" cx="423.6" cy="317.3" r="1.2"/>
					</g>
					<g>
						<circle class="st6" cx="370.2" cy="321.5" r="1.2"/>
						<circle class="st6" cx="376.5" cy="321.5" r="1.2"/>
						<circle class="st6" cx="382.8" cy="321.5" r="1.2"/>
						<circle class="st6" cx="389.1" cy="321.5" r="1.2"/>
						<circle class="st6" cx="395.4" cy="321.5" r="1.2"/>
						<circle class="st6" cx="401.7" cy="321.5" r="1.2"/>
						<circle class="st6" cx="408" cy="321.5" r="1.2"/>
						<circle class="st6" cx="414.3" cy="321.5" r="1.2"/>
						<circle class="st6" cx="420.6" cy="321.5" r="1.2"/>
						<circle class="st6" cx="426.9" cy="321.5" r="1.2"/>
					</g>
					<g>
						<circle class="st6" cx="366.9" cy="325.6" r="1.2"/>
						<circle class="st6" cx="373.2" cy="325.6" r="1.2"/>
						<circle class="st6" cx="379.5" cy="325.6" r="1.2"/>
						<circle class="st6" cx="385.8" cy="325.6" r="1.2"/>
						<circle class="st6" cx="392.1" cy="325.6" r="1.2"/>
						<circle class="st6" cx="398.4" cy="325.6" r="1.2"/>
						<circle class="st6" cx="404.7" cy="325.6" r="1.2"/>
						<circle class="st6" cx="411" cy="325.6" r="1.2"/>
						<circle class="st6" cx="417.3" cy="325.6" r="1.2"/>
						<circle class="st6" cx="423.6" cy="325.6" r="1.2"/>
					</g>
					<g>
						<circle class="st6" cx="370.2" cy="329.7" r="1.2"/>
						<circle class="st6" cx="376.5" cy="329.7" r="1.2"/>
						<circle class="st6" cx="382.8" cy="329.7" r="1.2"/>
						<circle class="st6" cx="389.1" cy="329.7" r="1.2"/>
						<circle class="st6" cx="395.4" cy="329.7" r="1.2"/>
						<circle class="st6" cx="401.7" cy="329.7" r="1.2"/>
						<circle class="st6" cx="408" cy="329.7" r="1.2"/>
						<circle class="st6" cx="414.3" cy="329.7" r="1.2"/>
						<circle class="st6" cx="420.6" cy="329.7" r="1.2"/>
						<circle class="st6" cx="426.9" cy="329.7" r="1.2"/>
					</g>
					<g>
						<circle class="st6" cx="366.9" cy="333.8" r="1.2"/>
						<circle class="st6" cx="373.2" cy="333.8" r="1.2"/>
						<circle class="st6" cx="379.5" cy="333.8" r="1.2"/>
						<circle class="st6" cx="385.8" cy="333.8" r="1.2"/>
						<circle class="st6" cx="392.1" cy="333.8" r="1.2"/>
						<circle class="st6" cx="398.4" cy="333.8" r="1.2"/>
						<circle class="st6" cx="404.7" cy="333.8" r="1.2"/>
						<circle class="st6" cx="411" cy="333.8" r="1.2"/>
						<circle class="st6" cx="417.3" cy="333.8" r="1.2"/>
						<circle class="st6" cx="423.6" cy="333.8" r="1.2"/>
					</g>
				</g>
			</g>
		</g>
	</g>
</g>
</svg>
