<?xml version="1.0" encoding="utf-8"?>
<!-- Generator: Adobe Illustrator 23.0.2, SVG Export Plug-In . SVG Version: 6.00 Build 0)  -->
<svg version="1.1" id="Layer_1" xmlns="http://www.w3.org/2000/svg" xmlns:xlink="http://www.w3.org/1999/xlink" x="0px" y="0px"
	 viewBox="0 0 640 400" style="enable-background:new 0 0 640 400;" xml:space="preserve">
<style type="text/css">
	.st0{fill:none;stroke:#84D3AC;stroke-width:1.4173;stroke-linecap:round;stroke-miterlimit:10;}
	.st1{fill:none;stroke:#84D3AC;stroke-width:1.2077;stroke-miterlimit:10;}
	.st2{fill:none;stroke:#84D3AC;stroke-width:2;stroke-miterlimit:10;}
	.st3{fill:none;stroke:#84D3AC;stroke-miterlimit:10;}
	.st4{fill:none;stroke:#84D3AC;stroke-width:1.2149;stroke-miterlimit:10;}
	.st5{clip-path:url(#SVGID_2_);}
</style>
<g>
	<line class="st0" x1="47.5" y1="354.9" x2="592.5" y2="354.9"/>
	<g>
		<g>
			<ellipse class="st1" cx="314.8" cy="88.1" rx="46.8" ry="30.3"/>
			<ellipse class="st2" cx="314.8" cy="81.9" rx="51" ry="36.5"/>
			<g>
				<path class="st3" d="M315,64.7c-14.3,0-26.4,3.8-34.1,10.6l68.5,0.3C341.5,69,329,64.7,315,64.7z"/>
				<path class="st2" d="M360.4,86.8c-0.6-3.3-6-11.2-6-11.2l-5.1,0l-69,0.3l-4.7,0c-3,3.9-6.6,11.2-6.6,11.2l3.9,0l84.1-0.3
					L360.4,86.8z"/>
			</g>
			<polyline class="st2" points="263.8,81.9 263.8,346.8 365.2,346.8 365.8,84.5 			"/>
			<polyline class="st2" points="264.8,346.9 268,353.9 359.1,353.9 363.8,346.9 			"/>
			<line class="st3" x1="263.2" y1="246.5" x2="365.2" y2="246.5"/>
			<line class="st3" x1="263.2" y1="339.5" x2="365.2" y2="339.5"/>
			<path class="st4" d="M314.8,98.1c7.4,0,13.4-4,17.5-10.7l-35.3-0.2C301,93.8,307.5,98.1,314.8,98.1z"/>
		</g>
		<g>
			<defs>
				<rect id="SVGID_1_" x="263.8" y="246.9" width="101" height="93"/>
			</defs>
			<clipPath id="SVGID_2_">
				<use xlink:href="#SVGID_1_"  style="overflow:visible;"/>
			</clipPath>
			<g class="st5">
				<g>
					<g>
						<circle class="st3" cx="284.8" cy="252.1" r="1.2"/>
						<circle class="st3" cx="291.1" cy="252.1" r="1.2"/>
						<circle class="st3" cx="297.4" cy="252.1" r="1.2"/>
						<circle class="st3" cx="303.7" cy="252.1" r="1.2"/>
						<circle class="st3" cx="310" cy="252.1" r="1.2"/>
						<circle class="st3" cx="316.3" cy="252.1" r="1.2"/>
						<circle class="st3" cx="322.6" cy="252.1" r="1.2"/>
						<circle class="st3" cx="328.9" cy="252.1" r="1.2"/>
						<circle class="st3" cx="335.2" cy="252.1" r="1.2"/>
						<circle class="st3" cx="341.5" cy="252.1" r="1.2"/>
					</g>
					<g>
						<circle class="st3" cx="288" cy="256.2" r="1.2"/>
						<circle class="st3" cx="294.3" cy="256.2" r="1.2"/>
						<circle class="st3" cx="300.6" cy="256.2" r="1.2"/>
						<circle class="st3" cx="307" cy="256.2" r="1.2"/>
						<circle class="st3" cx="313.3" cy="256.2" r="1.2"/>
						<circle class="st3" cx="319.6" cy="256.2" r="1.2"/>
						<circle class="st3" cx="325.9" cy="256.2" r="1.2"/>
						<circle class="st3" cx="332.2" cy="256.2" r="1.2"/>
						<circle class="st3" cx="338.5" cy="256.2" r="1.2"/>
						<circle class="st3" cx="344.8" cy="256.2" r="1.2"/>
					</g>
					<g>
						<circle class="st3" cx="284.8" cy="260.3" r="1.2"/>
						<circle class="st3" cx="291.1" cy="260.3" r="1.2"/>
						<circle class="st3" cx="297.4" cy="260.3" r="1.2"/>
						<circle class="st3" cx="303.7" cy="260.3" r="1.2"/>
						<circle class="st3" cx="310" cy="260.3" r="1.2"/>
						<circle class="st3" cx="316.3" cy="260.3" r="1.2"/>
						<circle class="st3" cx="322.6" cy="260.3" r="1.2"/>
						<circle class="st3" cx="328.9" cy="260.3" r="1.2"/>
						<circle class="st3" cx="335.2" cy="260.3" r="1.2"/>
						<circle class="st3" cx="341.5" cy="260.3" r="1.2"/>
					</g>
					<g>
						<circle class="st3" cx="288" cy="264.5" r="1.2"/>
						<circle class="st3" cx="294.3" cy="264.5" r="1.2"/>
						<circle class="st3" cx="300.6" cy="264.5" r="1.2"/>
						<circle class="st3" cx="307" cy="264.5" r="1.2"/>
						<circle class="st3" cx="313.3" cy="264.5" r="1.2"/>
						<circle class="st3" cx="319.6" cy="264.5" r="1.2"/>
						<circle class="st3" cx="325.9" cy="264.5" r="1.2"/>
						<circle class="st3" cx="332.2" cy="264.5" r="1.2"/>
						<circle class="st3" cx="338.5" cy="264.5" r="1.2"/>
						<circle class="st3" cx="344.8" cy="264.5" r="1.2"/>
					</g>
					<g>
						<circle class="st3" cx="284.8" cy="268.6" r="1.2"/>
						<circle class="st3" cx="291.1" cy="268.6" r="1.2"/>
						<circle class="st3" cx="297.4" cy="268.6" r="1.2"/>
						<circle class="st3" cx="303.7" cy="268.6" r="1.2"/>
						<circle class="st3" cx="310" cy="268.6" r="1.2"/>
						<circle class="st3" cx="316.3" cy="268.6" r="1.2"/>
						<circle class="st3" cx="322.6" cy="268.6" r="1.2"/>
						<circle class="st3" cx="328.9" cy="268.6" r="1.2"/>
						<circle class="st3" cx="335.2" cy="268.6" r="1.2"/>
						<circle class="st3" cx="341.5" cy="268.6" r="1.2"/>
					</g>
					<g>
						<circle class="st3" cx="288" cy="272.7" r="1.2"/>
						<circle class="st3" cx="294.3" cy="272.7" r="1.2"/>
						<circle class="st3" cx="300.6" cy="272.7" r="1.2"/>
						<circle class="st3" cx="307" cy="272.7" r="1.2"/>
						<circle class="st3" cx="313.3" cy="272.7" r="1.2"/>
						<circle class="st3" cx="319.6" cy="272.7" r="1.2"/>
						<circle class="st3" cx="325.9" cy="272.7" r="1.2"/>
						<circle class="st3" cx="332.2" cy="272.7" r="1.2"/>
						<circle class="st3" cx="338.5" cy="272.7" r="1.2"/>
						<circle class="st3" cx="344.8" cy="272.7" r="1.2"/>
					</g>
					<g>
						<circle class="st3" cx="284.8" cy="276.8" r="1.2"/>
						<circle class="st3" cx="291.1" cy="276.8" r="1.2"/>
						<circle class="st3" cx="297.4" cy="276.8" r="1.2"/>
						<circle class="st3" cx="303.7" cy="276.8" r="1.2"/>
						<circle class="st3" cx="310" cy="276.8" r="1.2"/>
						<circle class="st3" cx="316.3" cy="276.8" r="1.2"/>
						<circle class="st3" cx="322.6" cy="276.8" r="1.2"/>
						<circle class="st3" cx="328.9" cy="276.8" r="1.2"/>
						<circle class="st3" cx="335.2" cy="276.8" r="1.2"/>
						<circle class="st3" cx="341.5" cy="276.8" r="1.2"/>
					</g>
					<g>
						<circle class="st3" cx="288" cy="280.9" r="1.2"/>
						<circle class="st3" cx="294.3" cy="280.9" r="1.2"/>
						<circle class="st3" cx="300.6" cy="280.9" r="1.2"/>
						<circle class="st3" cx="307" cy="280.9" r="1.2"/>
						<circle class="st3" cx="313.3" cy="280.9" r="1.2"/>
						<circle class="st3" cx="319.6" cy="280.9" r="1.2"/>
						<circle class="st3" cx="325.9" cy="280.9" r="1.2"/>
						<circle class="st3" cx="332.2" cy="280.9" r="1.2"/>
						<circle class="st3" cx="338.5" cy="280.9" r="1.2"/>
						<circle class="st3" cx="344.8" cy="280.9" r="1.2"/>
					</g>
					<g>
						<circle class="st3" cx="284.8" cy="285" r="1.2"/>
						<circle class="st3" cx="291.1" cy="285" r="1.2"/>
						<circle class="st3" cx="297.4" cy="285" r="1.2"/>
						<circle class="st3" cx="303.7" cy="285" r="1.2"/>
						<circle class="st3" cx="310" cy="285" r="1.2"/>
						<circle class="st3" cx="316.3" cy="285" r="1.2"/>
						<circle class="st3" cx="322.6" cy="285" r="1.2"/>
						<circle class="st3" cx="328.9" cy="285" r="1.2"/>
						<circle class="st3" cx="335.2" cy="285" r="1.2"/>
						<circle class="st3" cx="341.5" cy="285" r="1.2"/>
					</g>
					<g>
						<circle class="st3" cx="288" cy="289.1" r="1.2"/>
						<circle class="st3" cx="294.3" cy="289.1" r="1.2"/>
						<circle class="st3" cx="300.6" cy="289.1" r="1.2"/>
						<circle class="st3" cx="307" cy="289.1" r="1.2"/>
						<circle class="st3" cx="313.3" cy="289.1" r="1.2"/>
						<circle class="st3" cx="319.6" cy="289.1" r="1.2"/>
						<circle class="st3" cx="325.9" cy="289.1" r="1.2"/>
						<circle class="st3" cx="332.2" cy="289.1" r="1.2"/>
						<circle class="st3" cx="338.5" cy="289.1" r="1.2"/>
						<circle class="st3" cx="344.8" cy="289.1" r="1.2"/>
					</g>
					<g>
						<circle class="st3" cx="284.8" cy="293.2" r="1.2"/>
						<circle class="st3" cx="291.1" cy="293.2" r="1.2"/>
						<circle class="st3" cx="297.4" cy="293.2" r="1.2"/>
						<circle class="st3" cx="303.7" cy="293.2" r="1.2"/>
						<circle class="st3" cx="310" cy="293.2" r="1.2"/>
						<circle class="st3" cx="316.3" cy="293.2" r="1.2"/>
						<circle class="st3" cx="322.6" cy="293.2" r="1.2"/>
						<circle class="st3" cx="328.9" cy="293.2" r="1.2"/>
						<circle class="st3" cx="335.2" cy="293.2" r="1.2"/>
						<circle class="st3" cx="341.5" cy="293.2" r="1.2"/>
					</g>
					<g>
						<circle class="st3" cx="288" cy="297.3" r="1.2"/>
						<circle class="st3" cx="294.3" cy="297.3" r="1.2"/>
						<circle class="st3" cx="300.6" cy="297.3" r="1.2"/>
						<circle class="st3" cx="307" cy="297.3" r="1.2"/>
						<circle class="st3" cx="313.3" cy="297.3" r="1.2"/>
						<circle class="st3" cx="319.6" cy="297.3" r="1.2"/>
						<circle class="st3" cx="325.9" cy="297.3" r="1.2"/>
						<circle class="st3" cx="332.2" cy="297.3" r="1.2"/>
						<circle class="st3" cx="338.5" cy="297.3" r="1.2"/>
						<circle class="st3" cx="344.8" cy="297.3" r="1.2"/>
					</g>
					<g>
						<circle class="st3" cx="284.8" cy="301.4" r="1.2"/>
						<circle class="st3" cx="291.1" cy="301.4" r="1.2"/>
						<circle class="st3" cx="297.4" cy="301.4" r="1.2"/>
						<circle class="st3" cx="303.7" cy="301.4" r="1.2"/>
						<circle class="st3" cx="310" cy="301.4" r="1.2"/>
						<circle class="st3" cx="316.3" cy="301.4" r="1.2"/>
						<circle class="st3" cx="322.6" cy="301.4" r="1.2"/>
						<circle class="st3" cx="328.9" cy="301.4" r="1.2"/>
						<circle class="st3" cx="335.2" cy="301.4" r="1.2"/>
						<circle class="st3" cx="341.5" cy="301.4" r="1.2"/>
					</g>
					<g>
						<circle class="st3" cx="288" cy="305.6" r="1.2"/>
						<circle class="st3" cx="294.3" cy="305.6" r="1.2"/>
						<circle class="st3" cx="300.6" cy="305.6" r="1.2"/>
						<circle class="st3" cx="307" cy="305.6" r="1.2"/>
						<circle class="st3" cx="313.3" cy="305.6" r="1.2"/>
						<circle class="st3" cx="319.6" cy="305.6" r="1.2"/>
						<circle class="st3" cx="325.9" cy="305.6" r="1.2"/>
						<circle class="st3" cx="332.2" cy="305.6" r="1.2"/>
						<circle class="st3" cx="338.5" cy="305.6" r="1.2"/>
						<circle class="st3" cx="344.8" cy="305.6" r="1.2"/>
					</g>
					<g>
						<circle class="st3" cx="284.8" cy="309.7" r="1.2"/>
						<circle class="st3" cx="291.1" cy="309.7" r="1.2"/>
						<circle class="st3" cx="297.4" cy="309.7" r="1.2"/>
						<circle class="st3" cx="303.7" cy="309.7" r="1.2"/>
						<circle class="st3" cx="310" cy="309.7" r="1.2"/>
						<circle class="st3" cx="316.3" cy="309.7" r="1.2"/>
						<circle class="st3" cx="322.6" cy="309.7" r="1.2"/>
						<circle class="st3" cx="328.9" cy="309.7" r="1.2"/>
						<circle class="st3" cx="335.2" cy="309.7" r="1.2"/>
						<circle class="st3" cx="341.5" cy="309.7" r="1.2"/>
					</g>
				</g>
				<g>
					<g>
						<circle class="st3" cx="351.3" cy="252.1" r="1.2"/>
						<circle class="st3" cx="357.6" cy="252.1" r="1.2"/>
						<circle class="st3" cx="363.9" cy="252.1" r="1.2"/>
						<circle class="st3" cx="370.2" cy="252.1" r="1.2"/>
						<circle class="st3" cx="376.5" cy="252.1" r="1.2"/>
						<circle class="st3" cx="382.8" cy="252.1" r="1.2"/>
						<circle class="st3" cx="389.1" cy="252.1" r="1.2"/>
						<circle class="st3" cx="395.4" cy="252.1" r="1.2"/>
						<circle class="st3" cx="401.7" cy="252.1" r="1.2"/>
						<circle class="st3" cx="408" cy="252.1" r="1.2"/>
					</g>
					<g>
						<circle class="st3" cx="354.6" cy="256.2" r="1.2"/>
						<circle class="st3" cx="360.9" cy="256.2" r="1.2"/>
						<circle class="st3" cx="367.2" cy="256.2" r="1.2"/>
						<circle class="st3" cx="373.5" cy="256.2" r="1.2"/>
						<circle class="st3" cx="379.8" cy="256.2" r="1.2"/>
						<circle class="st3" cx="386.1" cy="256.2" r="1.2"/>
						<circle class="st3" cx="392.4" cy="256.2" r="1.2"/>
						<circle class="st3" cx="398.7" cy="256.2" r="1.2"/>
						<circle class="st3" cx="405" cy="256.2" r="1.2"/>
						<circle class="st3" cx="411.3" cy="256.2" r="1.2"/>
					</g>
					<g>
						<circle class="st3" cx="351.3" cy="260.3" r="1.2"/>
						<circle class="st3" cx="357.6" cy="260.3" r="1.2"/>
						<circle class="st3" cx="363.9" cy="260.3" r="1.2"/>
						<circle class="st3" cx="370.2" cy="260.3" r="1.2"/>
						<circle class="st3" cx="376.5" cy="260.3" r="1.2"/>
						<circle class="st3" cx="382.8" cy="260.3" r="1.2"/>
						<circle class="st3" cx="389.1" cy="260.3" r="1.2"/>
						<circle class="st3" cx="395.4" cy="260.3" r="1.2"/>
						<circle class="st3" cx="401.7" cy="260.3" r="1.2"/>
						<circle class="st3" cx="408" cy="260.3" r="1.2"/>
					</g>
					<g>
						<circle class="st3" cx="354.6" cy="264.5" r="1.2"/>
						<circle class="st3" cx="360.9" cy="264.5" r="1.2"/>
						<circle class="st3" cx="367.2" cy="264.5" r="1.2"/>
						<circle class="st3" cx="373.5" cy="264.5" r="1.2"/>
						<circle class="st3" cx="379.8" cy="264.5" r="1.2"/>
						<circle class="st3" cx="386.1" cy="264.5" r="1.2"/>
						<circle class="st3" cx="392.4" cy="264.5" r="1.2"/>
						<circle class="st3" cx="398.7" cy="264.5" r="1.2"/>
						<circle class="st3" cx="405" cy="264.5" r="1.2"/>
						<circle class="st3" cx="411.3" cy="264.5" r="1.2"/>
					</g>
					<g>
						<circle class="st3" cx="351.3" cy="268.6" r="1.2"/>
						<circle class="st3" cx="357.6" cy="268.6" r="1.2"/>
						<circle class="st3" cx="363.9" cy="268.6" r="1.2"/>
						<circle class="st3" cx="370.2" cy="268.6" r="1.2"/>
						<circle class="st3" cx="376.5" cy="268.6" r="1.2"/>
						<circle class="st3" cx="382.8" cy="268.6" r="1.2"/>
						<circle class="st3" cx="389.1" cy="268.6" r="1.2"/>
						<circle class="st3" cx="395.4" cy="268.6" r="1.2"/>
						<circle class="st3" cx="401.7" cy="268.6" r="1.2"/>
						<circle class="st3" cx="408" cy="268.6" r="1.2"/>
					</g>
					<g>
						<circle class="st3" cx="354.6" cy="272.7" r="1.2"/>
						<circle class="st3" cx="360.9" cy="272.7" r="1.2"/>
						<circle class="st3" cx="367.2" cy="272.7" r="1.2"/>
						<circle class="st3" cx="373.5" cy="272.7" r="1.2"/>
						<circle class="st3" cx="379.8" cy="272.7" r="1.2"/>
						<circle class="st3" cx="386.1" cy="272.7" r="1.2"/>
						<circle class="st3" cx="392.4" cy="272.7" r="1.2"/>
						<circle class="st3" cx="398.7" cy="272.7" r="1.2"/>
						<circle class="st3" cx="405" cy="272.7" r="1.2"/>
						<circle class="st3" cx="411.3" cy="272.7" r="1.2"/>
					</g>
					<g>
						<circle class="st3" cx="351.3" cy="276.8" r="1.2"/>
						<circle class="st3" cx="357.6" cy="276.8" r="1.2"/>
						<circle class="st3" cx="363.9" cy="276.8" r="1.2"/>
						<circle class="st3" cx="370.2" cy="276.8" r="1.2"/>
						<circle class="st3" cx="376.5" cy="276.8" r="1.2"/>
						<circle class="st3" cx="382.8" cy="276.8" r="1.2"/>
						<circle class="st3" cx="389.1" cy="276.8" r="1.2"/>
						<circle class="st3" cx="395.4" cy="276.8" r="1.2"/>
						<circle class="st3" cx="401.7" cy="276.8" r="1.2"/>
						<circle class="st3" cx="408" cy="276.8" r="1.2"/>
					</g>
					<g>
						<circle class="st3" cx="354.6" cy="280.9" r="1.2"/>
						<circle class="st3" cx="360.9" cy="280.9" r="1.2"/>
						<circle class="st3" cx="367.2" cy="280.9" r="1.2"/>
						<circle class="st3" cx="373.5" cy="280.9" r="1.2"/>
						<circle class="st3" cx="379.8" cy="280.9" r="1.2"/>
						<circle class="st3" cx="386.1" cy="280.9" r="1.2"/>
						<circle class="st3" cx="392.4" cy="280.9" r="1.2"/>
						<circle class="st3" cx="398.7" cy="280.9" r="1.2"/>
						<circle class="st3" cx="405" cy="280.9" r="1.2"/>
						<circle class="st3" cx="411.3" cy="280.9" r="1.2"/>
					</g>
					<g>
						<circle class="st3" cx="351.3" cy="285" r="1.2"/>
						<circle class="st3" cx="357.6" cy="285" r="1.2"/>
						<circle class="st3" cx="363.9" cy="285" r="1.2"/>
						<circle class="st3" cx="370.2" cy="285" r="1.2"/>
						<circle class="st3" cx="376.5" cy="285" r="1.2"/>
						<circle class="st3" cx="382.8" cy="285" r="1.2"/>
						<circle class="st3" cx="389.1" cy="285" r="1.2"/>
						<circle class="st3" cx="395.4" cy="285" r="1.2"/>
						<circle class="st3" cx="401.7" cy="285" r="1.2"/>
						<circle class="st3" cx="408" cy="285" r="1.2"/>
					</g>
					<g>
						<circle class="st3" cx="354.6" cy="289.1" r="1.2"/>
						<circle class="st3" cx="360.9" cy="289.1" r="1.2"/>
						<circle class="st3" cx="367.2" cy="289.1" r="1.2"/>
						<circle class="st3" cx="373.5" cy="289.1" r="1.2"/>
						<circle class="st3" cx="379.8" cy="289.1" r="1.2"/>
						<circle class="st3" cx="386.1" cy="289.1" r="1.2"/>
						<circle class="st3" cx="392.4" cy="289.1" r="1.2"/>
						<circle class="st3" cx="398.7" cy="289.1" r="1.2"/>
						<circle class="st3" cx="405" cy="289.1" r="1.2"/>
						<circle class="st3" cx="411.3" cy="289.1" r="1.2"/>
					</g>
					<g>
						<circle class="st3" cx="351.3" cy="293.2" r="1.2"/>
						<circle class="st3" cx="357.6" cy="293.2" r="1.2"/>
						<circle class="st3" cx="363.9" cy="293.2" r="1.2"/>
						<circle class="st3" cx="370.2" cy="293.2" r="1.2"/>
						<circle class="st3" cx="376.5" cy="293.2" r="1.2"/>
						<circle class="st3" cx="382.8" cy="293.2" r="1.2"/>
						<circle class="st3" cx="389.1" cy="293.2" r="1.2"/>
						<circle class="st3" cx="395.4" cy="293.2" r="1.2"/>
						<circle class="st3" cx="401.7" cy="293.2" r="1.2"/>
						<circle class="st3" cx="408" cy="293.2" r="1.2"/>
					</g>
					<g>
						<circle class="st3" cx="354.6" cy="297.3" r="1.2"/>
						<circle class="st3" cx="360.9" cy="297.3" r="1.2"/>
						<circle class="st3" cx="367.2" cy="297.3" r="1.2"/>
						<circle class="st3" cx="373.5" cy="297.3" r="1.2"/>
						<circle class="st3" cx="379.8" cy="297.3" r="1.2"/>
						<circle class="st3" cx="386.1" cy="297.3" r="1.2"/>
						<circle class="st3" cx="392.4" cy="297.3" r="1.2"/>
						<circle class="st3" cx="398.7" cy="297.3" r="1.2"/>
						<circle class="st3" cx="405" cy="297.3" r="1.2"/>
						<circle class="st3" cx="411.3" cy="297.3" r="1.2"/>
					</g>
					<g>
						<circle class="st3" cx="351.3" cy="301.4" r="1.2"/>
						<circle class="st3" cx="357.6" cy="301.4" r="1.2"/>
						<circle class="st3" cx="363.9" cy="301.4" r="1.2"/>
						<circle class="st3" cx="370.2" cy="301.4" r="1.2"/>
						<circle class="st3" cx="376.5" cy="301.4" r="1.2"/>
						<circle class="st3" cx="382.8" cy="301.4" r="1.2"/>
						<circle class="st3" cx="389.1" cy="301.4" r="1.2"/>
						<circle class="st3" cx="395.4" cy="301.4" r="1.2"/>
						<circle class="st3" cx="401.7" cy="301.4" r="1.2"/>
						<circle class="st3" cx="408" cy="301.4" r="1.2"/>
					</g>
					<g>
						<circle class="st3" cx="354.6" cy="305.6" r="1.2"/>
						<circle class="st3" cx="360.9" cy="305.6" r="1.2"/>
						<circle class="st3" cx="367.2" cy="305.6" r="1.2"/>
						<circle class="st3" cx="373.5" cy="305.6" r="1.2"/>
						<circle class="st3" cx="379.8" cy="305.6" r="1.2"/>
						<circle class="st3" cx="386.1" cy="305.6" r="1.2"/>
						<circle class="st3" cx="392.4" cy="305.6" r="1.2"/>
						<circle class="st3" cx="398.7" cy="305.6" r="1.2"/>
						<circle class="st3" cx="405" cy="305.6" r="1.2"/>
						<circle class="st3" cx="411.3" cy="305.6" r="1.2"/>
					</g>
					<g>
						<circle class="st3" cx="351.3" cy="309.7" r="1.2"/>
						<circle class="st3" cx="357.6" cy="309.7" r="1.2"/>
						<circle class="st3" cx="363.9" cy="309.7" r="1.2"/>
						<circle class="st3" cx="370.2" cy="309.7" r="1.2"/>
						<circle class="st3" cx="376.5" cy="309.7" r="1.2"/>
						<circle class="st3" cx="382.8" cy="309.7" r="1.2"/>
						<circle class="st3" cx="389.1" cy="309.7" r="1.2"/>
						<circle class="st3" cx="395.4" cy="309.7" r="1.2"/>
						<circle class="st3" cx="401.7" cy="309.7" r="1.2"/>
						<circle class="st3" cx="408" cy="309.7" r="1.2"/>
					</g>
				</g>
				<g>
					<g>
						<circle class="st3" cx="218.2" cy="252.1" r="1.2"/>
						<circle class="st3" cx="224.5" cy="252.1" r="1.2"/>
						<circle class="st3" cx="230.8" cy="252.1" r="1.2"/>
						<circle class="st3" cx="237.1" cy="252.1" r="1.2"/>
						<circle class="st3" cx="243.4" cy="252.1" r="1.2"/>
						<circle class="st3" cx="249.7" cy="252.1" r="1.2"/>
						<circle class="st3" cx="256" cy="252.1" r="1.2"/>
						<circle class="st3" cx="262.3" cy="252.1" r="1.2"/>
						<circle class="st3" cx="268.6" cy="252.1" r="1.2"/>
						<circle class="st3" cx="274.9" cy="252.1" r="1.2"/>
					</g>
					<g>
						<circle class="st3" cx="221.5" cy="256.2" r="1.2"/>
						<circle class="st3" cx="227.8" cy="256.2" r="1.2"/>
						<circle class="st3" cx="234.1" cy="256.2" r="1.2"/>
						<circle class="st3" cx="240.4" cy="256.2" r="1.2"/>
						<circle class="st3" cx="246.7" cy="256.2" r="1.2"/>
						<circle class="st3" cx="253" cy="256.2" r="1.2"/>
						<circle class="st3" cx="259.3" cy="256.2" r="1.2"/>
						<circle class="st3" cx="265.6" cy="256.2" r="1.2"/>
						<circle class="st3" cx="271.9" cy="256.2" r="1.2"/>
						<circle class="st3" cx="278.2" cy="256.2" r="1.2"/>
					</g>
					<g>
						<circle class="st3" cx="218.2" cy="260.3" r="1.2"/>
						<circle class="st3" cx="224.5" cy="260.3" r="1.2"/>
						<circle class="st3" cx="230.8" cy="260.3" r="1.2"/>
						<circle class="st3" cx="237.1" cy="260.3" r="1.2"/>
						<circle class="st3" cx="243.4" cy="260.3" r="1.2"/>
						<circle class="st3" cx="249.7" cy="260.3" r="1.2"/>
						<circle class="st3" cx="256" cy="260.3" r="1.2"/>
						<circle class="st3" cx="262.3" cy="260.3" r="1.2"/>
						<circle class="st3" cx="268.6" cy="260.3" r="1.2"/>
						<circle class="st3" cx="274.9" cy="260.3" r="1.2"/>
					</g>
					<g>
						<circle class="st3" cx="221.5" cy="264.5" r="1.2"/>
						<circle class="st3" cx="227.8" cy="264.5" r="1.2"/>
						<circle class="st3" cx="234.1" cy="264.5" r="1.2"/>
						<circle class="st3" cx="240.4" cy="264.5" r="1.2"/>
						<circle class="st3" cx="246.7" cy="264.5" r="1.2"/>
						<circle class="st3" cx="253" cy="264.5" r="1.2"/>
						<circle class="st3" cx="259.3" cy="264.5" r="1.2"/>
						<circle class="st3" cx="265.6" cy="264.5" r="1.2"/>
						<circle class="st3" cx="271.9" cy="264.5" r="1.2"/>
						<circle class="st3" cx="278.2" cy="264.5" r="1.2"/>
					</g>
					<g>
						<circle class="st3" cx="218.2" cy="268.6" r="1.2"/>
						<circle class="st3" cx="224.5" cy="268.6" r="1.2"/>
						<circle class="st3" cx="230.8" cy="268.6" r="1.2"/>
						<circle class="st3" cx="237.1" cy="268.6" r="1.2"/>
						<circle class="st3" cx="243.4" cy="268.6" r="1.2"/>
						<circle class="st3" cx="249.7" cy="268.6" r="1.2"/>
						<circle class="st3" cx="256" cy="268.6" r="1.2"/>
						<circle class="st3" cx="262.3" cy="268.6" r="1.2"/>
						<circle class="st3" cx="268.6" cy="268.6" r="1.2"/>
						<circle class="st3" cx="274.9" cy="268.6" r="1.2"/>
					</g>
					<g>
						<circle class="st3" cx="221.5" cy="272.7" r="1.2"/>
						<circle class="st3" cx="227.8" cy="272.7" r="1.2"/>
						<circle class="st3" cx="234.1" cy="272.7" r="1.2"/>
						<circle class="st3" cx="240.4" cy="272.7" r="1.2"/>
						<circle class="st3" cx="246.7" cy="272.7" r="1.2"/>
						<circle class="st3" cx="253" cy="272.7" r="1.2"/>
						<circle class="st3" cx="259.3" cy="272.7" r="1.2"/>
						<circle class="st3" cx="265.6" cy="272.7" r="1.2"/>
						<circle class="st3" cx="271.9" cy="272.7" r="1.2"/>
						<circle class="st3" cx="278.2" cy="272.7" r="1.2"/>
					</g>
					<g>
						<circle class="st3" cx="218.2" cy="276.8" r="1.2"/>
						<circle class="st3" cx="224.5" cy="276.8" r="1.2"/>
						<circle class="st3" cx="230.8" cy="276.8" r="1.2"/>
						<circle class="st3" cx="237.1" cy="276.8" r="1.2"/>
						<circle class="st3" cx="243.4" cy="276.8" r="1.2"/>
						<circle class="st3" cx="249.7" cy="276.8" r="1.2"/>
						<circle class="st3" cx="256" cy="276.8" r="1.2"/>
						<circle class="st3" cx="262.3" cy="276.8" r="1.2"/>
						<circle class="st3" cx="268.6" cy="276.8" r="1.2"/>
						<circle class="st3" cx="274.9" cy="276.8" r="1.2"/>
					</g>
					<g>
						<circle class="st3" cx="221.5" cy="280.9" r="1.2"/>
						<circle class="st3" cx="227.8" cy="280.9" r="1.2"/>
						<circle class="st3" cx="234.1" cy="280.9" r="1.2"/>
						<circle class="st3" cx="240.4" cy="280.9" r="1.2"/>
						<circle class="st3" cx="246.7" cy="280.9" r="1.2"/>
						<circle class="st3" cx="253" cy="280.9" r="1.2"/>
						<circle class="st3" cx="259.3" cy="280.9" r="1.2"/>
						<circle class="st3" cx="265.6" cy="280.9" r="1.2"/>
						<circle class="st3" cx="271.9" cy="280.9" r="1.2"/>
						<circle class="st3" cx="278.2" cy="280.9" r="1.2"/>
					</g>
					<g>
						<circle class="st3" cx="218.2" cy="285" r="1.2"/>
						<circle class="st3" cx="224.5" cy="285" r="1.2"/>
						<circle class="st3" cx="230.8" cy="285" r="1.2"/>
						<circle class="st3" cx="237.1" cy="285" r="1.2"/>
						<circle class="st3" cx="243.4" cy="285" r="1.2"/>
						<circle class="st3" cx="249.7" cy="285" r="1.2"/>
						<circle class="st3" cx="256" cy="285" r="1.2"/>
						<circle class="st3" cx="262.3" cy="285" r="1.2"/>
						<circle class="st3" cx="268.6" cy="285" r="1.2"/>
						<circle class="st3" cx="274.9" cy="285" r="1.2"/>
					</g>
					<g>
						<circle class="st3" cx="221.5" cy="289.1" r="1.2"/>
						<circle class="st3" cx="227.8" cy="289.1" r="1.2"/>
						<circle class="st3" cx="234.1" cy="289.1" r="1.2"/>
						<circle class="st3" cx="240.4" cy="289.1" r="1.2"/>
						<circle class="st3" cx="246.7" cy="289.1" r="1.2"/>
						<circle class="st3" cx="253" cy="289.1" r="1.2"/>
						<circle class="st3" cx="259.3" cy="289.1" r="1.2"/>
						<circle class="st3" cx="265.6" cy="289.1" r="1.2"/>
						<circle class="st3" cx="271.9" cy="289.1" r="1.2"/>
						<circle class="st3" cx="278.2" cy="289.1" r="1.2"/>
					</g>
					<g>
						<circle class="st3" cx="218.2" cy="293.2" r="1.2"/>
						<circle class="st3" cx="224.5" cy="293.2" r="1.2"/>
						<circle class="st3" cx="230.8" cy="293.2" r="1.2"/>
						<circle class="st3" cx="237.1" cy="293.2" r="1.2"/>
						<circle class="st3" cx="243.4" cy="293.2" r="1.2"/>
						<circle class="st3" cx="249.7" cy="293.2" r="1.2"/>
						<circle class="st3" cx="256" cy="293.2" r="1.2"/>
						<circle class="st3" cx="262.3" cy="293.2" r="1.2"/>
						<circle class="st3" cx="268.6" cy="293.2" r="1.2"/>
						<circle class="st3" cx="274.9" cy="293.2" r="1.2"/>
					</g>
					<g>
						<circle class="st3" cx="221.5" cy="297.3" r="1.2"/>
						<circle class="st3" cx="227.8" cy="297.3" r="1.2"/>
						<circle class="st3" cx="234.1" cy="297.3" r="1.2"/>
						<circle class="st3" cx="240.4" cy="297.3" r="1.2"/>
						<circle class="st3" cx="246.7" cy="297.3" r="1.2"/>
						<circle class="st3" cx="253" cy="297.3" r="1.2"/>
						<circle class="st3" cx="259.3" cy="297.3" r="1.2"/>
						<circle class="st3" cx="265.6" cy="297.3" r="1.2"/>
						<circle class="st3" cx="271.9" cy="297.3" r="1.2"/>
						<circle class="st3" cx="278.2" cy="297.3" r="1.2"/>
					</g>
					<g>
						<circle class="st3" cx="218.2" cy="301.4" r="1.2"/>
						<circle class="st3" cx="224.5" cy="301.4" r="1.2"/>
						<circle class="st3" cx="230.8" cy="301.4" r="1.2"/>
						<circle class="st3" cx="237.1" cy="301.4" r="1.2"/>
						<circle class="st3" cx="243.4" cy="301.4" r="1.2"/>
						<circle class="st3" cx="249.7" cy="301.4" r="1.2"/>
						<circle class="st3" cx="256" cy="301.4" r="1.2"/>
						<circle class="st3" cx="262.3" cy="301.4" r="1.2"/>
						<circle class="st3" cx="268.6" cy="301.4" r="1.2"/>
						<circle class="st3" cx="274.9" cy="301.4" r="1.2"/>
					</g>
					<g>
						<circle class="st3" cx="221.5" cy="305.6" r="1.2"/>
						<circle class="st3" cx="227.8" cy="305.6" r="1.2"/>
						<circle class="st3" cx="234.1" cy="305.6" r="1.2"/>
						<circle class="st3" cx="240.4" cy="305.6" r="1.2"/>
						<circle class="st3" cx="246.7" cy="305.6" r="1.2"/>
						<circle class="st3" cx="253" cy="305.6" r="1.2"/>
						<circle class="st3" cx="259.3" cy="305.6" r="1.2"/>
						<circle class="st3" cx="265.6" cy="305.6" r="1.2"/>
						<circle class="st3" cx="271.9" cy="305.6" r="1.2"/>
						<circle class="st3" cx="278.2" cy="305.6" r="1.2"/>
					</g>
					<g>
						<circle class="st3" cx="218.2" cy="309.7" r="1.2"/>
						<circle class="st3" cx="224.5" cy="309.7" r="1.2"/>
						<circle class="st3" cx="230.8" cy="309.7" r="1.2"/>
						<circle class="st3" cx="237.1" cy="309.7" r="1.2"/>
						<circle class="st3" cx="243.4" cy="309.7" r="1.2"/>
						<circle class="st3" cx="249.7" cy="309.7" r="1.2"/>
						<circle class="st3" cx="256" cy="309.7" r="1.2"/>
						<circle class="st3" cx="262.3" cy="309.7" r="1.2"/>
						<circle class="st3" cx="268.6" cy="309.7" r="1.2"/>
						<circle class="st3" cx="274.9" cy="309.7" r="1.2"/>
					</g>
				</g>
				<g>
					<g>
						<circle class="st3" cx="288" cy="313.2" r="1.2"/>
						<circle class="st3" cx="294.3" cy="313.2" r="1.2"/>
						<circle class="st3" cx="300.6" cy="313.2" r="1.2"/>
						<circle class="st3" cx="307" cy="313.2" r="1.2"/>
						<circle class="st3" cx="313.3" cy="313.2" r="1.2"/>
						<circle class="st3" cx="319.6" cy="313.2" r="1.2"/>
						<circle class="st3" cx="325.9" cy="313.2" r="1.2"/>
						<circle class="st3" cx="332.2" cy="313.2" r="1.2"/>
						<circle class="st3" cx="338.5" cy="313.2" r="1.2"/>
						<circle class="st3" cx="344.8" cy="313.2" r="1.2"/>
					</g>
					<g>
						<circle class="st3" cx="284.8" cy="317.3" r="1.2"/>
						<circle class="st3" cx="291.1" cy="317.3" r="1.2"/>
						<circle class="st3" cx="297.4" cy="317.3" r="1.2"/>
						<circle class="st3" cx="303.7" cy="317.3" r="1.2"/>
						<circle class="st3" cx="310" cy="317.3" r="1.2"/>
						<circle class="st3" cx="316.3" cy="317.3" r="1.2"/>
						<circle class="st3" cx="322.6" cy="317.3" r="1.2"/>
						<circle class="st3" cx="328.9" cy="317.3" r="1.2"/>
						<circle class="st3" cx="335.2" cy="317.3" r="1.2"/>
						<circle class="st3" cx="341.5" cy="317.3" r="1.2"/>
					</g>
					<g>
						<circle class="st3" cx="288" cy="321.5" r="1.2"/>
						<circle class="st3" cx="294.3" cy="321.5" r="1.2"/>
						<circle class="st3" cx="300.6" cy="321.5" r="1.2"/>
						<circle class="st3" cx="307" cy="321.5" r="1.2"/>
						<circle class="st3" cx="313.3" cy="321.5" r="1.2"/>
						<circle class="st3" cx="319.6" cy="321.5" r="1.2"/>
						<circle class="st3" cx="325.9" cy="321.5" r="1.2"/>
						<circle class="st3" cx="332.2" cy="321.5" r="1.2"/>
						<circle class="st3" cx="338.5" cy="321.5" r="1.2"/>
						<circle class="st3" cx="344.8" cy="321.5" r="1.2"/>
					</g>
					<g>
						<circle class="st3" cx="284.8" cy="325.6" r="1.2"/>
						<circle class="st3" cx="291.1" cy="325.6" r="1.2"/>
						<circle class="st3" cx="297.4" cy="325.6" r="1.2"/>
						<circle class="st3" cx="303.7" cy="325.6" r="1.2"/>
						<circle class="st3" cx="310" cy="325.6" r="1.2"/>
						<circle class="st3" cx="316.3" cy="325.6" r="1.2"/>
						<circle class="st3" cx="322.6" cy="325.6" r="1.2"/>
						<circle class="st3" cx="328.9" cy="325.6" r="1.2"/>
						<circle class="st3" cx="335.2" cy="325.6" r="1.2"/>
						<circle class="st3" cx="341.5" cy="325.6" r="1.2"/>
					</g>
					<g>
						<circle class="st3" cx="288" cy="329.7" r="1.2"/>
						<circle class="st3" cx="294.3" cy="329.7" r="1.2"/>
						<circle class="st3" cx="300.6" cy="329.7" r="1.2"/>
						<circle class="st3" cx="307" cy="329.7" r="1.2"/>
						<circle class="st3" cx="313.3" cy="329.7" r="1.2"/>
						<circle class="st3" cx="319.6" cy="329.7" r="1.2"/>
						<circle class="st3" cx="325.9" cy="329.7" r="1.2"/>
						<circle class="st3" cx="332.2" cy="329.7" r="1.2"/>
						<circle class="st3" cx="338.5" cy="329.7" r="1.2"/>
						<circle class="st3" cx="344.8" cy="329.7" r="1.2"/>
					</g>
					<g>
						<circle class="st3" cx="284.8" cy="333.8" r="1.2"/>
						<circle class="st3" cx="291.1" cy="333.8" r="1.2"/>
						<circle class="st3" cx="297.4" cy="333.8" r="1.2"/>
						<circle class="st3" cx="303.7" cy="333.8" r="1.2"/>
						<circle class="st3" cx="310" cy="333.8" r="1.2"/>
						<circle class="st3" cx="316.3" cy="333.8" r="1.2"/>
						<circle class="st3" cx="322.6" cy="333.8" r="1.2"/>
						<circle class="st3" cx="328.9" cy="333.8" r="1.2"/>
						<circle class="st3" cx="335.2" cy="333.8" r="1.2"/>
						<circle class="st3" cx="341.5" cy="333.8" r="1.2"/>
					</g>
				</g>
				<g>
					<g>
						<circle class="st3" cx="354.6" cy="313.2" r="1.2"/>
						<circle class="st3" cx="360.9" cy="313.2" r="1.2"/>
						<circle class="st3" cx="367.2" cy="313.2" r="1.2"/>
						<circle class="st3" cx="373.5" cy="313.2" r="1.2"/>
						<circle class="st3" cx="379.8" cy="313.2" r="1.2"/>
						<circle class="st3" cx="386.1" cy="313.2" r="1.2"/>
						<circle class="st3" cx="392.4" cy="313.2" r="1.2"/>
						<circle class="st3" cx="398.7" cy="313.2" r="1.2"/>
						<circle class="st3" cx="405" cy="313.2" r="1.2"/>
						<circle class="st3" cx="411.3" cy="313.2" r="1.2"/>
					</g>
					<g>
						<circle class="st3" cx="351.3" cy="317.3" r="1.2"/>
						<circle class="st3" cx="357.6" cy="317.3" r="1.2"/>
						<circle class="st3" cx="363.9" cy="317.3" r="1.2"/>
						<circle class="st3" cx="370.2" cy="317.3" r="1.2"/>
						<circle class="st3" cx="376.5" cy="317.3" r="1.2"/>
						<circle class="st3" cx="382.8" cy="317.3" r="1.2"/>
						<circle class="st3" cx="389.1" cy="317.3" r="1.2"/>
						<circle class="st3" cx="395.4" cy="317.3" r="1.2"/>
						<circle class="st3" cx="401.7" cy="317.3" r="1.2"/>
						<circle class="st3" cx="408" cy="317.3" r="1.2"/>
					</g>
					<g>
						<circle class="st3" cx="354.6" cy="321.5" r="1.2"/>
						<circle class="st3" cx="360.9" cy="321.5" r="1.2"/>
						<circle class="st3" cx="367.2" cy="321.5" r="1.2"/>
						<circle class="st3" cx="373.5" cy="321.5" r="1.2"/>
						<circle class="st3" cx="379.8" cy="321.5" r="1.2"/>
						<circle class="st3" cx="386.1" cy="321.5" r="1.2"/>
						<circle class="st3" cx="392.4" cy="321.5" r="1.2"/>
						<circle class="st3" cx="398.7" cy="321.5" r="1.2"/>
						<circle class="st3" cx="405" cy="321.5" r="1.2"/>
						<circle class="st3" cx="411.3" cy="321.5" r="1.2"/>
					</g>
					<g>
						<circle class="st3" cx="351.3" cy="325.6" r="1.2"/>
						<circle class="st3" cx="357.6" cy="325.6" r="1.2"/>
						<circle class="st3" cx="363.9" cy="325.6" r="1.2"/>
						<circle class="st3" cx="370.2" cy="325.6" r="1.2"/>
						<circle class="st3" cx="376.5" cy="325.6" r="1.2"/>
						<circle class="st3" cx="382.8" cy="325.6" r="1.2"/>
						<circle class="st3" cx="389.1" cy="325.6" r="1.2"/>
						<circle class="st3" cx="395.4" cy="325.6" r="1.2"/>
						<circle class="st3" cx="401.7" cy="325.6" r="1.2"/>
						<circle class="st3" cx="408" cy="325.6" r="1.2"/>
					</g>
					<g>
						<circle class="st3" cx="354.6" cy="329.7" r="1.2"/>
						<circle class="st3" cx="360.9" cy="329.7" r="1.2"/>
						<circle class="st3" cx="367.2" cy="329.7" r="1.2"/>
						<circle class="st3" cx="373.5" cy="329.7" r="1.2"/>
						<circle class="st3" cx="379.8" cy="329.7" r="1.2"/>
						<circle class="st3" cx="386.1" cy="329.7" r="1.2"/>
						<circle class="st3" cx="392.4" cy="329.7" r="1.2"/>
						<circle class="st3" cx="398.7" cy="329.7" r="1.2"/>
						<circle class="st3" cx="405" cy="329.7" r="1.2"/>
						<circle class="st3" cx="411.3" cy="329.7" r="1.2"/>
					</g>
					<g>
						<circle class="st3" cx="351.3" cy="333.8" r="1.2"/>
						<circle class="st3" cx="357.6" cy="333.8" r="1.2"/>
						<circle class="st3" cx="363.9" cy="333.8" r="1.2"/>
						<circle class="st3" cx="370.2" cy="333.8" r="1.2"/>
						<circle class="st3" cx="376.5" cy="333.8" r="1.2"/>
						<circle class="st3" cx="382.8" cy="333.8" r="1.2"/>
						<circle class="st3" cx="389.1" cy="333.8" r="1.2"/>
						<circle class="st3" cx="395.4" cy="333.8" r="1.2"/>
						<circle class="st3" cx="401.7" cy="333.8" r="1.2"/>
						<circle class="st3" cx="408" cy="333.8" r="1.2"/>
					</g>
				</g>
				<g>
					<g>
						<circle class="st3" cx="221.5" cy="313.2" r="1.2"/>
						<circle class="st3" cx="227.8" cy="313.2" r="1.2"/>
						<circle class="st3" cx="234.1" cy="313.2" r="1.2"/>
						<circle class="st3" cx="240.4" cy="313.2" r="1.2"/>
						<circle class="st3" cx="246.7" cy="313.2" r="1.2"/>
						<circle class="st3" cx="253" cy="313.2" r="1.2"/>
						<circle class="st3" cx="259.3" cy="313.2" r="1.2"/>
						<circle class="st3" cx="265.6" cy="313.2" r="1.2"/>
						<circle class="st3" cx="271.9" cy="313.2" r="1.2"/>
						<circle class="st3" cx="278.2" cy="313.2" r="1.2"/>
					</g>
					<g>
						<circle class="st3" cx="218.2" cy="317.3" r="1.2"/>
						<circle class="st3" cx="224.5" cy="317.3" r="1.2"/>
						<circle class="st3" cx="230.8" cy="317.3" r="1.2"/>
						<circle class="st3" cx="237.1" cy="317.3" r="1.2"/>
						<circle class="st3" cx="243.4" cy="317.3" r="1.2"/>
						<circle class="st3" cx="249.7" cy="317.3" r="1.2"/>
						<circle class="st3" cx="256" cy="317.3" r="1.2"/>
						<circle class="st3" cx="262.3" cy="317.3" r="1.2"/>
						<circle class="st3" cx="268.6" cy="317.3" r="1.2"/>
						<circle class="st3" cx="274.9" cy="317.3" r="1.2"/>
					</g>
					<g>
						<circle class="st3" cx="221.5" cy="321.5" r="1.2"/>
						<circle class="st3" cx="227.8" cy="321.5" r="1.2"/>
						<circle class="st3" cx="234.1" cy="321.5" r="1.2"/>
						<circle class="st3" cx="240.4" cy="321.5" r="1.2"/>
						<circle class="st3" cx="246.7" cy="321.5" r="1.2"/>
						<circle class="st3" cx="253" cy="321.5" r="1.2"/>
						<circle class="st3" cx="259.3" cy="321.5" r="1.2"/>
						<circle class="st3" cx="265.6" cy="321.5" r="1.2"/>
						<circle class="st3" cx="271.9" cy="321.5" r="1.2"/>
						<circle class="st3" cx="278.2" cy="321.5" r="1.2"/>
					</g>
					<g>
						<circle class="st3" cx="218.2" cy="325.6" r="1.2"/>
						<circle class="st3" cx="224.5" cy="325.6" r="1.2"/>
						<circle class="st3" cx="230.8" cy="325.6" r="1.2"/>
						<circle class="st3" cx="237.1" cy="325.6" r="1.2"/>
						<circle class="st3" cx="243.4" cy="325.6" r="1.2"/>
						<circle class="st3" cx="249.7" cy="325.6" r="1.2"/>
						<circle class="st3" cx="256" cy="325.6" r="1.2"/>
						<circle class="st3" cx="262.3" cy="325.6" r="1.2"/>
						<circle class="st3" cx="268.6" cy="325.6" r="1.2"/>
						<circle class="st3" cx="274.9" cy="325.6" r="1.2"/>
					</g>
					<g>
						<circle class="st3" cx="221.5" cy="329.7" r="1.2"/>
						<circle class="st3" cx="227.8" cy="329.7" r="1.2"/>
						<circle class="st3" cx="234.1" cy="329.7" r="1.2"/>
						<circle class="st3" cx="240.4" cy="329.7" r="1.2"/>
						<circle class="st3" cx="246.7" cy="329.7" r="1.2"/>
						<circle class="st3" cx="253" cy="329.7" r="1.2"/>
						<circle class="st3" cx="259.3" cy="329.7" r="1.2"/>
						<circle class="st3" cx="265.6" cy="329.7" r="1.2"/>
						<circle class="st3" cx="271.9" cy="329.7" r="1.2"/>
						<circle class="st3" cx="278.2" cy="329.7" r="1.2"/>
					</g>
					<g>
						<circle class="st3" cx="218.2" cy="333.8" r="1.2"/>
						<circle class="st3" cx="224.5" cy="333.8" r="1.2"/>
						<circle class="st3" cx="230.8" cy="333.8" r="1.2"/>
						<circle class="st3" cx="237.1" cy="333.8" r="1.2"/>
						<circle class="st3" cx="243.4" cy="333.8" r="1.2"/>
						<circle class="st3" cx="249.7" cy="333.8" r="1.2"/>
						<circle class="st3" cx="256" cy="333.8" r="1.2"/>
						<circle class="st3" cx="262.3" cy="333.8" r="1.2"/>
						<circle class="st3" cx="268.6" cy="333.8" r="1.2"/>
						<circle class="st3" cx="274.9" cy="333.8" r="1.2"/>
					</g>
				</g>
			</g>
		</g>
	</g>
</g>
</svg>
